<?xml version="1.0" standalone="no"?>
<!DOCTYPE svg PUBLIC "-//W3C//DTD SVG 1.1//EN" "http://www.w3.org/Graphics/SVG/1.1/DTD/svg11.dtd" >
<svg xmlns="http://www.w3.org/2000/svg" xmlns:xlink="http://www.w3.org/1999/xlink" version="1.1">
<metadata>
Created by FontForge 20150913 at Wed May  4 00:05:05 2016
 By Jimmy Wärting
Created by gluk (http://www.glukfonts.pl) with FontForge.
This Font is licensed unter SIL Open Font License v.1.1.
</metadata>
<defs>
<font id="FoglihtenNo01" horiz-adv-x="506" >
  <font-face 
    font-family="FoglihtenNo01"
    font-weight="500"
    font-stretch="normal"
    units-per-em="1000"
    panose-1="0 0 6 0 0 0 0 0 0 0"
    ascent="773"
    descent="-227"
    x-height="455"
    cap-height="455"
    bbox="-9 -380 1072 752"
    underline-thickness="17"
    underline-position="-122"
    stemh="26"
    stemv="26"
    unicode-range="U+0020-FFFD"
  />
<missing-glyph horiz-adv-x="284" 
d="M55 -37h174v525h-174v-525zM26 -66v583h232v-583h-232z" />
    <glyph glyph-name=".notdef" horiz-adv-x="284" 
d="M55 -37h174v525h-174v-525zM26 -66v583h232v-583h-232z" />
    <glyph glyph-name="space" unicode=" " horiz-adv-x="262" 
 />
    <glyph glyph-name="exclam" unicode="!" horiz-adv-x="157" 
d="M79 79c26 0 43 -16 43 -44c0 -26 -15 -44 -43 -44c-26 0 -44 16 -44 44c0 26 16 44 44 44zM114 468c0 -166 -22 -145 -22 -311h-26c0 166 -22 145 -22 311c0 6 12 8 35 8s35 -2 35 -8zM79 52c-13 0 -18 -6 -18 -17c0 -13 7 -18 18 -18c13 0 17 7 17 18c0 13 -6 17 -17 17
zM70 450c1 -59 5 -93 9 -124c4 31 7 65 8 124h-17z" />
    <glyph glyph-name="quotedbl" unicode="&#x22;" horiz-adv-x="183" 
d="M26 355l9 141c24 -1 35 -4 35 -22c0 -10 -1 -30 -5 -57l-9 -63zM105 355l9 141c24 -1 35 -4 35 -22c0 -10 -2 -30 -6 -57l-8 -63z" />
    <glyph glyph-name="numbersign" unicode="#" horiz-adv-x="454" 
d="M137 -10l-26 3l14 138h-90v26h93l14 140h-90v26h93l15 142l26 -3l-14 -139h122l15 142l26 -3l-15 -139h100v-26h-103l-14 -140h99v-26h-102l-14 -141l-26 3l14 138h-122zM169 297l-15 -140h123l14 140h-122z" />
    <glyph glyph-name="dollar" unicode="$" horiz-adv-x="393" 
d="M201 -57h-17v53c-48 2 -101 23 -131 44c-7 5 -11 11 -14 19l-3 -1c3 -7 6 -18 6 -28l1 -34l-17 -1l-9 154h27c2 -65 69 -123 140 -127v182c-69 30 -140 65 -140 138c0 63 56 105 140 108v53h17v-53c43 -1 75 -14 99 -31c10 -7 15 -18 16 -21l2 1c-1 7 -3 18 -3 28l-1 23
l17 1l8 -139l-25 -2l-2 14c-5 50 -43 97 -111 100v-156c79 -36 175 -68 175 -150c0 -72 -70 -119 -175 -122v-53zM201 197v-175c70 2 108 31 108 83c0 43 -51 67 -108 92zM184 276v148c-54 -2 -83 -23 -83 -60c0 -40 36 -66 83 -88zM173 252c-43 21 -99 53 -99 112v3
c-3 -8 -4 -16 -4 -25c0 -52 48 -81 124 -114l18 -7c38 -17 94 -41 115 -82c5 -10 8 -22 8 -34s-2 -25 -7 -39c14 14 22 32 22 52c0 58 -69 86 -140 117z" />
    <glyph glyph-name="percent" unicode="%" horiz-adv-x="510" 
d="M439 73c0 44 -13 94 -64 94c-43 0 -63 -32 -63 -84c0 -44 12 -93 63 -93c43 0 64 31 64 83zM375 188c66 0 109 -43 109 -109s-43 -110 -109 -110s-109 44 -109 110s43 109 109 109zM199 344c0 44 -13 94 -64 94c-43 0 -63 -32 -63 -84c0 -44 12 -93 63 -93
c43 0 64 31 64 83zM135 458c66 0 109 -43 109 -109s-43 -109 -109 -109s-109 43 -109 109s43 109 109 109zM70 4l-19 18l393 404l19 -17zM199 419c13 -22 17 -51 17 -75c0 -23 -4 -44 -13 -61c15 16 24 38 24 66c0 30 -10 54 -28 70zM67 415c-15 -16 -23 -38 -23 -66
c0 -30 9 -53 27 -69c-13 22 -17 50 -17 74c0 23 4 44 13 61zM439 148c13 -22 17 -51 17 -75c0 -23 -3 -43 -12 -60c15 16 23 38 23 66c0 30 -10 53 -28 69zM308 145c-15 -16 -24 -38 -24 -66c0 -30 9 -54 27 -70c-13 22 -17 50 -17 74c0 23 5 45 14 62z" />
    <glyph glyph-name="ampersand" unicode="&#x26;" horiz-adv-x="629" 
d="M346 341c0 68 -33 105 -95 105c-56 0 -85 -25 -85 -70c0 -51 26 -79 73 -79h45c35 0 62 9 62 44zM612 93c-19 -68 -73 -110 -140 -110c-59 0 -104 27 -128 72c-25 -49 -79 -72 -135 -72c-115 0 -192 66 -192 166c0 68 40 130 151 141v2c-54 18 -67 51 -67 84
c0 58 56 96 140 96c54 0 108 -21 125 -70h1l9 100h17v-177c0 -16 -1 -19 -8 -26v-2h157v-26h-149v-166c0 -62 28 -96 79 -96c54 0 99 35 115 91zM323 271h-124c-70 0 -107 -48 -107 -122c0 -91 42 -140 121 -140c56 0 110 41 110 131v131zM149 420c-14 -12 -22 -26 -22 -44
s5 -33 20 -45c-4 13 -7 28 -7 45s3 31 9 44zM350 271v-131c0 -13 -1 -25 -3 -36l20 -37c2 -4 3 -8 6 -11c-4 14 -6 31 -6 49v166h-17zM87 237c-31 -21 -43 -53 -43 -88c0 -43 17 -79 46 -103c-16 26 -24 61 -24 103c0 35 7 64 21 88z" />
    <glyph glyph-name="quotesingle" unicode="'" horiz-adv-x="100" 
d="M26 355l9 141c24 -1 35 -4 35 -22c0 -10 -1 -30 -5 -57l-9 -63z" />
    <glyph glyph-name="parenleft" unicode="(" horiz-adv-x="209" 
d="M198 485c-80 -52 -111 -162 -111 -258s31 -206 111 -258l-11 -15c-109 70 -170 179 -170 273s56 200 170 273zM77 107c-11 41 -16 82 -16 120c0 39 5 83 17 125c-24 -42 -34 -85 -34 -125c0 -38 11 -79 33 -120z" />
    <glyph glyph-name="parenright" unicode=")" horiz-adv-x="209" 
d="M11 485l12 15c114 -73 169 -179 169 -273s-60 -203 -169 -273l-12 15c80 52 111 162 111 258s-31 206 -111 258zM133 107c22 41 33 82 33 120c0 40 -10 83 -34 125c12 -42 17 -86 17 -125c0 -38 -5 -79 -16 -120z" />
    <glyph glyph-name="asterisk" unicode="*" horiz-adv-x="377" 
d="M212 263l107 60l18 -32l-105 -62v-4l105 -62l-18 -32l-107 60l-3 -2l-2 -122h-36l-2 122l-3 2l-107 -60l-18 32l105 62v4l-105 62l18 32l107 -60l3 2l2 122h36l2 -122zM205 219v15l-16 14l-17 -13v-17l17 -10z" />
    <glyph glyph-name="plus" unicode="+" horiz-adv-x="393" 
d="M212 227h155l-2 -26h-153v-155l-27 2v153h-159l2 26h157v162l27 -2v-160z" />
    <glyph glyph-name="comma" unicode="," horiz-adv-x="139" 
d="M70 61c-13 0 -18 -6 -18 -17c0 -13 7 -18 18 -18c13 0 17 7 17 18c0 13 -6 17 -17 17zM114 44c0 -74 -33 -106 -81 -106v17c26 0 47 12 50 32c1 8 4 14 6 17l-3 3c-3 -3 -9 -7 -16 -7c-28 0 -44 16 -44 44s16 43 44 43c26 0 44 -17 44 -43z" />
    <glyph glyph-name="hyphen" unicode="-" horiz-adv-x="279" 
d="M240 205h-205l4 27h206z" />
    <glyph glyph-name="period" unicode="." horiz-adv-x="139" 
d="M70 87c26 0 44 -15 44 -43c0 -26 -16 -44 -44 -44c-26 0 -44 16 -44 44c0 26 16 43 44 43zM70 61c-13 0 -18 -6 -18 -17c0 -13 7 -18 18 -18c13 0 17 7 17 18c0 13 -6 17 -17 17z" />
    <glyph glyph-name="slash" unicode="/" horiz-adv-x="478" 
d="M11 -25c100 117 153 182 209 254c55 70 112 146 208 280l39 -31c-108 -124 -165 -195 -220 -265c-56 -71 -107 -142 -196 -269zM37 -22l10 -9l86 123zM337 353l105 123l-11 8z" />
    <glyph glyph-name="zero" unicode="0" horiz-adv-x="437" 
d="M348 81c24 37 37 87 37 146c0 78 -23 140 -62 178c24 -42 40 -109 40 -213c0 -46 -5 -83 -15 -111zM89 374c-24 -37 -37 -88 -37 -147c0 -78 23 -139 62 -177c-24 42 -40 108 -40 212c0 46 5 84 15 112zM337 192c0 165 -43 254 -122 254c-75 0 -115 -65 -115 -184
c0 -165 43 -253 122 -253c75 0 115 64 115 183zM26 227c0 147 78 245 193 245s192 -98 192 -245s-77 -244 -192 -244s-193 97 -193 244z" />
    <glyph glyph-name="one" unicode="1" horiz-adv-x="244" 
d="M96 304c0 23 1 41 3 55l-5 2c-3 -6 -11 -17 -24 -29l-27 -28l-19 18c38 44 68 78 107 141h35v-384c0 -55 6 -62 53 -62h8v-17h-201v17h18c47 0 52 7 52 62v225zM122 304v-225c0 -31 -2 -43 -5 -53h29c-3 9 -6 18 -6 53v332h-5l-7 -33l-3 -23c-2 -10 -3 -26 -3 -51z" />
    <glyph glyph-name="two" unicode="2" horiz-adv-x="402" 
d="M52 306h-17v149h17v-10c0 -13 0 -19 -1 -29l3 -1c6 10 15 18 24 24c34 21 69 33 109 33c111 0 174 -52 174 -131c0 -64 -52 -102 -123 -153l-137 -98c-9 -6 -31 -22 -35 -23l3 -7c7 1 39 1 55 1h176c48 0 52 2 58 47h18l-8 -108h-351v56c9 1 23 19 79 64l106 96
c35 32 89 75 89 127c0 67 -36 103 -103 103c-83 0 -125 -64 -136 -130v-10zM345 39h-1c-8 -3 -13 -4 -44 -4h-176c-10 0 -46 0 -51 -1l-23 -4v-4h294zM274 248c41 33 60 58 60 93c0 28 -10 53 -31 71c9 -18 14 -41 14 -71c0 -37 -19 -67 -43 -93z" />
    <glyph glyph-name="three" unicode="3" horiz-adv-x="402" 
d="M182 9c76 0 115 41 115 118c0 82 -41 126 -115 126v27c59 0 92 29 92 85c0 52 -32 81 -92 81c-72 0 -99 -34 -108 -78v-8h-22v98h18v-6c0 -6 0 -11 -1 -14l2 -1c3 5 10 11 16 14c25 13 59 21 95 21c89 0 147 -42 147 -104c0 -49 -51 -93 -101 -101v-1
c75 -9 139 -70 139 -139c0 -87 -73 -144 -185 -144c-58 1 -110 15 -147 49v1v76h20v-7c10 -46 47 -93 127 -93zM304 368c0 10 -5 22 -9 31c2 -10 4 -23 4 -34c0 -6 -1 -13 -1 -18c3 6 6 15 6 21zM313 195c7 -20 10 -42 10 -68c0 -32 -6 -58 -17 -79c22 20 35 47 35 79
c0 24 -11 48 -28 68z" />
    <glyph glyph-name="four" unicode="4" horiz-adv-x="437" 
d="M200 400l24 37h-12c-3 -11 -8 -24 -12 -37zM273 463l-223 -341h221v140h70v-140h44v-35h-44v-8c0 -55 6 -62 61 -62h18v-17h-228v17h18c55 0 61 7 61 62v8h-262v22s140 172 182 354h82zM297 79c0 -15 1 -35 -5 -51c0 -2 6 -3 13 -3s14 1 15 3c-5 13 -5 21 -5 51v157h-18
v-157z" />
    <glyph glyph-name="five" unicode="5" horiz-adv-x="388" 
d="M132 393c-47 0 -50 -2 -53 -37l-6 -71c29 18 65 30 102 30c118 0 197 -65 197 -162c0 -102 -79 -170 -197 -170c-42 1 -103 20 -140 54v64h17v-10c11 -45 50 -82 123 -82c82 0 127 50 127 144c0 88 -45 135 -127 135c-40 0 -85 -9 -116 -32l-14 3l14 171c1 17 5 25 6 25
h214c37 0 39 2 44 30h18l-8 -92h-201zM307 56c24 24 38 58 38 97c0 36 -12 67 -36 90c13 -24 19 -54 19 -90c0 -39 -7 -71 -21 -97zM84 415c5 2 10 2 15 3c10 1 18 2 33 2h167h10l1 10c-2 0 -4 -1 -6 -1c-5 0 -2 -1 -25 -1h-194v-1z" />
    <glyph glyph-name="six" unicode="6" horiz-adv-x="428" 
d="M328 151c0 96 -37 146 -106 146c-54 0 -119 -58 -120 -141c9 -89 53 -147 111 -147c75 0 115 49 115 142zM329 368c-11 36 -29 78 -102 78c-77 0 -128 -80 -128 -216h2c24 52 76 93 124 93c101 0 168 -68 168 -172c0 -101 -72 -168 -180 -168c-107 0 -178 89 -178 224
c0 151 87 265 192 265c49 0 83 -16 119 -48v-58h-17v2zM81 321c-13 -34 -20 -72 -20 -114c0 -55 13 -101 35 -135c-10 24 -17 52 -20 81c-3 31 -3 45 -3 77c0 33 2 64 8 91zM338 61c19 24 29 54 29 90c0 38 -10 71 -29 96c10 -24 16 -55 16 -96c0 -35 -6 -65 -16 -90z" />
    <glyph glyph-name="seven" unicode="7" horiz-adv-x="393" 
d="M288 366c9 10 20 20 27 24l-2 6c-7 -2 -56 -3 -72 -3h-148c-48 0 -52 -2 -58 -47h-18l8 109h351v-49c-38 -10 -165 -91 -166 -334v-72h-70v12c0 184 93 291 148 354zM49 416c8 3 13 4 44 4h148h30h34l24 8h-280v-12zM190 160c-13 -39 -23 -83 -24 -134h18v46
c0 32 2 61 6 88z" />
    <glyph glyph-name="eight" unicode="8" horiz-adv-x="419" 
d="M87 127c0 -77 43 -118 123 -118s122 41 122 118c0 82 -42 126 -122 126s-123 -44 -123 -126zM210 280c64 0 99 29 99 85c0 52 -35 81 -100 81s-100 -29 -100 -81c0 -56 35 -85 101 -85zM210 -17c-111 0 -193 57 -193 144c0 69 65 130 140 139v1c-50 8 -100 52 -100 101
c0 62 66 104 153 104c88 0 154 -42 154 -104c0 -49 -51 -93 -101 -101v-1c75 -9 139 -70 139 -139c0 -87 -81 -144 -192 -144zM89 347c0 5 -2 12 -2 18c0 10 2 22 4 31c-5 -7 -9 -19 -9 -28c0 -6 4 -17 7 -21zM332 347c3 4 7 15 7 21c0 9 -4 21 -9 28c2 -9 4 -21 4 -31
c0 -6 -2 -13 -2 -18zM73 195c-18 -20 -29 -44 -29 -68c0 -30 12 -55 33 -75c-10 21 -16 47 -16 75c0 26 5 48 12 68zM343 52c21 20 33 45 33 75c0 24 -11 49 -29 69c7 -20 11 -43 11 -69c0 -28 -5 -54 -15 -75z" />
    <glyph glyph-name="nine" unicode="9" horiz-adv-x="428" 
d="M101 303c0 -96 37 -146 106 -146c54 0 118 59 119 142c-9 89 -53 147 -111 147c-75 0 -114 -50 -114 -143zM100 87c11 -36 28 -78 101 -78c77 0 129 79 129 215h-3c-24 -52 -75 -93 -123 -93c-101 0 -169 68 -169 172c0 101 72 169 180 169c107 0 178 -89 178 -224
c0 -151 -87 -265 -192 -265c-49 0 -83 16 -119 48v57h18v-1zM347 133c13 34 20 73 20 115c0 55 -13 100 -35 134c10 -24 18 -52 21 -81c2 -31 3 -50 3 -77c0 -33 -3 -64 -9 -91zM90 394c-19 -24 -29 -55 -29 -91c0 -38 10 -71 29 -96c-10 24 -16 55 -16 96c0 35 6 66 16 91z
" />
    <glyph glyph-name="colon" unicode=":" horiz-adv-x="139" 
d="M70 354c-13 0 -18 -6 -18 -17c0 -13 7 -18 18 -18c13 0 17 7 17 18c0 13 -6 17 -17 17zM70 87c26 0 44 -15 44 -43c0 -26 -16 -44 -44 -44c-26 0 -44 16 -44 44c0 26 16 43 44 43zM70 61c-13 0 -18 -6 -18 -17c0 -13 7 -18 18 -18c13 0 17 7 17 18c0 13 -6 17 -17 17z
M70 380c26 0 44 -15 44 -43c0 -26 -16 -44 -44 -44c-26 0 -44 16 -44 44c0 26 16 43 44 43z" />
    <glyph glyph-name="semicolon" unicode=";" horiz-adv-x="139" 
d="M70 61c-13 0 -18 -6 -18 -17c0 -13 7 -18 18 -18c13 0 17 7 17 18c0 13 -6 17 -17 17zM114 44c0 -74 -33 -106 -81 -106v17c26 0 47 12 50 32c1 8 4 14 6 17l-3 3c-3 -3 -9 -7 -16 -7c-28 0 -44 16 -44 44s16 43 44 43c26 0 44 -17 44 -43zM70 354c-13 0 -18 -6 -18 -17
c0 -13 7 -18 18 -18c13 0 17 7 17 18c0 13 -6 17 -17 17zM70 380c26 0 44 -15 44 -43c0 -26 -16 -44 -44 -44c-26 0 -44 16 -44 44c0 26 16 43 44 43z" />
    <glyph glyph-name="less" unicode="&#x3c;" horiz-adv-x="367" 
d="M173 337l135 92l-9 9zM173 117l126 -100l9 9zM9 226v3l292 233l34 -36l-221 -150c-32 -22 -62 -44 -76 -47v-4c14 -3 44 -25 76 -47l221 -150l-34 -35z" />
    <glyph glyph-name="equal" unicode="=" horiz-adv-x="441" 
d="M393 280h-349l4 35h350zM393 140h-349l4 35h350z" />
    <glyph glyph-name="greater" unicode="&#x3e;" horiz-adv-x="367" 
d="M194 337l-126 101l-9 -9zM194 117l-135 -91l9 -9zM358 226l-292 -233l-34 35l221 150c32 22 63 44 77 47v4c-14 3 -45 25 -77 47l-221 150l34 36l292 -233v-3z" />
    <glyph glyph-name="question" unicode="?" horiz-adv-x="340" 
d="M140 79c26 0 44 -16 44 -44c0 -26 -16 -44 -44 -44c-26 0 -44 16 -44 44c0 26 16 44 44 44zM146 472c101 0 169 -49 169 -122c0 -94 -162 -116 -162 -166v-27h-26v27c0 75 113 99 113 166c0 62 -33 96 -94 96c-72 0 -98 -34 -107 -78v-8h-22v98h18v-6c0 -6 0 -11 -1 -14
l2 -1c3 5 10 11 16 14c25 13 58 21 94 21zM140 52c-13 0 -18 -6 -18 -17c0 -13 7 -18 18 -18c13 0 17 7 17 18c0 13 -6 17 -17 17zM237 282c28 17 49 38 51 68c0 28 -13 52 -37 69c10 -18 16 -41 16 -69s-13 -50 -30 -68z" />
    <glyph glyph-name="at" unicode="@" horiz-adv-x="821" 
d="M548 442c13 9 28 23 39 33l14 -1l-36 -323c-1 -11 -3 -26 -3 -33c0 -51 18 -78 50 -78c87 0 157 111 157 248c0 184 -134 307 -336 307c-219 0 -381 -164 -381 -366c0 -241 167 -366 356 -366c69 0 138 16 199 49l12 -23c-66 -35 -138 -52 -211 -52
c-202 0 -382 133 -382 392c0 217 173 393 407 393c218 0 362 -134 362 -334c0 -149 -83 -271 -185 -271c-45 0 -85 38 -102 115h-4c-24 -54 -72 -118 -148 -118c-83 0 -159 72 -159 203c0 125 74 253 237 253c39 0 78 -9 114 -28zM525 414c0 0 -39 17 -87 17
c-119 0 -170 -125 -170 -241c0 -111 44 -154 96 -154c51 0 116 48 138 148zM255 97c-8 24 -13 55 -13 93c0 80 24 177 88 230c-67 -36 -107 -114 -107 -203c0 -51 12 -91 32 -120zM528 180c0 -3 -1 -7 -1 -10c0 -21 5 -45 10 -45c0 2 1 19 2 29l30 271l-17 -12z" />
    <glyph glyph-name="A" unicode="A" 
d="M9 0v17h11c36 0 37 6 57 53l164 393h55v-5v-9c0 -18 5 -40 10 -55l120 -324c19 -47 21 -53 57 -53h15v-17h-179v17h68v2c-14 5 -25 20 -31 37l-24 66h-205l-22 -53c-5 -13 -8 -23 -8 -30c0 -17 15 -22 50 -22h28v-17h-166zM322 149l-74 201c-6 15 -8 31 -8 39v4v2h-7v-2
v-2c0 -7 -4 -24 -11 -41l-84 -201h184zM267 421c0 -10 -1 -18 -1 -25c0 -11 0 -22 6 -37l109 -293c8 -21 16 -26 30 -32c-3 6 -6 17 -9 26l-121 325c-3 8 -6 22 -9 37z" />
    <glyph glyph-name="B" unicode="B" horiz-adv-x="498" 
d="M166 79c0 -22 -5 -39 -17 -51v-2h109c97 0 148 35 148 101c0 77 -67 118 -192 118h-30v26h13c88 0 135 35 135 83c0 50 -46 74 -131 74h-52v-1c12 -12 17 -29 17 -51v-297zM17 455h188c121 0 201 -39 201 -99c0 -42 -37 -76 -125 -92v-4c139 -10 200 -55 200 -133
c0 -76 -88 -127 -219 -127h-245v17h27c47 0 52 6 52 53v315c0 47 -5 52 -52 52h-27v18zM140 376c0 34 -16 45 -20 52h-2c4 -16 4 -27 4 -43v-315c0 -17 0 -32 -4 -44h3c2 6 19 20 19 53v297zM415 62c25 17 40 39 40 65s-8 55 -47 77c19 -25 25 -53 25 -77
c0 -20 -4 -44 -18 -65zM349 313c18 10 31 24 31 43c0 18 -12 34 -34 46c10 -16 12 -34 12 -48c0 -13 -2 -27 -9 -41z" />
    <glyph glyph-name="C" unicode="C" horiz-adv-x="480" 
d="M455 91c-38 -71 -102 -108 -184 -108c-136 0 -236 97 -236 242c0 149 96 247 225 247c41 0 91 -12 128 -36c8 -6 11 -13 14 -23h3c-2 7 -5 11 -5 25l-1 42l17 1l8 -157l-25 -1l-1 3c-10 86 -73 120 -138 120c-94 0 -153 -73 -153 -208c0 -149 65 -229 170 -229
c65 0 121 33 154 92zM106 372c-28 -38 -45 -87 -45 -147c0 -66 23 -121 61 -159c-26 42 -41 101 -41 172c0 53 8 98 25 134z" />
    <glyph glyph-name="D" unicode="D" horiz-adv-x="524" 
d="M149 26h100c108 0 166 70 166 201s-58 201 -166 201h-100v-1c12 -12 17 -25 17 -47v-306c0 -22 -5 -34 -17 -46v-2zM44 437h-27v18h236c142 0 237 -92 237 -228s-95 -227 -237 -227h-236v17h27c47 0 52 6 52 53v315c0 47 -5 52 -52 52zM409 83c35 35 54 84 54 144
s-19 109 -54 144c21 -37 32 -85 32 -144s-11 -107 -32 -144zM122 428h-4c4 -16 4 -29 4 -43v-315c0 -17 0 -32 -4 -44h4c3 9 18 19 18 48v306c0 35 -15 42 -18 48z" />
    <glyph glyph-name="E" unicode="E" horiz-adv-x="489" 
d="M17 455h342c16 0 19 -2 26 -9l-3 48l17 1l12 -172h-18c-6 94 -37 105 -131 105h-118v-1c12 -12 22 -29 22 -51v-131h52c46 0 52 10 52 96h18v-219h-18c0 86 -6 97 -52 97h-52v-140c0 -22 -10 -39 -22 -51v-2h162c94 0 125 11 131 105h18l-12 -172l-17 1l3 49
c-7 -7 -10 -9 -26 -9h-386v17h27c47 0 52 6 52 53v315c0 47 -5 52 -52 52h-27v18zM140 79v297c0 14 -6 24 -14 32l-5 5c1 -11 1 -22 1 -28v-315c0 -8 0 -18 -1 -28l5 4c8 8 14 19 14 33z" />
    <glyph glyph-name="F" unicode="F" horiz-adv-x="463" 
d="M166 376v-123h69c46 0 53 11 53 97h17v-219h-17c0 86 -7 96 -53 96h-69v-157c0 -47 6 -53 53 -53h26v-17h-228v17h27c47 0 52 6 52 53v315c0 47 -5 52 -52 52h-27v18h368c16 0 19 -2 26 -9h1l-4 48l18 1l11 -172h-17c-6 94 -29 105 -123 105h-153v-1
c12 -12 22 -29 22 -51zM140 376c0 14 -6 24 -14 32l-5 5c1 -11 1 -22 1 -28v-315c0 -14 -1 -32 -4 -44h27c-3 13 -5 35 -5 44v306z" />
    <glyph glyph-name="G" unicode="G" horiz-adv-x="541" 
d="M402 76v64c0 47 -5 52 -52 52h-88v18h280v-18h-18c-47 0 -52 -5 -52 -52v-179h-17v41c0 30 -15 46 -30 46c-6 0 -13 -3 -18 -8c-36 -36 -76 -57 -136 -57c-136 0 -236 97 -236 242c0 149 104 247 233 247c41 0 100 -12 137 -36c8 -6 11 -13 14 -23h4c-2 7 -5 11 -5 25
l-2 42l18 1l7 -157l-25 -1v3c-10 86 -83 120 -148 120c-94 0 -161 -73 -161 -208c0 -149 65 -229 170 -229c55 0 94 23 125 67zM424 184c3 -13 4 -32 4 -44v-67h1c6 0 12 -1 17 -3v70c0 12 2 31 5 44h-27zM107 368c-29 -37 -46 -85 -46 -143c0 -66 23 -121 61 -159
c-26 42 -41 101 -41 172c0 52 9 95 26 130z" />
    <glyph glyph-name="H" unicode="H" horiz-adv-x="559" 
d="M166 385v-123h227v123c0 47 -5 52 -52 52h-13v18h214v-18h-26c-47 0 -53 -5 -53 -52v-315c0 -47 6 -53 53 -53h26v-17h-214v17h13c47 0 52 6 52 53v166h-227v-166c0 -47 6 -53 53 -53h15v-17h-217v17h27c47 0 52 6 52 53v315c0 47 -5 52 -52 52h-27v18h217v-18h-15
c-47 0 -53 -5 -53 -52zM140 385c0 14 2 31 5 43h-27c3 -13 4 -34 4 -43v-315c0 -14 -1 -32 -4 -44h27c-3 13 -5 35 -5 44v315zM415 428c3 -13 5 -34 5 -43v-315c0 -12 -1 -33 -5 -44h27c-3 13 -5 35 -5 44v315c0 14 2 31 5 43h-27z" />
    <glyph glyph-name="I" unicode="I" horiz-adv-x="262" 
d="M17 0v17h27c47 0 52 6 52 53v315c0 47 -5 52 -52 52h-27v18h228v-18h-26c-47 0 -53 -5 -53 -52v-315c0 -47 6 -53 53 -53h26v-17h-228zM118 428c3 -13 4 -34 4 -43v-315c0 -14 -1 -32 -4 -44h27c-3 13 -5 35 -5 44v315c0 14 2 31 5 43h-27z" />
    <glyph glyph-name="J" unicode="J" horiz-adv-x="323" 
d="M157 409c0 16 2 19 9 26v2h-131v18h280v-18h-35c-35 0 -53 -17 -53 -52v-236c0 -100 -66 -166 -165 -166c-21 0 -41 4 -56 9l7 28c31 -9 41 -11 57 -11c56 0 87 43 87 105v295zM184 409v-295c0 -19 -3 -37 -7 -52c16 23 24 53 24 87v236c0 17 3 31 10 43h-19
c-4 -3 -8 -12 -8 -19z" />
    <glyph glyph-name="K" unicode="K" horiz-adv-x="515" 
d="M149 385c0 14 1 31 4 43h-27c3 -13 5 -31 5 -43v-315c0 -17 -3 -32 -10 -44h19c3 6 9 12 9 28v121v64v146zM264 216c21 -26 42 -59 65 -92c98 -141 158 -210 214 -240c-49 41 -103 112 -196 245c-31 44 -49 69 -83 87zM674 -135c28 0 60 9 84 25l9 -15
c-35 -27 -77 -40 -119 -40c-124 0 -186 52 -341 274c-32 45 -60 94 -87 115l-45 -58v-121c0 -16 -2 -19 -9 -26v-2h66v-17h-215v17h35c35 0 53 18 53 53v315c0 47 -6 52 -53 52h-35v18h219v-18h-9c-47 0 -52 -5 -52 -52v-146c0 -15 -2 -31 -3 -34l3 -2c1 3 7 17 17 29
l131 167c25 32 29 32 39 36v2h-37v18h162v-18h-23c-47 0 -83 -7 -124 -59l-95 -122v-3c62 -21 85 -55 123 -109c169 -243 212 -279 306 -279z" />
    <glyph glyph-name="L" unicode="L" horiz-adv-x="463" 
d="M96 70v315c0 47 -5 52 -52 52h-27v18h236v-18h-34c-47 0 -53 -5 -53 -52v-306c0 -22 -10 -39 -22 -51v-2h142c94 0 125 11 131 105l3 39h17l-14 -211l-17 1l3 49c-7 -7 -11 -9 -27 -9h-365v17h27c47 0 52 6 52 53zM118 428c3 -13 4 -30 4 -43v-315c0 -8 0 -18 -1 -28l5 4
c8 8 14 19 14 33v306c0 14 2 31 5 43h-27z" />
    <glyph glyph-name="M" unicode="M" horiz-adv-x="681" 
d="M60 455h89l174 -333c10 -19 12 -38 12 -44l10 -1c0 6 9 30 16 44l173 334h105v-18h-16c-41 0 -53 -4 -53 -37c0 -7 0 -15 1 -24l31 -297c6 -56 9 -62 63 -62h8v-17h-218v17h17c48 0 62 6 62 34c0 4 -1 8 -1 13l-25 242c0 3 -1 19 -1 26v14h-5c0 -4 -6 -21 -16 -40
l-162 -315h-12l-157 304c-10 19 -15 34 -15 40h-5c0 -10 -3 -35 -3 -40l-24 -229c-1 -7 -2 -13 -2 -18c0 -27 13 -31 63 -31h18v-17h-178v17h11c50 0 56 7 62 62l36 314c1 8 1 15 1 21c0 20 -9 23 -46 23h-13v18zM545 419l-10 -20c-2 -6 -3 -20 -3 -37c0 -18 3 -48 3 -54
l24 -241c1 -10 1 -24 0 -31c0 -3 -2 -7 -3 -10h29c-3 8 -6 19 -9 50l-31 297c-1 13 -1 22 -1 27c0 7 0 13 1 19zM309 55v23c0 7 -3 20 -9 32l-156 299v-18c0 -5 16 -49 35 -85z" />
    <glyph glyph-name="N" unicode="N" horiz-adv-x="533" 
d="M17 455h138l234 -320c13 -17 17 -34 17 -37h7c-1 10 -2 25 -2 42v245c0 47 -6 52 -53 52h-26v18h184v-18h-26c-47 0 -53 -5 -53 -52v-394h-30l-261 356c-13 17 -19 35 -19 38h-6c1 -11 1 -24 1 -41v-274c0 -47 6 -53 53 -53h35v-17h-193v17h27c47 0 52 6 52 53v315
c0 47 -5 52 -52 52h-27v18zM149 418c0 -24 1 -29 18 -56l220 -299c-3 29 -5 35 -20 56z" />
    <glyph glyph-name="O" unicode="O" 
d="M400 192c0 165 -53 254 -150 254c-93 0 -143 -65 -143 -184c0 -165 53 -253 150 -253c93 0 143 64 143 183zM35 227c0 147 87 245 218 245s219 -98 219 -245s-88 -244 -219 -244s-218 97 -218 244zM412 94c22 35 34 81 34 133c0 73 -23 133 -64 171
c26 -42 44 -107 44 -206c0 -38 -5 -70 -14 -98zM95 361c-22 -35 -34 -82 -34 -134c0 -73 23 -133 64 -171c-26 42 -44 107 -44 206c0 38 5 71 14 99z" />
    <glyph glyph-name="P" unicode="P" 
d="M149 428v-1c12 -12 17 -29 17 -51v-192h101c91 0 139 42 139 122s-48 122 -139 122h-118zM17 455h254c126 0 210 -60 210 -149s-84 -149 -210 -149h-105v-87c0 -47 6 -53 53 -53h26v-17h-228v17h27c47 0 52 6 52 53v315c0 47 -5 52 -52 52h-27v18zM140 376
c0 24 -18 45 -21 47c3 -14 3 -30 3 -38v-315c0 -14 -1 -32 -4 -44h27c-3 13 -5 31 -5 44v306zM411 222c28 21 44 50 44 84s-16 63 -44 84c14 -23 22 -51 22 -84s-8 -61 -22 -84z" />
    <glyph glyph-name="Q" unicode="Q" 
d="M409 -133c92 -28 188 -54 261 -54c49 0 71 14 95 35c-25 -11 -52 -20 -89 -20c-62 0 -163 24 -265 46l-90 19zM394 387c23 -41 34 -95 34 -158c0 -48 -9 -88 -26 -123c26 32 44 74 44 135c0 59 -19 110 -52 146zM97 365c-23 -34 -36 -78 -36 -133c0 -48 13 -89 35 -123
c-10 36 -15 83 -15 149c0 40 4 76 16 107zM181 7c-82 33 -146 113 -146 225c0 144 89 240 223 240c124 0 214 -97 214 -231c0 -156 -111 -219 -204 -251c-53 -18 -100 -30 -117 -52c135 0 414 -88 525 -88c73 0 112 31 112 89h27c0 -96 -51 -148 -145 -148
c-163 0 -407 114 -516 114c-20 0 -30 -10 -30 -31c0 -14 6 -28 25 -31l-3 -27c-33 6 -48 29 -48 68c0 78 70 94 148 123s156 86 156 222c0 134 -56 217 -148 217c-96 0 -147 -66 -147 -188c0 -157 28 -203 92 -237z" />
    <glyph glyph-name="R" unicode="R" horiz-adv-x="498" 
d="M301 152c6 -9 13 -18 20 -30c88 -134 145 -204 200 -235c-45 39 -91 103 -164 213c-14 21 -37 42 -56 52zM370 239c31 19 50 47 50 76c0 31 -17 57 -47 77c14 -21 20 -47 20 -77c0 -23 -5 -52 -23 -76zM121 415c1 -7 1 -23 1 -30v-315c0 -14 -1 -32 -4 -44h27
c-3 13 -5 26 -5 44v306c0 10 -2 24 -10 32l-8 8zM17 455h202c136 0 227 -56 227 -140c0 -67 -67 -119 -153 -127v-5c28 -6 64 -35 85 -68c138 -209 181 -250 282 -250c28 0 60 9 84 25l9 -15c-35 -27 -77 -40 -119 -40c-129 0 -192 54 -335 273c-33 50 -54 76 -98 76h-9v26
h35c91 0 140 37 140 105c0 74 -49 113 -140 113h-78v-1c12 -12 17 -29 17 -51v-306c0 -47 6 -53 53 -53h17v-17h-219v17h27c47 0 52 6 52 53v315c0 47 -5 52 -52 52h-27v18z" />
    <glyph glyph-name="S" unicode="S" horiz-adv-x="437" 
d="M402 105c0 -73 -82 -122 -192 -122c-49 0 -117 22 -148 44c-7 5 -11 11 -14 19l-3 -1c3 -7 5 -18 5 -28l2 -34l-17 -1l-9 153l26 1c2 -67 84 -127 158 -127c76 0 125 29 125 83c0 98 -283 131 -283 272c0 65 69 108 158 108c47 0 91 -13 116 -31c10 -7 15 -18 16 -21l2 1
c-1 7 -3 18 -3 28l-1 23h18l7 -139l-25 -1l-1 14c-5 52 -56 100 -129 100c-59 0 -101 -22 -101 -61c0 -110 293 -142 293 -280zM376 105c0 117 -293 148 -293 280v1c-3 -7 -4 -14 -4 -22c0 -112 245 -147 279 -247c3 -8 2 -10 3 -25c0 -13 -1 -26 -5 -36c13 14 20 31 20 49z
" />
    <glyph glyph-name="T" unicode="T" horiz-adv-x="489" 
d="M44 455h402l-3 39l18 1l11 -172h-17c-6 94 -11 105 -105 105h-70v-358c0 -47 5 -53 52 -53h35v-17h-245v17h35c47 0 53 6 53 53v358h-61c-94 0 -108 -11 -114 -105h-18l12 172l17 -1zM253 428h-17v-358c0 -14 -2 -32 -5 -44h27c-3 13 -5 30 -5 44v358z" />
    <glyph glyph-name="U" unicode="U" horiz-adv-x="524" 
d="M17 455h219v-18h-26c-47 0 -53 -5 -53 -52v-254c0 -80 39 -122 110 -122c87 0 144 59 144 148v228c0 47 -6 52 -53 52h-26v18h175v-18h-19c-47 0 -51 -5 -51 -52v-228c0 -105 -68 -174 -170 -174c-108 0 -180 69 -180 174v228c0 47 -5 52 -52 52h-18v18zM136 428h-27
c3 -13 5 -31 5 -43v-228c0 -36 9 -67 27 -91c-7 19 -10 40 -10 65v254c0 14 2 31 5 43z" />
    <glyph glyph-name="V" unicode="V" 
d="M118 435c14 -5 24 -20 31 -37l115 -294c7 -19 9 -28 9 -35h8c0 6 1 16 9 36l110 280c5 13 8 24 8 31c0 17 -15 21 -50 21h-36v18h176v-18h-13c-36 0 -38 -5 -57 -52l-155 -394h-39l-155 394c-19 47 -21 52 -57 52h-13v18h177v-18h-68v-2zM247 76c-1 3 -3 8 -7 19
l-115 294c-9 22 -16 22 -31 28c3 -6 7 -14 10 -23l139 -353l4 1v34z" />
    <glyph glyph-name="W" unicode="W" horiz-adv-x="804" 
d="M725 385l-155 -394h-39l-129 324l-129 -324h-39l-155 394c-19 47 -21 52 -57 52h-13v18h133v-4c0 -4 -1 -8 -1 -12c0 -14 3 -28 8 -41l117 -294c7 -17 8 -30 8 -35h5c0 5 2 18 9 36l100 248l-12 32c-19 47 -21 52 -57 52h-24v18h197v-18h-76v-2c14 -5 23 -20 30 -37
l117 -294c7 -17 8 -30 8 -35h5c0 5 2 18 9 36l112 280c5 13 8 24 8 31c0 17 -14 21 -49 21h-28v18h167v-18h-13c-36 0 -40 -5 -57 -52zM89 428l15 -34l139 -353l4 1v16c0 18 -1 26 -5 37l-118 294c-5 14 -8 27 -9 39h-26zM545 42v31c0 4 -3 14 -6 22l-117 294
c-9 23 -16 22 -31 28c8 -19 7 -15 19 -49l130 -328z" />
    <glyph glyph-name="X" unicode="X" 
d="M408 26l-29 45l-199 304c-15 23 -32 34 -36 36l-12 5l21 -33l188 -286c13 -19 27 -43 27 -62c0 -3 -1 -6 -1 -9h41zM39 455h156v-18h-42v-2c14 -5 33 -22 48 -45l74 -112l62 95c14 22 22 37 22 47c0 14 -17 18 -53 18h-11v17h173v-17h-15c-41 0 -49 -11 -87 -69l-75 -115
l110 -168c38 -57 40 -69 71 -69h18v-17h-212v17h10c35 0 53 3 53 18c0 10 -8 25 -22 47l-85 131l-86 -131c-14 -22 -22 -37 -22 -47c0 -14 17 -18 53 -18h11v-17h-173v17h15c41 0 49 11 87 69l99 151l-86 132c-37 57 -47 68 -75 68h-18v18z" />
    <glyph glyph-name="Y" unicode="Y" 
d="M167 390l97 -176c5 -9 12 -25 14 -31h2c2 6 8 21 13 31l89 162c10 18 14 31 14 40c0 17 -15 21 -45 21h-37v18h184v-18h-26c-30 0 -33 -12 -60 -61l-119 -217v-89c0 -47 5 -53 52 -53h35v-17h-245v17h35c47 0 53 6 53 53v70l-128 238c-24 45 -27 59 -63 59h-23v18h178
v-18h-59v-2c14 -5 23 -16 39 -45zM143 378c-18 33 -21 32 -39 39l14 -28l131 -242v-77c0 -14 -2 -32 -5 -44h27c-3 13 -4 30 -4 44v84z" />
    <glyph glyph-name="Z" unicode="Z" horiz-adv-x="489" 
d="M446 455v-18c-10 0 -21 -17 -61 -68l-218 -278c-23 -31 -39 -52 -53 -62v-3h192c92 0 126 8 131 99v7l18 -1l-9 -166h-18l3 44h-1c-7 -7 -11 -9 -27 -9h-386v17c10 0 20 17 59 69l219 278c22 28 37 51 51 61v3h-162c-94 0 -128 -7 -133 -105l-18 1l9 166l17 -1l-2 -43
c7 7 11 9 26 9h363zM74 27c19 19 39 36 72 80l218 278l29 39l-6 4c-26 -18 -28 -25 -72 -81l-218 -278l-31 -38z" />
    <glyph glyph-name="bracketleft" unicode="[" horiz-adv-x="303" 
d="M174 554l-1 1c-49 0 -85 -29 -85 -76c0 -34 39 -122 39 -164c-1 -9 -1 -24 -19 -45c-5 -5 -9 -10 -16 -17l5 -5c16 14 36 24 87 63c13 10 20 15 20 19c0 17 -45 133 -45 176c0 6 0 28 15 48zM174 -99c-15 20 -15 41 -15 48c0 43 45 159 45 176c0 4 -7 8 -20 18
c-51 39 -71 49 -87 63l-5 -4c7 -7 11 -13 16 -18c18 -21 18 -35 19 -44c0 -42 -39 -130 -39 -164c0 -47 36 -77 85 -77zM286 581v-17h-17c-54 0 -84 -21 -84 -58c0 -41 45 -148 45 -179c0 -15 -13 -24 -30 -37c-54 -41 -69 -47 -85 -61v-3c16 -14 31 -21 85 -62
c17 -13 30 -22 30 -37c0 -31 -45 -137 -45 -178c0 -37 30 -58 84 -58h17v-18h-113c-64 0 -111 41 -111 103c0 41 39 126 39 164c0 23 -24 38 -84 86v3c60 48 84 62 84 85c0 38 -39 124 -39 165c0 62 47 102 111 102h113z" />
    <glyph glyph-name="backslash" unicode="\" horiz-adv-x="478" 
d="M463 -25l-39 -31c-89 127 -141 198 -197 269c-55 70 -112 141 -220 265l39 31c96 -134 153 -210 208 -280c56 -72 109 -137 209 -254zM438 -22l-97 114l86 -123zM138 353l-95 131l-11 -8z" />
    <glyph glyph-name="bracketright" unicode="]" horiz-adv-x="303" 
d="M129 554c14 -19 16 -42 16 -48c0 -43 -45 -159 -45 -176c0 -4 6 -9 19 -19c51 -39 71 -49 87 -63l6 5c-7 7 -11 12 -16 17c-18 21 -18 36 -19 45c0 42 39 130 39 164c0 47 -36 76 -85 76zM129 -99l2 -2c49 0 85 30 85 77c0 34 -39 122 -39 164c1 9 1 23 19 44
c5 5 9 11 16 18l-6 4c-16 -14 -36 -24 -87 -63c-13 -10 -19 -14 -19 -18c0 -17 45 -133 45 -176c0 -6 -2 -29 -16 -48zM17 581h114c64 0 111 -40 111 -102c0 -41 -39 -127 -39 -165c0 -23 23 -37 83 -85v-3c-60 -48 -83 -63 -83 -86c0 -38 39 -123 39 -164
c0 -62 -47 -103 -111 -103h-114v18h18c54 0 83 21 83 58c0 41 -44 147 -44 178c0 15 13 24 30 37c54 41 69 48 85 62v3c-16 14 -31 20 -85 61c-17 13 -30 22 -30 37c0 31 44 138 44 179c0 37 -29 58 -83 58h-18v17z" />
    <glyph glyph-name="asciicircum" unicode="^" horiz-adv-x="397" 
d="M243 444l15 -18l67 -72l5 5zM156 445l-88 -86l5 -5l66 72c5 6 12 12 17 19zM44 359l154 152h2l154 -152l-29 -30l-79 85c-26 28 -42 54 -45 68h-4c-3 -14 -18 -40 -45 -68l-79 -85z" />
    <glyph glyph-name="underscore" unicode="_" horiz-adv-x="262" 
d="M-9 -109h280v-18h-280v18z" />
    <glyph glyph-name="grave" unicode="`" horiz-adv-x="183" 
d="M47 647c3 2 6 3 9 3s7 -1 10 -4l96 -115l-14 -12l-105 82l-13 15c-2 3 -3 5 -3 8s2 7 5 10z" />
    <glyph glyph-name="a" unicode="a" 
d="M9 0v17h11c36 0 37 6 57 53l164 393h55v-5v-9c0 -18 5 -40 10 -55l120 -324c19 -47 21 -53 57 -53h15v-17h-179v17h68v2c-14 5 -25 20 -31 37l-24 66h-205l-22 -53c-5 -13 -8 -23 -8 -30c0 -17 15 -22 50 -22h28v-17h-166zM322 149l-74 201c-6 15 -8 31 -8 39v4v2h-7v-2
v-2c0 -7 -4 -24 -11 -41l-84 -201h184zM267 421c0 -10 -1 -18 -1 -25c0 -11 0 -22 6 -37l109 -293c8 -21 16 -26 30 -32c-3 6 -6 17 -9 26l-121 325c-3 8 -6 22 -9 37z" />
    <glyph glyph-name="b" unicode="b" horiz-adv-x="498" 
d="M166 79c0 -22 -5 -39 -17 -51v-2h109c97 0 148 35 148 101c0 77 -67 118 -192 118h-30v26h13c88 0 135 35 135 83c0 50 -46 74 -131 74h-52v-1c12 -12 17 -29 17 -51v-297zM17 455h188c121 0 201 -39 201 -99c0 -42 -37 -76 -125 -92v-4c139 -10 200 -55 200 -133
c0 -76 -88 -127 -219 -127h-245v17h27c47 0 52 6 52 53v315c0 47 -5 52 -52 52h-27v18zM140 376c0 34 -16 45 -20 52h-2c4 -16 4 -27 4 -43v-315c0 -17 0 -32 -4 -44h3c2 6 19 20 19 53v297zM415 62c25 17 40 39 40 65s-8 55 -47 77c19 -25 25 -53 25 -77
c0 -20 -4 -44 -18 -65zM349 313c18 10 31 24 31 43c0 18 -12 34 -34 46c10 -16 12 -34 12 -48c0 -13 -2 -27 -9 -41z" />
    <glyph glyph-name="c" unicode="c" horiz-adv-x="480" 
d="M455 91c-38 -71 -102 -108 -184 -108c-136 0 -236 97 -236 242c0 149 96 247 225 247c41 0 91 -12 128 -36c8 -6 11 -13 14 -23h3c-2 7 -5 11 -5 25l-1 42l17 1l8 -157l-25 -1l-1 3c-10 86 -73 120 -138 120c-94 0 -153 -73 -153 -208c0 -149 65 -229 170 -229
c65 0 121 33 154 92zM106 372c-28 -38 -45 -87 -45 -147c0 -66 23 -121 61 -159c-26 42 -41 101 -41 172c0 53 8 98 25 134z" />
    <glyph glyph-name="d" unicode="d" horiz-adv-x="524" 
d="M149 26h100c108 0 166 70 166 201s-58 201 -166 201h-100v-1c12 -12 17 -25 17 -47v-306c0 -22 -5 -34 -17 -46v-2zM44 437h-27v18h236c142 0 237 -92 237 -228s-95 -227 -237 -227h-236v17h27c47 0 52 6 52 53v315c0 47 -5 52 -52 52zM409 83c35 35 54 84 54 144
s-19 109 -54 144c21 -37 32 -85 32 -144s-11 -107 -32 -144zM122 428h-4c4 -16 4 -29 4 -43v-315c0 -17 0 -32 -4 -44h4c3 9 18 19 18 48v306c0 35 -15 42 -18 48z" />
    <glyph glyph-name="e" unicode="e" horiz-adv-x="489" 
d="M17 455h342c16 0 19 -2 26 -9l-3 48l17 1l12 -172h-18c-6 94 -37 105 -131 105h-118v-1c12 -12 22 -29 22 -51v-131h52c46 0 52 10 52 96h18v-219h-18c0 86 -6 97 -52 97h-52v-140c0 -22 -10 -39 -22 -51v-2h162c94 0 125 11 131 105h18l-12 -172l-17 1l3 49
c-7 -7 -10 -9 -26 -9h-386v17h27c47 0 52 6 52 53v315c0 47 -5 52 -52 52h-27v18zM140 79v297c0 14 -6 24 -14 32l-5 5c1 -11 1 -22 1 -28v-315c0 -8 0 -18 -1 -28l5 4c8 8 14 19 14 33z" />
    <glyph glyph-name="f" unicode="f" horiz-adv-x="463" 
d="M166 376v-123h69c46 0 53 11 53 97h17v-219h-17c0 86 -7 96 -53 96h-69v-157c0 -47 6 -53 53 -53h26v-17h-228v17h27c47 0 52 6 52 53v315c0 47 -5 52 -52 52h-27v18h368c16 0 19 -2 26 -9h1l-4 48l18 1l11 -172h-17c-6 94 -29 105 -123 105h-153v-1
c12 -12 22 -29 22 -51zM140 376c0 14 -6 24 -14 32l-5 5c1 -11 1 -22 1 -28v-315c0 -14 -1 -32 -4 -44h27c-3 13 -5 35 -5 44v306z" />
    <glyph glyph-name="g" unicode="g" horiz-adv-x="541" 
d="M402 76v64c0 47 -5 52 -52 52h-88v18h280v-18h-18c-47 0 -52 -5 -52 -52v-179h-17v41c0 30 -15 46 -30 46c-6 0 -13 -3 -18 -8c-36 -36 -76 -57 -136 -57c-136 0 -236 97 -236 242c0 149 104 247 233 247c41 0 100 -12 137 -36c8 -6 11 -13 14 -23h4c-2 7 -5 11 -5 25
l-2 42l18 1l7 -157l-25 -1v3c-10 86 -83 120 -148 120c-94 0 -161 -73 -161 -208c0 -149 65 -229 170 -229c55 0 94 23 125 67zM424 184c3 -13 4 -32 4 -44v-67h1c6 0 12 -1 17 -3v70c0 12 2 31 5 44h-27zM107 368c-29 -37 -46 -85 -46 -143c0 -66 23 -121 61 -159
c-26 42 -41 101 -41 172c0 52 9 95 26 130z" />
    <glyph glyph-name="h" unicode="h" horiz-adv-x="559" 
d="M166 385v-123h227v123c0 47 -5 52 -52 52h-13v18h214v-18h-26c-47 0 -53 -5 -53 -52v-315c0 -47 6 -53 53 -53h26v-17h-214v17h13c47 0 52 6 52 53v166h-227v-166c0 -47 6 -53 53 -53h15v-17h-217v17h27c47 0 52 6 52 53v315c0 47 -5 52 -52 52h-27v18h217v-18h-15
c-47 0 -53 -5 -53 -52zM140 385c0 14 2 31 5 43h-27c3 -13 4 -34 4 -43v-315c0 -14 -1 -32 -4 -44h27c-3 13 -5 35 -5 44v315zM415 428c3 -13 5 -34 5 -43v-315c0 -12 -1 -33 -5 -44h27c-3 13 -5 35 -5 44v315c0 14 2 31 5 43h-27z" />
    <glyph glyph-name="i" unicode="i" horiz-adv-x="262" 
d="M17 0v17h27c47 0 52 6 52 53v315c0 47 -5 52 -52 52h-27v18h228v-18h-26c-47 0 -53 -5 -53 -52v-315c0 -47 6 -53 53 -53h26v-17h-228zM118 428c3 -13 4 -34 4 -43v-315c0 -14 -1 -32 -4 -44h27c-3 13 -5 35 -5 44v315c0 14 2 31 5 43h-27z" />
    <glyph glyph-name="j" unicode="j" horiz-adv-x="323" 
d="M157 409c0 16 2 19 9 26v2h-131v18h280v-18h-35c-35 0 -53 -17 -53 -52v-236c0 -100 -66 -166 -165 -166c-21 0 -41 4 -56 9l7 28c31 -9 41 -11 57 -11c56 0 87 43 87 105v295zM184 409v-295c0 -19 -3 -37 -7 -52c16 23 24 53 24 87v236c0 17 3 31 10 43h-19
c-4 -3 -8 -12 -8 -19z" />
    <glyph glyph-name="k" unicode="k" horiz-adv-x="533" 
d="M441 9c-24 18 -42 46 -56 66l-38 54c-29 42 -48 68 -83 87c20 -25 41 -57 65 -92l28 -40c44 -61 61 -75 84 -75zM149 385c0 14 1 31 4 43h-27c3 -13 5 -30 5 -43v-315c0 -17 -3 -32 -10 -44h19c5 5 9 12 9 28v121v64v146zM17 455h219v-18h-9c-47 0 -52 -5 -52 -52v-146
c0 -15 -2 -31 -3 -34l3 -2c1 3 7 17 17 29l131 167c25 32 29 32 39 36v2h-37v18h162v-18h-23c-47 0 -83 -7 -124 -59l-95 -122v-3c62 -21 85 -55 123 -109l38 -54c25 -35 48 -73 87 -73h10l28 5l2 -18c-36 -12 -69 -21 -92 -21c-39 0 -63 27 -105 86l-29 40
c-32 45 -60 94 -87 115l-45 -58v-121c0 -16 -2 -19 -9 -26v-2h66v-17h-215v17h35c35 0 53 18 53 53v315c0 47 -6 52 -53 52h-35v18z" />
    <glyph glyph-name="l" unicode="l" horiz-adv-x="463" 
d="M96 70v315c0 47 -5 52 -52 52h-27v18h236v-18h-34c-47 0 -53 -5 -53 -52v-306c0 -22 -10 -39 -22 -51v-2h142c94 0 125 11 131 105l3 39h17l-14 -211l-17 1l3 49c-7 -7 -11 -9 -27 -9h-365v17h27c47 0 52 6 52 53zM118 428c3 -13 4 -30 4 -43v-315c0 -8 0 -18 -1 -28l5 4
c8 8 14 19 14 33v306c0 14 2 31 5 43h-27z" />
    <glyph glyph-name="m" unicode="m" horiz-adv-x="681" 
d="M60 455h89l174 -333c10 -19 12 -38 12 -44l10 -1c0 6 9 30 16 44l173 334h105v-18h-16c-41 0 -53 -4 -53 -37c0 -7 0 -15 1 -24l31 -297c6 -56 9 -62 63 -62h8v-17h-218v17h17c48 0 62 6 62 34c0 4 -1 8 -1 13l-25 242c0 3 -1 19 -1 26v14h-5c0 -4 -6 -21 -16 -40
l-162 -315h-12l-157 304c-10 19 -15 34 -15 40h-5c0 -10 -3 -35 -3 -40l-24 -229c-1 -7 -2 -13 -2 -18c0 -27 13 -31 63 -31h18v-17h-178v17h11c50 0 56 7 62 62l36 314c1 8 1 15 1 21c0 20 -9 23 -46 23h-13v18zM545 419l-10 -20c-2 -6 -3 -20 -3 -37c0 -18 3 -48 3 -54
l24 -241c1 -10 1 -24 0 -31c0 -3 -2 -7 -3 -10h29c-3 8 -6 19 -9 50l-31 297c-1 13 -1 22 -1 27c0 7 0 13 1 19zM309 55v23c0 7 -3 20 -9 32l-156 299v-18c0 -5 16 -49 35 -85z" />
    <glyph glyph-name="n" unicode="n" horiz-adv-x="533" 
d="M17 455h138l234 -320c13 -17 17 -34 17 -37h7c-1 10 -2 25 -2 42v245c0 47 -6 52 -53 52h-26v18h184v-18h-26c-47 0 -53 -5 -53 -52v-394h-30l-261 356c-13 17 -19 35 -19 38h-6c1 -11 1 -24 1 -41v-274c0 -47 6 -53 53 -53h35v-17h-193v17h27c47 0 52 6 52 53v315
c0 47 -5 52 -52 52h-27v18zM149 418c0 -24 1 -29 18 -56l220 -299c-3 29 -5 35 -20 56z" />
    <glyph glyph-name="o" unicode="o" 
d="M400 192c0 165 -53 254 -150 254c-93 0 -143 -65 -143 -184c0 -165 53 -253 150 -253c93 0 143 64 143 183zM35 227c0 147 87 245 218 245s219 -98 219 -245s-88 -244 -219 -244s-218 97 -218 244zM412 94c22 35 34 81 34 133c0 73 -23 133 -64 171
c26 -42 44 -107 44 -206c0 -38 -5 -70 -14 -98zM95 361c-22 -35 -34 -82 -34 -134c0 -73 23 -133 64 -171c-26 42 -44 107 -44 206c0 38 5 71 14 99z" />
    <glyph glyph-name="p" unicode="p" 
d="M149 428v-1c12 -12 17 -29 17 -51v-192h101c91 0 139 42 139 122s-48 122 -139 122h-118zM17 455h254c126 0 210 -60 210 -149s-84 -149 -210 -149h-105v-87c0 -47 6 -53 53 -53h26v-17h-228v17h27c47 0 52 6 52 53v315c0 47 -5 52 -52 52h-27v18zM140 376
c0 24 -18 45 -21 47c3 -14 3 -30 3 -38v-315c0 -14 -1 -32 -4 -44h27c-3 13 -5 31 -5 44v306zM411 222c28 21 44 50 44 84s-16 63 -44 84c14 -23 22 -51 22 -84s-8 -61 -22 -84z" />
    <glyph glyph-name="q" unicode="q" 
d="M181 7c-82 33 -146 113 -146 225c0 144 89 240 223 240c124 0 214 -97 214 -231c0 -156 -111 -219 -204 -251c-53 -18 -100 -30 -117 -52c72 0 146 -70 202 -70c39 0 60 24 60 71h26c0 -78 -37 -130 -92 -130c-79 0 -156 96 -193 96c-20 0 -30 -10 -30 -31
c0 -14 6 -28 25 -31l-3 -27c-33 6 -48 29 -48 68c0 78 70 94 148 123s156 86 156 222c0 134 -56 217 -148 217c-96 0 -147 -66 -147 -188c0 -157 28 -203 92 -237l10 -4l-24 -12zM376 -153c-9 -3 -17 -3 -24 -3c-35 0 -65 18 -96 34l-40 21c36 -26 82 -64 131 -67
c21 0 33 10 45 20zM403 106c27 34 43 77 43 135c0 59 -20 111 -53 147c23 -41 35 -96 35 -159c0 -50 -9 -90 -25 -123zM98 366c-24 -35 -37 -81 -37 -134c0 -49 14 -90 35 -123c-10 37 -15 85 -15 149c0 42 6 78 17 108z" />
    <glyph glyph-name="r" unicode="r" horiz-adv-x="533" 
d="M17 455h236c136 0 228 -56 228 -140c0 -67 -67 -119 -153 -127v-5c28 -6 63 -35 85 -68l16 -24c33 -50 46 -70 69 -70h8l25 5l2 -17c-31 -9 -61 -18 -82 -18c-35 0 -55 21 -92 79l-25 38c-33 50 -54 76 -98 76h-44v26h70c91 0 140 37 140 105c0 74 -49 113 -140 113h-113
v-1c12 -12 17 -29 17 -51v-306c0 -47 6 -53 53 -53h17v-17h-219v17h27c47 0 52 6 52 53v315c0 47 -5 52 -52 52h-27v18zM450 17c-10 10 -19 24 -43 59l-15 24c-17 26 -39 44 -56 52c7 -9 13 -19 20 -30l25 -38c35 -55 48 -67 69 -67zM405 239c31 19 50 47 50 76
c0 31 -17 57 -47 77c14 -21 20 -47 20 -77c0 -23 -5 -52 -23 -76zM121 415c2 -12 1 -23 1 -30v-315c0 -14 -1 -32 -4 -44h27c-3 13 -5 30 -5 44v306c0 10 -2 24 -10 32l-8 8z" />
    <glyph glyph-name="s" unicode="s" horiz-adv-x="437" 
d="M402 105c0 -73 -82 -122 -192 -122c-49 0 -117 22 -148 44c-7 5 -11 11 -14 19l-3 -1c3 -7 5 -18 5 -28l2 -34l-17 -1l-9 153l26 1c2 -67 84 -127 158 -127c76 0 125 29 125 83c0 98 -283 131 -283 272c0 65 69 108 158 108c47 0 91 -13 116 -31c10 -7 15 -18 16 -21l2 1
c-1 7 -3 18 -3 28l-1 23h18l7 -139l-25 -1l-1 14c-5 52 -56 100 -129 100c-59 0 -101 -22 -101 -61c0 -110 293 -142 293 -280zM376 105c0 117 -293 148 -293 280v1c-3 -7 -4 -14 -4 -22c0 -112 245 -147 279 -247c3 -8 2 -10 3 -25c0 -13 -1 -26 -5 -36c13 14 20 31 20 49z
" />
    <glyph glyph-name="t" unicode="t" horiz-adv-x="489" 
d="M44 455h402l-3 39l18 1l11 -172h-17c-6 94 -11 105 -105 105h-70v-358c0 -47 5 -53 52 -53h35v-17h-245v17h35c47 0 53 6 53 53v358h-61c-94 0 -108 -11 -114 -105h-18l12 172l17 -1zM253 428h-17v-358c0 -14 -2 -32 -5 -44h27c-3 13 -5 30 -5 44v358z" />
    <glyph glyph-name="u" unicode="u" horiz-adv-x="524" 
d="M17 455h219v-18h-26c-47 0 -53 -5 -53 -52v-254c0 -80 39 -122 110 -122c87 0 144 59 144 148v228c0 47 -6 52 -53 52h-26v18h175v-18h-19c-47 0 -51 -5 -51 -52v-228c0 -105 -68 -174 -170 -174c-108 0 -180 69 -180 174v228c0 47 -5 52 -52 52h-18v18zM136 428h-27
c3 -13 5 -31 5 -43v-228c0 -36 9 -67 27 -91c-7 19 -10 40 -10 65v254c0 14 2 31 5 43z" />
    <glyph glyph-name="v" unicode="v" 
d="M118 435c14 -5 24 -20 31 -37l115 -294c7 -19 9 -28 9 -35h8c0 6 1 16 9 36l110 280c5 13 8 24 8 31c0 17 -15 21 -50 21h-36v18h176v-18h-13c-36 0 -38 -5 -57 -52l-155 -394h-39l-155 394c-19 47 -21 52 -57 52h-13v18h177v-18h-68v-2zM247 76c-1 3 -3 8 -7 19
l-115 294c-9 22 -16 22 -31 28c3 -6 7 -14 10 -23l139 -353l4 1v34z" />
    <glyph glyph-name="w" unicode="w" horiz-adv-x="804" 
d="M725 385l-155 -394h-39l-129 324l-129 -324h-39l-155 394c-19 47 -21 52 -57 52h-13v18h133v-4c0 -4 -1 -8 -1 -12c0 -14 3 -28 8 -41l117 -294c7 -17 8 -30 8 -35h5c0 5 2 18 9 36l100 248l-12 32c-19 47 -21 52 -57 52h-24v18h197v-18h-76v-2c14 -5 23 -20 30 -37
l117 -294c7 -17 8 -30 8 -35h5c0 5 2 18 9 36l112 280c5 13 8 24 8 31c0 17 -14 21 -49 21h-28v18h167v-18h-13c-36 0 -40 -5 -57 -52zM89 428l15 -34l139 -353l4 1v16c0 18 -1 26 -5 37l-118 294c-5 14 -8 27 -9 39h-26zM545 42v31c0 4 -3 14 -6 22l-117 294
c-9 23 -16 22 -31 28c8 -19 7 -15 19 -49l130 -328z" />
    <glyph glyph-name="x" unicode="x" 
d="M408 26l-29 45l-199 304c-15 23 -32 34 -36 36l-12 5l21 -33l188 -286c13 -19 27 -43 27 -62c0 -3 -1 -6 -1 -9h41zM39 455h156v-18h-42v-2c14 -5 33 -22 48 -45l74 -112l62 95c14 22 22 37 22 47c0 14 -17 18 -53 18h-11v17h173v-17h-15c-41 0 -49 -11 -87 -69l-75 -115
l110 -168c38 -57 40 -69 71 -69h18v-17h-212v17h10c35 0 53 3 53 18c0 10 -8 25 -22 47l-85 131l-86 -131c-14 -22 -22 -37 -22 -47c0 -14 17 -18 53 -18h11v-17h-173v17h15c41 0 49 11 87 69l99 151l-86 132c-37 57 -47 68 -75 68h-18v18z" />
    <glyph glyph-name="y" unicode="y" 
d="M167 390l97 -176c5 -9 12 -25 14 -31h2c2 6 8 21 13 31l89 162c10 18 14 31 14 40c0 17 -15 21 -45 21h-37v18h184v-18h-26c-30 0 -33 -12 -60 -61l-119 -217v-89c0 -47 5 -53 52 -53h35v-17h-245v17h35c47 0 53 6 53 53v70l-128 238c-24 45 -27 59 -63 59h-23v18h178
v-18h-59v-2c14 -5 23 -16 39 -45zM143 378c-18 33 -21 32 -39 39l14 -28l131 -242v-77c0 -14 -2 -32 -5 -44h27c-3 13 -4 30 -4 44v84z" />
    <glyph glyph-name="z" unicode="z" horiz-adv-x="489" 
d="M446 455v-18c-10 0 -21 -17 -61 -68l-218 -278c-23 -31 -39 -52 -53 -62v-3h192c92 0 126 8 131 99v7l18 -1l-9 -166h-18l3 44h-1c-7 -7 -11 -9 -27 -9h-386v17c10 0 20 17 59 69l219 278c22 28 37 51 51 61v3h-162c-94 0 -128 -7 -133 -105l-18 1l9 166l17 -1l-2 -43
c7 7 11 9 26 9h363zM74 27c19 19 39 36 72 80l218 278l29 39l-6 4c-26 -18 -28 -25 -72 -81l-218 -278l-31 -38z" />
    <glyph glyph-name="braceleft" unicode="{" horiz-adv-x="362" 
d="M215 -51c0 44 45 152 45 178c0 5 -6 10 -23 23c-57 43 -68 50 -90 69l-7 7v3l7 6c22 20 33 26 90 69c17 13 23 19 23 23c0 26 -45 135 -45 179c0 25 11 44 30 57c-46 -3 -71 -23 -71 -57c0 -41 45 -148 45 -179c0 -15 -13 -24 -30 -37c-54 -41 -69 -47 -85 -61v-3
c16 -14 31 -21 85 -62c17 -13 30 -22 30 -37c0 -31 -45 -137 -45 -178c0 -34 25 -55 71 -58c-19 13 -30 33 -30 58zM345 581v-17h-29c-38 0 -83 -12 -83 -58c0 -41 44 -149 44 -179c0 -14 -13 -23 -30 -37c-52 -39 -65 -48 -82 -63c17 -15 31 -24 82 -63
c23 -17 30 -25 30 -37c0 -31 -44 -137 -44 -178c0 -46 45 -58 83 -58h29v-18h-179c-64 0 -111 41 -111 103c0 41 39 126 39 164c0 21 -21 36 -77 80l-8 7l8 7c51 40 77 57 77 80c0 38 -39 125 -39 165c0 62 47 102 111 102h179zM157 563c-50 -3 -85 -35 -85 -84
c0 -37 39 -123 39 -165c0 -31 -27 -51 -74 -87c45 -35 74 -56 74 -87c0 -41 -39 -127 -39 -164c0 -49 35 -82 85 -85c-28 17 -45 47 -45 85c0 41 39 126 39 164c0 23 -23 38 -83 86v3c60 48 83 62 83 85c0 38 -39 124 -39 165c0 38 17 67 45 84zM138 479
c0 -34 39 -123 39 -165c5 0 16 11 16 14c-1 26 -45 133 -45 178c0 3 0 7 1 14c-7 -11 -11 -25 -11 -41zM177 140c0 -42 -39 -130 -39 -164c0 -16 4 -30 11 -41c-1 4 -1 9 -1 14c0 45 44 152 45 177c0 3 -9 14 -16 14z" />
    <glyph glyph-name="bar" unicode="|" horiz-adv-x="139" 
d="M96 -127h-52v708h52v-708zM61 -109h18v673h-18v-673z" />
    <glyph glyph-name="braceright" unicode="}" horiz-adv-x="362" 
d="M148 -51c0 -25 -11 -45 -30 -58c46 3 70 24 70 58c0 41 -44 147 -44 178c0 15 13 24 30 37c54 41 69 48 85 62v3c-16 14 -31 20 -85 61c-17 13 -30 22 -30 37c0 31 44 138 44 179c0 34 -24 54 -70 57c19 -13 30 -32 30 -57c0 -44 -45 -153 -45 -179c0 -4 6 -10 23 -23
c57 -43 67 -49 89 -69l8 -6v-3l-8 -7c-22 -19 -32 -26 -89 -69c-17 -13 -23 -18 -23 -23c0 -26 45 -134 45 -178zM17 581h30h36h57h57c64 0 111 -40 111 -102c0 -40 -39 -127 -39 -165c0 -23 25 -40 76 -80l9 -7l-9 -7c-56 -44 -76 -59 -76 -80c0 -38 39 -123 39 -164
c0 -62 -47 -103 -111 -103h-57h-57h-36h-30v18h30c38 0 83 12 83 58c0 41 -44 148 -44 178c0 12 6 20 29 37c51 39 66 48 83 63c-17 15 -31 24 -83 63c-17 14 -29 23 -29 37c0 30 44 138 44 179c0 46 -45 58 -83 58h-30v17zM205 563c28 -17 46 -46 46 -84
c0 -41 -39 -127 -39 -165c0 -23 23 -37 83 -85v-3c-60 -48 -83 -63 -83 -86c0 -38 39 -123 39 -164c0 -38 -18 -68 -46 -85c50 3 86 36 86 85c0 37 -40 123 -40 164c0 31 30 52 75 87c-47 36 -75 56 -75 87c0 42 40 128 40 165c0 49 -36 81 -86 84zM225 479
c0 16 -5 30 -12 41c1 -7 2 -11 2 -14c0 -45 -44 -152 -45 -178c2 -3 10 -10 15 -14c0 42 40 131 40 165zM185 140c-5 -4 -13 -11 -15 -14c1 -25 45 -132 45 -177c0 -5 0 -10 -1 -14c7 11 11 25 11 41c0 34 -40 122 -40 164z" />
    <glyph glyph-name="asciitilde" unicode="~" horiz-adv-x="458" 
d="M85 280c7 2 12 2 15 2c79 0 161 -122 244 -122c12 0 23 3 32 10c-2 0 -3 -1 -5 -1c-6 -2 -9 -2 -16 -2c-82 0 -162 119 -244 119c-10 0 -19 -2 -26 -6zM420 215c-12 -49 -39 -72 -76 -72c-91 0 -174 121 -244 121c-17 0 -30 -9 -36 -33l-12 -51l-26 6l12 51
c10 41 34 67 73 67c90 0 171 -120 244 -120c19 0 34 10 40 37l12 52l26 -6z" />
    <glyph glyph-name="uni00A0" unicode="&#xa0;" horiz-adv-x="262" 
d="M-9 -109h280v-18h-280v18z" />
    <glyph glyph-name="exclamdown" unicode="&#xa1;" horiz-adv-x="157" 
d="M79 376c-28 0 -44 18 -44 44c0 28 18 43 44 43c28 0 43 -17 43 -43c0 -28 -17 -44 -43 -44zM114 -13c0 -6 -12 -9 -35 -9s-35 3 -35 9c0 166 22 144 22 310h26c0 -166 22 -144 22 -310zM79 402c11 0 17 5 17 18c0 11 -4 17 -17 17c-11 0 -18 -4 -18 -17
c0 -11 5 -18 18 -18zM70 4h17c-1 59 -4 94 -8 125c-4 -31 -8 -66 -9 -125z" />
    <glyph glyph-name="cent" unicode="&#xa2;" horiz-adv-x="437" 
d="M229 27v401c-89 0 -137 -66 -137 -190c0 -137 48 -211 137 -211zM229 455v52h17v-53c38 -3 72 -16 106 -41c7 -5 8 -10 9 -17h2v32h17v-131h-16v2c-10 78 -59 121 -118 128v-401c43 0 97 13 141 93l24 -11c-37 -70 -85 -106 -165 -108v-52h-17v52
c-127 0 -212 90 -212 225c0 138 85 230 212 230zM100 74c-21 36 -34 89 -34 164c0 56 9 98 24 129c-29 -35 -46 -83 -46 -142c0 -63 20 -116 56 -151z" />
    <glyph glyph-name="sterling" unicode="&#xa3;" horiz-adv-x="489" 
d="M297 472c76 0 116 -29 130 -48v-64h-22v8c-9 44 -36 78 -108 78c-69 0 -87 -32 -87 -123v-48h113v-26h-126v-2c7 -4 13 -10 13 -31c0 -22 -5 -70 -19 -117c76 -21 159 -56 197 -56c24 0 42 14 51 51l24 -7l-8 -34c-11 -49 -39 -72 -76 -72c-54 0 -135 49 -202 82
c-26 -58 -62 -80 -93 -80c-33 0 -59 26 -59 64c0 33 23 66 79 66c9 0 18 -1 28 -2c5 32 8 73 8 121v17h-70v26h70v37c0 107 52 160 157 160zM126 85c-13 4 -25 7 -35 7c-27 0 -39 -23 -39 -45c0 -26 17 -34 28 -34c17 0 35 25 46 72zM153 82l4 -2l3 8l6 19
c13 42 18 87 18 109v59v48c0 33 2 63 10 87c-20 -23 -28 -56 -28 -98v-80c0 -62 -5 -101 -9 -125zM411 20c-10 -3 -19 -3 -23 -3c-29 0 -75 15 -124 31c43 -22 86 -41 115 -41c13 0 23 4 32 13z" />
    <glyph glyph-name="currency" unicode="&#xa4;" horiz-adv-x="349" 
d="M101 323c21 16 45 25 73 25c29 0 54 -9 76 -27l42 41l17 -19l-41 -41c17 -21 26 -47 26 -75s-8 -52 -24 -73l38 -38l-20 -17l-36 36c-22 -19 -48 -28 -78 -28c-28 0 -54 8 -75 25l-39 -38l-17 20l37 37c-18 22 -27 47 -27 76c0 30 10 57 29 79l-42 41l20 17zM107 294
c-18 -18 -28 -41 -28 -67s10 -48 28 -66s41 -28 67 -28s48 10 66 28s28 40 28 66s-10 49 -28 67s-40 28 -66 28s-49 -10 -67 -28z" />
    <glyph glyph-name="yen" unicode="&#xa5;" horiz-adv-x="472" 
d="M143 378c-14 28 -21 32 -39 39l14 -28l114 -225v-94c0 -14 -2 -32 -5 -44h27c-3 13 -5 30 -5 44l1 99zM87 153l5 22h105l-102 203c-23 45 -27 59 -63 59h-23v18h178v-18h-59v-2c14 -5 24 -16 39 -45l80 -158c5 -9 11 -25 13 -31h3c2 6 8 21 13 31l71 144
c9 18 14 32 14 41c0 17 -15 20 -45 20h-37v18h184v-18h-26c-30 0 -35 -11 -60 -61l-101 -201h113l-5 -22h-110l2 -35h114l-5 -22h-110v-26c0 -47 6 -53 53 -53h35v-17h-245v17h35c47 0 52 6 52 53v26h-118l6 22h113l-1 35h-118z" />
    <glyph glyph-name="brokenbar" unicode="&#xa6;" horiz-adv-x="139" 
d="M79 341v223h-18v-223h18zM61 114v-223h18v223h-18zM-9 -109h53v240h52v-240h53v-18h-158v18zM-9 581h158v-17h-53v-241h-52v241h-53v17z" />
    <glyph glyph-name="section" unicode="&#xa7;" horiz-adv-x="480" 
d="M121 358c-21 19 -34 42 -34 71c0 63 64 104 158 104c47 0 91 -13 116 -31c10 -7 15 -18 16 -21l2 1c-1 7 -3 18 -3 28v23h17l5 -166h-18l-5 41c-8 52 -57 99 -130 99c-66 0 -101 -20 -101 -56c0 -110 311 -103 311 -241c0 -54 -33 -85 -91 -113c21 -19 34 -43 34 -72
c0 -62 -64 -104 -158 -104c-47 0 -91 13 -116 31c-10 7 -15 18 -16 21l-2 -1c1 -7 3 -18 3 -28v-23h-17l-5 166h18l6 -41c8 -52 56 -98 129 -98c66 0 101 19 101 55c0 110 -310 104 -310 242c0 54 32 85 90 113zM338 116c33 20 50 44 50 81c0 70 -154 86 -241 141
c-33 -20 -50 -43 -50 -80c0 -70 154 -87 241 -142zM408 157c15 16 20 33 20 53c0 114 -310 106 -310 241c-3 -7 -4 -14 -4 -22c0 -21 9 -38 25 -52c7 -7 14 -11 22 -16c82 -49 196 -64 238 -120c3 -4 15 -20 15 -44c0 -14 -2 -28 -6 -40zM324 94c-82 49 -195 64 -237 120
c-3 4 -16 20 -16 44c0 14 2 28 6 40c-15 -16 -20 -33 -20 -53c0 -114 310 -107 310 -242c3 7 5 14 5 22c0 21 -10 38 -26 52c-7 7 -14 12 -22 17z" />
    <glyph glyph-name="copyright" unicode="&#xa9;" horiz-adv-x="546" 
d="M372 158c-19 -36 -51 -54 -92 -54c-68 0 -118 48 -118 121c0 74 47 124 112 124c21 0 46 -7 64 -19c4 -3 6 -6 7 -11h2c-1 3 -3 6 -3 13v21h9l3 -79h-12l-1 2c-5 43 -37 60 -69 60c-47 0 -76 -36 -76 -104c0 -74 33 -115 85 -115c32 0 60 16 77 46zM273 -6
c-37 0 -80 6 -124 30c-38 21 -69 49 -91 85c-25 40 -34 81 -34 118s9 78 34 118c22 36 53 64 91 85c44 24 96 31 133 31s71 -7 115 -31c38 -21 69 -49 91 -85c25 -40 34 -81 34 -118s-9 -78 -34 -118c-22 -36 -53 -64 -91 -85c-44 -24 -87 -30 -124 -30zM387 44
c35 19 62 45 83 77c23 36 30 73 30 106s-7 71 -30 107c-21 32 -48 58 -83 77c-40 21 -80 28 -114 28s-73 -7 -113 -28c-35 -19 -63 -45 -84 -77c-23 -36 -30 -74 -30 -107s7 -70 30 -106c21 -32 49 -58 84 -77c40 -21 79 -28 113 -28s74 7 114 28z" />
    <glyph glyph-name="ordfeminine" unicode="&#xaa;" horiz-adv-x="340" 
d="M210 282l-43 117c-4 10 -4 23 -4 27h-5c0 -4 -1 -16 -6 -27l-49 -117h107zM24 189v10h1c21 0 22 4 34 32l99 236h38v-3v-6c0 -11 3 -24 6 -33l72 -194c11 -28 14 -32 35 -32h8v-10h-107v10h40v1c-8 3 -14 12 -18 22l-14 40h-123l-13 -32c-3 -8 -6 -14 -6 -18
c0 -10 10 -13 31 -13h16v-10h-99zM262 215c-1 3 -2 4 -4 10l-73 195c-2 6 -4 13 -5 21l-1 -14c0 -8 0 -11 4 -22l66 -176c3 -8 7 -12 8 -12z" />
    <glyph glyph-name="guillemotleft" unicode="&#xab;" horiz-adv-x="445" 
d="M240 257c9 7 20 18 35 32l99 86l-9 9zM240 197l125 -127l9 10l-99 85v1c-13 13 -25 24 -35 31zM88 257c9 7 21 18 36 32l98 86l-9 9zM88 197l125 -127l9 10l-98 85v1c-13 13 -26 24 -36 31zM186 226v3l179 180l34 -35l-112 -98c-28 -27 -49 -44 -63 -47v-4
c14 -3 35 -20 63 -47l112 -97l-34 -36zM35 226v3l178 180l35 -35l-112 -98c-28 -27 -49 -44 -63 -47v-4c14 -3 35 -20 63 -47l112 -97l-35 -36z" />
    <glyph glyph-name="logicalnot" unicode="&#xac;" horiz-adv-x="402" 
d="M358 275v-198l-26 2v170h-288l1 26h313z" />
    <glyph glyph-name="uni00AD" unicode="&#xad;" horiz-adv-x="279" 
d="M240 205h-205l4 27h206z" />
    <glyph glyph-name="registered" unicode="&#xae;" horiz-adv-x="546" 
d="M229 325v-1c4 -4 7 -10 7 -18v-87h24c37 0 57 19 57 53s-20 53 -57 53h-31zM188 333h69c53 0 89 -24 89 -61c0 -29 -22 -54 -65 -60v-2c10 -2 23 -12 31 -24l18 -27c12 -18 17 -26 25 -26h3l10 2l1 -6c-14 -3 -23 -7 -31 -7c-13 0 -19 8 -33 29l-22 33
c-12 18 -19 27 -35 27h-12v-60c0 -17 1 -19 18 -19h3v-6h-69v6h3c17 0 19 2 19 19v157c0 17 -2 19 -19 19h-3v6zM273 -6c-37 0 -80 6 -124 30c-38 21 -69 49 -91 85c-25 40 -34 81 -34 118s9 78 34 118c22 36 53 64 91 85c44 24 96 31 133 31s71 -7 115 -31
c38 -21 69 -49 91 -85c25 -40 34 -81 34 -118s-9 -78 -34 -118c-22 -36 -53 -64 -91 -85c-44 -24 -87 -30 -124 -30zM387 44c35 19 62 45 83 77c23 36 30 73 30 106s-7 71 -30 107c-21 32 -48 58 -83 77c-40 21 -80 28 -114 28s-73 -7 -113 -28c-35 -19 -63 -45 -84 -77
c-23 -36 -30 -74 -30 -107s7 -70 30 -106c21 -32 49 -58 84 -77c40 -21 79 -28 113 -28s74 7 114 28z" />
    <glyph glyph-name="degree" unicode="&#xb0;" horiz-adv-x="244" 
d="M122 481c-29 0 -43 -23 -43 -70s14 -70 43 -70s44 23 44 70s-15 70 -44 70zM122 498c21 0 42 -8 60 -26s28 -38 28 -61s-10 -43 -28 -61s-39 -27 -60 -27s-42 10 -60 28s-27 38 -27 60c0 23 9 43 27 61s39 26 60 26zM179 449c3 -11 5 -24 5 -38s-2 -27 -5 -38
c9 12 13 24 13 38s-4 26 -13 38zM65 374c-3 11 -4 23 -4 37s2 27 5 38c-9 -12 -14 -24 -14 -38c0 -13 4 -25 13 -37z" />
    <glyph glyph-name="plusminus" unicode="&#xb1;" horiz-adv-x="445" 
d="M238 332h166l-2 -26h-164v-164l-26 2v162h-168l1 26h167v171l26 -2v-169zM396 26h-350l4 26h350z" />
    <glyph glyph-name="paragraph" unicode="&#xb6;" 
d="M341 -57v472c0 55 -8 61 -44 61s-44 -6 -44 -61v-472h-139v18c63 0 70 6 70 61v208h-21c-82 0 -137 54 -137 136s55 137 137 137h318v-18c-63 0 -70 -6 -70 -61v-402c0 -55 7 -61 70 -61v-18h-140zM163 476c-66 0 -111 -44 -111 -110s45 -110 111 -110h21v220h-21z
M358 476c1 -2 2 -3 3 -6c4 -10 6 -17 6 -55v-446h25c-6 13 -7 25 -7 53v402c0 30 3 43 7 52h-34zM203 -31h24v446c0 33 3 45 7 55c1 3 2 4 3 6h-27v-454c0 -30 -3 -44 -7 -53z" />
    <glyph glyph-name="periodcentered" unicode="&#xb7;" horiz-adv-x="209" 
d="M105 267c26 0 44 -16 44 -44c0 -26 -16 -44 -44 -44c-26 0 -44 16 -44 44c0 26 16 44 44 44zM105 240c-13 0 -18 -6 -18 -17c0 -13 7 -18 18 -18c13 0 17 7 17 18c0 13 -6 17 -17 17z" />
    <glyph glyph-name="ordmasculine" unicode="&#xba;" horiz-adv-x="305" 
d="M241 307c0 96 -31 148 -90 148c-56 0 -86 -37 -86 -106c0 -96 31 -148 90 -148c56 0 86 37 86 106zM22 328c0 88 52 147 131 147s131 -59 131 -147s-52 -147 -131 -147s-131 59 -131 147zM253 261c9 19 14 42 14 67c0 41 -12 73 -33 96c15 -25 24 -62 24 -117
c0 -17 -2 -32 -5 -46zM53 395c-9 -19 -14 -42 -14 -67c0 -41 12 -73 33 -96c-15 25 -24 62 -24 117c0 17 2 32 5 46z" />
    <glyph glyph-name="guillemotright" unicode="&#xbb;" horiz-adv-x="445" 
d="M206 257l-125 127l-9 -9l98 -86h1c15 -14 26 -25 35 -32zM206 197c-10 -7 -22 -18 -35 -31l-1 -1l-98 -85l9 -10zM358 257l-125 127l-10 -9l99 -86c15 -14 27 -25 36 -32zM358 197c-10 -7 -23 -18 -36 -31v-1l-99 -85l10 -10zM260 226l-179 -181l-34 36l112 97
c28 27 49 44 63 47v4c-14 3 -35 20 -63 47l-112 98l34 35l179 -180v-3zM411 226l-178 -181l-35 36l112 97c28 27 49 44 63 47v4c-14 3 -35 20 -63 47l-112 98l35 35l178 -180v-3z" />
    <glyph glyph-name="questiondown" unicode="&#xbf;" horiz-adv-x="340" 
d="M192 376c-26 0 -43 16 -43 44c0 26 15 43 43 43c26 0 44 -15 44 -43c0 -26 -16 -44 -44 -44zM186 -17c-101 0 -169 49 -169 122c0 94 162 116 162 166v26h26v-26c0 -75 -113 -99 -113 -166c0 -62 33 -96 94 -96c72 0 98 34 107 78v7h22v-98h-18v6c0 6 0 12 1 15l-2 1
c-3 -5 -10 -12 -16 -15c-25 -13 -58 -20 -94 -20zM192 402c13 0 18 7 18 18c0 13 -7 17 -18 17c-13 0 -17 -6 -17 -17c0 -13 6 -18 17 -18zM95 172c-28 -17 -49 -37 -51 -67c0 -28 13 -52 37 -69c-10 18 -15 41 -15 69s12 49 29 67z" />
    <glyph glyph-name="Agrave" unicode="&#xc0;" 
d="M9 0v17h11c36 0 37 6 57 53l164 393h55v-5v-9c0 -18 5 -40 10 -55l120 -324c19 -47 21 -53 57 -53h15v-17h-179v17h68v2c-14 5 -25 20 -31 37l-24 66h-205l-22 -53c-5 -13 -8 -23 -8 -30c0 -17 15 -22 50 -22h28v-17h-166zM322 149l-74 201c-6 15 -8 31 -8 39v4v2h-7v-2
v-2c0 -7 -4 -24 -11 -41l-84 -201h184zM267 421c0 -10 -1 -18 -1 -25c0 -11 0 -22 6 -37l109 -293c8 -21 16 -26 30 -32c-3 6 -6 17 -9 26l-121 325c-3 8 -6 22 -9 37zM204 604l-9 -7l9 -10l42 -32zM196 621c3 2 6 3 9 3s6 -2 9 -5l96 -115l-14 -11l-105 82l-12 15
c-2 3 -4 5 -4 8s3 7 6 10z" />
    <glyph glyph-name="Aacute" unicode="&#xc1;" 
d="M9 0v17h11c36 0 37 6 57 53l164 393h55v-5v-9c0 -18 5 -40 10 -55l120 -324c19 -47 21 -53 57 -53h15v-17h-179v17h68v2c-14 5 -25 20 -31 37l-24 66h-205l-22 -53c-5 -13 -8 -23 -8 -30c0 -17 15 -22 50 -22h28v-17h-166zM322 149l-74 201c-6 15 -8 31 -8 39v4v2h-7v-2
v-2c0 -7 -4 -24 -11 -41l-84 -201h184zM267 421c0 -10 -1 -18 -1 -25c0 -11 0 -22 6 -37l109 -293c8 -21 16 -26 30 -32c-3 6 -6 17 -9 26l-121 325c-3 8 -6 22 -9 37zM321 604l-42 -49l42 32l9 10zM329 621l15 -13c3 -3 6 -7 6 -10s-2 -5 -4 -8l-13 -15l-104 -82l-14 11
l96 115c3 3 6 5 9 5s6 -1 9 -3z" />
    <glyph glyph-name="Acircumflex" unicode="&#xc2;" 
d="M9 0v17h11c36 0 37 6 57 53l164 393h55v-5v-9c0 -18 5 -40 10 -55l120 -324c19 -47 21 -53 57 -53h15v-17h-179v17h68v2c-14 5 -25 20 -31 37l-24 66h-205l-22 -53c-5 -13 -8 -23 -8 -30c0 -17 15 -22 50 -22h28v-17h-166zM322 149l-74 201c-6 15 -8 31 -8 39v4v2h-7v-2
v-2c0 -7 -4 -24 -11 -41l-84 -201h184zM267 421c0 -10 -1 -18 -1 -25c0 -11 0 -22 6 -37l109 -293c8 -21 16 -26 30 -32c-3 6 -6 17 -9 26l-121 325c-3 8 -6 22 -9 37zM303 576l24 -26l26 -29l3 4zM222 576l-53 -51l3 -4l26 29zM276 624l101 -99l-24 -27l-37 42
c-27 31 -49 50 -52 64h-4c-3 -14 -24 -33 -51 -64l-37 -42l-25 27l101 99h28z" />
    <glyph glyph-name="Atilde" unicode="&#xc3;" 
d="M9 0v17h11c36 0 37 6 57 53l164 393h55v-5v-9c0 -18 5 -40 10 -55l120 -324c19 -47 21 -53 57 -53h15v-17h-179v17h68v2c-14 5 -25 20 -31 37l-24 66h-205l-22 -53c-5 -13 -8 -23 -8 -30c0 -17 15 -22 50 -22h28v-17h-166zM322 149l-74 201c-6 15 -8 31 -8 39v4v2h-7v-2
v-2c0 -7 -4 -24 -11 -41l-84 -201h184zM267 421c0 -10 -1 -18 -1 -25c0 -11 0 -22 6 -37l109 -293c8 -21 16 -26 30 -32c-3 6 -6 17 -9 26l-121 325c-3 8 -6 22 -9 37zM371 530c-7 -3 -15 -6 -24 -6c-29 0 -57 20 -85 40c-30 21 -60 43 -82 43c-9 0 -18 -3 -27 -13
c5 3 13 5 20 5c26 0 51 -17 78 -36c32 -23 65 -47 89 -47c11 0 21 3 31 14zM410 572c-15 -56 -42 -74 -70 -74c-56 0 -124 83 -167 83c-14 0 -27 -8 -33 -31l-8 -30l-25 6l8 30c14 51 39 68 65 68c55 0 122 -82 167 -82c16 0 30 9 37 36l8 30l25 -7z" />
    <glyph glyph-name="Adieresis" unicode="&#xc4;" 
d="M9 0v17h11c36 0 37 6 57 53l164 393h55v-5v-9c0 -18 5 -40 10 -55l120 -324c19 -47 21 -53 57 -53h15v-17h-179v17h68v2c-14 5 -25 20 -31 37l-24 66h-205l-22 -53c-5 -13 -8 -23 -8 -30c0 -17 15 -22 50 -22h28v-17h-166zM322 149l-74 201c-6 15 -8 31 -8 39v4v2h-7v-2
v-2c0 -7 -4 -24 -11 -41l-84 -201h184zM267 421c0 -10 -1 -18 -1 -25c0 -11 0 -22 6 -37l109 -293c8 -21 16 -26 30 -32c-3 6 -6 17 -9 26l-121 325c-3 8 -6 22 -9 37zM166 572c-13 0 -17 -5 -17 -18s4 -17 17 -17s18 4 18 17s-5 18 -18 18zM358 572c-13 0 -17 -5 -17 -18
s4 -17 17 -17s18 4 18 17s-5 18 -18 18zM166 598c26 0 44 -16 44 -44c0 -26 -16 -44 -44 -44c-26 0 -44 16 -44 44c0 26 16 44 44 44zM358 598c26 0 44 -16 44 -44c0 -26 -16 -44 -44 -44c-26 0 -43 16 -43 44c0 26 15 44 43 44z" />
    <glyph glyph-name="Aring" unicode="&#xc5;" 
d="M267 421c0 -10 -1 -18 -1 -25c0 -11 0 -22 6 -37l109 -293c8 -21 16 -22 30 -28c-3 6 -6 13 -9 22l-121 325c-3 8 -6 22 -9 37zM267 607c-29 0 -62 -30 -62 -62c0 -31 34 -61 63 -61s60 29 60 61s-32 62 -61 62zM322 149l-74 201c-7 18 -8 39 -8 45h-7
c0 -6 -3 -26 -11 -45l-84 -201h184zM268 632c43 0 88 -40 88 -87c0 -37 -28 -69 -60 -82v-5v-9c0 -18 5 -40 10 -55l120 -324c19 -47 21 -53 57 -53h15v-17h-179v17h68v2c-14 5 -25 20 -31 37l-24 66h-205l-22 -53c-5 -13 -8 -23 -8 -30c0 -17 15 -22 50 -22h28v-17h-166v17
h11c36 0 37 6 57 53l164 393c-33 13 -60 46 -60 82c0 47 45 87 87 87z" />
    <glyph glyph-name="AE" unicode="&#xc6;" horiz-adv-x="708" 
d="M376 79v297c0 14 -6 24 -14 32l-5 5c1 -11 1 -22 1 -28v-315c0 -8 0 -18 -1 -28l5 4c8 8 14 19 14 33zM9 0v17h15c24 0 39 19 53 53l124 315c6 14 10 37 10 55v10v5h366c16 0 20 -2 27 -9l-3 48l17 1l11 -172h-17c-6 94 -28 105 -122 105h-110v-1c12 -12 22 -29 22 -51
v-131h43c46 0 52 10 52 96h18v-219h-18c0 86 -6 97 -52 97h-43v-140c0 -22 -10 -39 -22 -51v-2h162c94 0 108 11 114 105h17l-11 -172l-18 1l4 49h-1c-7 -7 -10 -9 -26 -9h-363v17h22c47 0 52 6 52 53v70h-199l-28 -71c-3 -8 -4 -14 -4 -20c0 -20 15 -32 46 -32h15v-17h-153
zM143 166h189v192c0 40 -18 62 -52 62h-41c0 -10 -19 -57 -27 -78z" />
    <glyph glyph-name="Ccedilla" unicode="&#xc7;" horiz-adv-x="480" 
d="M296 -74c4 -9 6 -20 6 -32c0 -23 -7 -43 -22 -61c24 14 36 33 36 52c0 16 -6 30 -20 41zM106 372c-28 -38 -45 -87 -45 -147c0 -66 23 -121 61 -159c-26 42 -41 101 -41 172c0 53 8 98 25 134zM455 91c-38 -71 -102 -108 -184 -108c-17 0 -33 1 -49 4l-8 -34
c9 4 20 6 33 6c55 0 86 -35 86 -74c0 -55 -69 -95 -156 -95l3 18c58 0 105 36 105 86c0 26 -13 47 -37 47c-15 0 -32 -3 -43 -10l-13 2l13 58c-101 26 -170 113 -170 234c0 149 96 247 225 247c41 0 91 -12 128 -36c8 -6 11 -13 14 -23h3c-2 7 -5 11 -5 25l-1 42l17 1
l8 -157l-25 -1l-1 3c-10 86 -73 120 -138 120c-94 0 -153 -73 -153 -208c0 -149 65 -229 170 -229c65 0 121 33 154 92z" />
    <glyph glyph-name="Egrave" unicode="&#xc8;" horiz-adv-x="489" 
d="M17 455h342c16 0 19 -2 26 -9l-3 48l17 1l12 -172h-18c-6 94 -37 105 -131 105h-118v-1c12 -12 22 -29 22 -51v-131h52c46 0 52 10 52 96h18v-219h-18c0 86 -6 97 -52 97h-52v-140c0 -22 -10 -39 -22 -51v-2h162c94 0 125 11 131 105h18l-12 -172l-17 1l3 49
c-7 -7 -10 -9 -26 -9h-386v17h27c47 0 52 6 52 53v315c0 47 -5 52 -52 52h-27v18zM140 79v297c0 14 -6 24 -14 32l-5 5c1 -11 1 -22 1 -28v-315c0 -8 0 -18 -1 -28l5 4c8 8 14 19 14 33zM161 621c3 2 6 3 9 3s6 -2 9 -5l96 -115l-14 -11l-105 82l-12 15c-2 3 -4 5 -4 8
s3 7 6 10z" />
    <glyph glyph-name="Eacute" unicode="&#xc9;" horiz-adv-x="489" 
d="M286 604l-42 -49l42 32l9 10zM294 621l15 -13c3 -3 6 -7 6 -10s-2 -5 -4 -8l-12 -15l-105 -82l-14 11l96 115c3 3 6 5 9 5s6 -1 9 -3zM17 455h342c16 0 19 -2 26 -9l-3 48l17 1l12 -172h-18c-6 94 -37 105 -131 105h-118v-1c12 -12 22 -29 22 -51v-131h52
c46 0 52 10 52 96h18v-219h-18c0 86 -6 97 -52 97h-52v-140c0 -22 -10 -39 -22 -51v-2h162c94 0 125 11 131 105h18l-12 -172l-17 1l3 49c-7 -7 -10 -9 -26 -9h-386v17h27c47 0 52 6 52 53v315c0 47 -5 52 -52 52h-27v18zM140 79v297c0 14 -6 24 -14 32l-5 5
c1 -11 1 -22 1 -28v-315c0 -8 0 -18 -1 -28l5 4c8 8 14 19 14 33z" />
    <glyph glyph-name="Ecircumflex" unicode="&#xca;" horiz-adv-x="489" 
d="M17 455h342c16 0 19 -2 26 -9l-3 48l17 1l12 -172h-18c-6 94 -37 105 -131 105h-118v-1c12 -12 22 -29 22 -51v-131h52c46 0 52 10 52 96h18v-219h-18c0 86 -6 97 -52 97h-52v-140c0 -22 -10 -39 -22 -51v-2h162c94 0 125 11 131 105h18l-12 -172l-17 1l3 49
c-7 -7 -10 -9 -26 -9h-386v17h27c47 0 52 6 52 53v315c0 47 -5 52 -52 52h-27v18zM140 79v297c0 14 -6 24 -14 32l-5 5c1 -11 1 -22 1 -28v-315c0 -8 0 -18 -1 -28l5 4c8 8 14 19 14 33zM241 624l101 -99l-24 -27l-37 42c-27 31 -49 50 -52 64h-4c-3 -14 -24 -33 -51 -64
l-37 -42l-25 27l101 99h28z" />
    <glyph glyph-name="Edieresis" unicode="&#xcb;" horiz-adv-x="489" 
d="M131 572c-13 0 -17 -5 -17 -18s4 -17 17 -17s18 4 18 17s-5 18 -18 18zM323 572c-13 0 -17 -5 -17 -18s4 -17 17 -17s18 4 18 17s-5 18 -18 18zM131 598c26 0 44 -16 44 -44c0 -26 -16 -44 -44 -44c-26 0 -44 16 -44 44c0 26 16 44 44 44zM323 598c26 0 44 -16 44 -44
c0 -26 -16 -44 -44 -44c-26 0 -43 16 -43 44c0 26 15 44 43 44zM17 455h342c16 0 19 -2 26 -9l-3 48l17 1l12 -172h-18c-6 94 -37 105 -131 105h-118v-1c12 -12 22 -29 22 -51v-131h52c46 0 52 10 52 96h18v-219h-18c0 86 -6 97 -52 97h-52v-140c0 -22 -10 -39 -22 -51v-2
h162c94 0 125 11 131 105h18l-12 -172l-17 1l3 49c-7 -7 -10 -9 -26 -9h-386v17h27c47 0 52 6 52 53v315c0 47 -5 52 -52 52h-27v18zM140 79v297c0 14 -6 24 -14 32l-5 5c1 -11 1 -22 1 -28v-315c0 -8 0 -18 -1 -28l5 4c8 8 14 19 14 33z" />
    <glyph glyph-name="Igrave" unicode="&#xcc;" horiz-adv-x="262" 
d="M17 0v17h27c47 0 52 6 52 53v315c0 47 -5 52 -52 52h-27v18h228v-18h-26c-47 0 -53 -5 -53 -52v-315c0 -47 6 -53 53 -53h26v-17h-228zM118 428c3 -13 4 -34 4 -43v-315c0 -14 -1 -32 -4 -44h27c-3 13 -5 35 -5 44v315c0 14 2 31 5 43h-27zM73 604l-9 -7l9 -10l42 -32z
M65 621c3 2 5 3 8 3s7 -2 10 -5l96 -115l-14 -11l-105 82l-12 15c-2 3 -4 5 -4 8s2 7 5 10z" />
    <glyph glyph-name="Iacute" unicode="&#xcd;" horiz-adv-x="262" 
d="M17 0v17h27c47 0 52 6 52 53v315c0 47 -5 52 -52 52h-27v18h228v-18h-26c-47 0 -53 -5 -53 -52v-315c0 -47 6 -53 53 -53h26v-17h-228zM118 428c3 -13 4 -34 4 -43v-315c0 -14 -1 -32 -4 -44h27c-3 13 -5 35 -5 44v315c0 14 2 31 5 43h-27zM190 604l-42 -49l42 32l8 10z
M198 621l15 -13c3 -3 6 -7 6 -10s-2 -5 -4 -8l-13 -15l-105 -82l-14 11l97 115c3 3 6 5 9 5s6 -1 9 -3z" />
    <glyph glyph-name="Icircumflex" unicode="&#xce;" horiz-adv-x="262" 
d="M17 0v17h27c47 0 52 6 52 53v315c0 47 -5 52 -52 52h-27v18h228v-18h-26c-47 0 -53 -5 -53 -52v-315c0 -47 6 -53 53 -53h26v-17h-228zM118 428c3 -13 4 -34 4 -43v-315c0 -14 -1 -32 -4 -44h27c-3 13 -5 35 -5 44v315c0 14 2 31 5 43h-27zM145 615l92 -98l-24 -27
l-37 41c-27 31 -40 50 -43 64h-4c-3 -14 -15 -33 -42 -64l-38 -41l-24 27l92 98h28z" />
    <glyph glyph-name="Idieresis" unicode="&#xcf;" horiz-adv-x="262" 
d="M17 0v17h27c47 0 52 6 52 53v315c0 47 -5 52 -52 52h-27v18h228v-18h-26c-47 0 -53 -5 -53 -52v-315c0 -47 6 -53 53 -53h26v-17h-228zM118 428c3 -13 4 -34 4 -43v-315c0 -14 -1 -32 -4 -44h27c-3 13 -5 35 -5 44v315c0 14 2 31 5 43h-27zM61 589c21 0 35 -13 35 -35
c0 -21 -13 -35 -35 -35c-21 0 -35 13 -35 35c0 21 13 35 35 35zM201 589c21 0 35 -13 35 -35c0 -21 -13 -35 -35 -35c-21 0 -35 13 -35 35c0 21 13 35 35 35zM61 563c-8 0 -9 -1 -9 -9s1 -9 9 -9s9 1 9 9s-1 9 -9 9zM201 563c-8 0 -9 -1 -9 -9s1 -9 9 -9s9 1 9 9s-1 9 -9 9z
" />
    <glyph glyph-name="Eth" unicode="&#xd0;" horiz-adv-x="524" 
d="M409 83c35 35 54 84 54 144s-19 109 -54 144c21 -37 32 -85 32 -144s-11 -107 -32 -144zM122 428h-4c4 -14 4 -25 4 -43v-315c0 -17 -1 -37 -4 -44h4c5 6 18 24 18 48v306c0 21 -11 43 -18 48zM44 437h-27v18h236c142 0 237 -92 237 -228s-95 -227 -237 -227h-236v17h27
c47 0 52 6 52 53v140h-52l4 43h48v132c0 47 -5 52 -52 52zM149 26h100c108 0 166 70 166 201s-58 201 -166 201h-100v-1c12 -12 17 -25 17 -47v-127h83l-4 -43h-79v-136c0 -22 -5 -34 -17 -46v-2z" />
    <glyph glyph-name="Ntilde" unicode="&#xd1;" horiz-adv-x="533" 
d="M17 455h138l234 -320c13 -17 17 -34 17 -37h7c-1 10 -2 25 -2 42v245c0 47 -6 52 -53 52h-26v18h184v-18h-26c-47 0 -53 -5 -53 -52v-394h-30l-261 356c-13 17 -19 35 -19 38h-6c1 -11 1 -24 1 -41v-274c0 -47 6 -53 53 -53h35v-17h-193v17h27c47 0 52 6 52 53v315
c0 47 -5 52 -52 52h-27v18zM149 418c0 -24 1 -29 18 -56l220 -299c-3 29 -5 35 -20 56zM362 530c-7 -3 -14 -6 -23 -6c-29 0 -58 20 -86 40c-30 21 -60 43 -82 43c-9 0 -18 -3 -27 -13c5 3 13 5 20 5c26 0 52 -17 79 -36c32 -23 65 -47 89 -47c11 0 20 3 30 14zM401 572
c-15 -56 -41 -74 -69 -74c-56 0 -125 83 -168 83c-14 0 -26 -8 -32 -31l-8 -30l-26 6l8 30c14 51 39 68 65 68c55 0 123 -82 168 -82c16 0 29 9 36 36l8 30l26 -7z" />
    <glyph glyph-name="Ograve" unicode="&#xd2;" 
d="M195 604l-8 -7l8 -10l42 -32zM187 621c3 2 6 3 9 3s6 -2 9 -5l97 -115l-14 -11l-105 82l-13 15c-2 3 -3 5 -3 8s2 7 5 10zM412 94c22 35 34 81 34 133c0 73 -23 133 -64 171c26 -42 44 -107 44 -206c0 -38 -5 -70 -14 -98zM95 361c-22 -35 -34 -82 -34 -134
c0 -73 23 -133 64 -171c-26 42 -44 107 -44 206c0 38 5 71 14 99zM400 192c0 165 -53 254 -150 254c-93 0 -143 -65 -143 -184c0 -165 53 -253 150 -253c93 0 143 64 143 183zM35 227c0 147 87 245 218 245s219 -98 219 -245s-88 -244 -219 -244s-218 97 -218 244z" />
    <glyph glyph-name="Oacute" unicode="&#xd3;" 
d="M312 604l-41 -49l41 32l9 10zM320 621l16 -13c3 -3 5 -7 5 -10s-2 -5 -4 -8l-12 -15l-105 -82l-14 11l96 115c3 3 7 5 10 5s5 -1 8 -3zM412 94c22 35 34 81 34 133c0 73 -23 133 -64 171c26 -42 44 -107 44 -206c0 -38 -5 -70 -14 -98zM95 361c-22 -35 -34 -82 -34 -134
c0 -73 23 -133 64 -171c-26 42 -44 107 -44 206c0 38 5 71 14 99zM400 192c0 165 -53 254 -150 254c-93 0 -143 -65 -143 -184c0 -165 53 -253 150 -253c93 0 143 64 143 183zM35 227c0 147 87 245 218 245s219 -98 219 -245s-88 -244 -219 -244s-218 97 -218 244z" />
    <glyph glyph-name="Ocircumflex" unicode="&#xd4;" 
d="M412 94c22 35 34 81 34 133c0 73 -23 133 -64 171c26 -42 44 -107 44 -206c0 -38 -5 -70 -14 -98zM95 361c-22 -35 -34 -82 -34 -134c0 -73 23 -133 64 -171c-26 42 -44 107 -44 206c0 38 5 71 14 99zM400 192c0 165 -53 254 -150 254c-93 0 -143 -65 -143 -184
c0 -165 53 -253 150 -253c93 0 143 64 143 183zM35 227c0 147 87 245 218 245s219 -98 219 -245s-88 -244 -219 -244s-218 97 -218 244zM267 624l101 -99l-24 -27l-37 42c-27 31 -48 50 -51 64h-5c-3 -14 -24 -33 -51 -64l-37 -42l-24 27l101 99h27z" />
    <glyph glyph-name="Otilde" unicode="&#xd5;" 
d="M401 572c-15 -56 -41 -74 -69 -74c-56 0 -125 83 -168 83c-14 0 -26 -8 -32 -31l-8 -30l-26 6l8 30c14 51 39 68 65 68c55 0 123 -82 168 -82c16 0 29 9 36 36l8 30l26 -7zM412 94c22 35 34 81 34 133c0 73 -23 133 -64 171c26 -42 44 -107 44 -206c0 -38 -5 -70 -14 -98
zM95 361c-22 -35 -34 -82 -34 -134c0 -73 23 -133 64 -171c-26 42 -44 107 -44 206c0 38 5 71 14 99zM400 192c0 165 -53 254 -150 254c-93 0 -143 -65 -143 -184c0 -165 53 -253 150 -253c93 0 143 64 143 183zM35 227c0 147 87 245 218 245s219 -98 219 -245
s-88 -244 -219 -244s-218 97 -218 244zM362 530c-7 -3 -14 -6 -23 -6c-55 0 -126 83 -168 83c-9 0 -18 -3 -27 -13c5 3 13 5 20 5c54 0 124 -83 168 -83c11 0 20 3 30 14z" />
    <glyph glyph-name="Odieresis" unicode="&#xd6;" 
d="M157 598c26 0 44 -16 44 -44c0 -26 -16 -44 -44 -44c-26 0 -43 16 -43 44c0 26 15 44 43 44zM350 598c26 0 43 -16 43 -44c0 -26 -15 -44 -43 -44c-26 0 -44 16 -44 44c0 26 16 44 44 44zM412 94c22 35 34 81 34 133c0 73 -23 133 -64 171c26 -42 44 -107 44 -206
c0 -38 -5 -70 -14 -98zM95 361c-22 -35 -34 -82 -34 -134c0 -73 23 -133 64 -171c-26 42 -44 107 -44 206c0 38 5 71 14 99zM400 192c0 165 -53 254 -150 254c-93 0 -143 -65 -143 -184c0 -165 53 -253 150 -253c93 0 143 64 143 183zM35 227c0 147 87 245 218 245
s219 -98 219 -245s-88 -244 -219 -244s-218 97 -218 244zM157 572c-13 0 -17 -5 -17 -18s4 -17 17 -17s18 4 18 17s-5 18 -18 18zM350 572c-13 0 -18 -5 -18 -18s5 -17 18 -17s17 4 17 17s-4 18 -17 18z" />
    <glyph glyph-name="multiply" unicode="&#xd7;" horiz-adv-x="387" 
d="M216 227l117 -114l-26 -24l-114 116l-113 -116l-23 26l113 112l-118 117l27 23l114 -117l118 120l24 -26z" />
    <glyph glyph-name="Oslash" unicode="&#xd8;" horiz-adv-x="489" 
d="M395 94c22 35 33 81 33 133c0 73 -23 133 -64 171c26 -42 45 -107 45 -206c0 -38 -5 -70 -14 -98zM95 361c-22 -35 -34 -82 -34 -134c0 -73 23 -133 64 -171c-26 42 -44 107 -44 206c0 38 5 71 14 99zM80 -17l-21 16l37 50c-39 42 -61 104 -61 178c0 144 84 241 210 241
c51 0 94 -16 129 -44l35 47l21 -16l-37 -49c39 -42 62 -105 62 -179c0 -144 -84 -240 -210 -240c-51 0 -95 16 -130 44zM146 72c24 -39 58 -59 102 -59c87 0 134 63 134 179c0 68 -8 123 -25 164zM133 98l211 284c-24 39 -59 59 -103 59c-87 0 -134 -63 -134 -179
c0 -68 9 -123 26 -164z" />
    <glyph glyph-name="Ugrave" unicode="&#xd9;" horiz-adv-x="524" 
d="M17 455h219v-18h-26c-47 0 -53 -5 -53 -52v-254c0 -80 39 -122 110 -122c87 0 144 59 144 148v228c0 47 -6 52 -53 52h-26v18h175v-18h-19c-47 0 -51 -5 -51 -52v-228c0 -105 -68 -174 -170 -174c-108 0 -180 69 -180 174v228c0 47 -5 52 -52 52h-18v18zM136 428h-27
c3 -13 5 -31 5 -43v-228c0 -36 9 -67 27 -91c-7 19 -10 40 -10 65v254c0 14 2 31 5 43zM217 604l-9 -7l9 -10l42 -32zM209 621c3 2 6 3 9 3s6 -2 9 -5l96 -115l-14 -11l-104 82l-13 15c-2 3 -4 5 -4 8s3 7 6 10z" />
    <glyph glyph-name="Uacute" unicode="&#xda;" horiz-adv-x="524" 
d="M17 455h219v-18h-26c-47 0 -53 -5 -53 -52v-254c0 -80 39 -122 110 -122c87 0 144 59 144 148v228c0 47 -6 52 -53 52h-26v18h175v-18h-19c-47 0 -51 -5 -51 -52v-228c0 -105 -68 -174 -170 -174c-108 0 -180 69 -180 174v228c0 47 -5 52 -52 52h-18v18zM136 428h-27
c3 -13 5 -31 5 -43v-228c0 -36 9 -67 27 -91c-7 19 -10 40 -10 65v254c0 14 2 31 5 43zM334 604l-42 -49l42 32l9 10zM342 621l16 -13c3 -3 5 -7 5 -10s-2 -5 -4 -8l-12 -15l-105 -82l-14 11l96 115c3 3 6 5 9 5s6 -1 9 -3z" />
    <glyph glyph-name="Ucircumflex" unicode="&#xdb;" horiz-adv-x="524" 
d="M17 455h219v-18h-26c-47 0 -53 -5 -53 -52v-254c0 -80 39 -122 110 -122c87 0 144 59 144 148v228c0 47 -6 52 -53 52h-26v18h175v-18h-19c-47 0 -51 -5 -51 -52v-228c0 -105 -68 -174 -170 -174c-108 0 -180 69 -180 174v228c0 47 -5 52 -52 52h-18v18zM136 428h-27
c3 -13 5 -31 5 -43v-228c0 -36 9 -67 27 -91c-7 19 -10 40 -10 65v254c0 14 2 31 5 43zM289 624l101 -99l-24 -27l-37 42c-27 31 -48 50 -51 64h-5c-3 -14 -24 -33 -51 -64l-37 -42l-25 27l101 99h28z" />
    <glyph glyph-name="Udieresis" unicode="&#xdc;" horiz-adv-x="524" 
d="M17 455h219v-18h-26c-47 0 -53 -5 -53 -52v-254c0 -80 39 -122 110 -122c87 0 144 59 144 148v228c0 47 -6 52 -53 52h-26v18h175v-18h-19c-47 0 -51 -5 -51 -52v-228c0 -105 -68 -174 -170 -174c-108 0 -180 69 -180 174v228c0 47 -5 52 -52 52h-18v18zM136 428h-27
c3 -13 5 -31 5 -43v-228c0 -36 9 -67 27 -91c-7 19 -10 40 -10 65v254c0 14 2 31 5 43zM179 572c-13 0 -17 -5 -17 -18s4 -17 17 -17s18 4 18 17s-5 18 -18 18zM372 572c-13 0 -18 -5 -18 -18s5 -17 18 -17s17 4 17 17s-4 18 -17 18zM179 598c26 0 44 -16 44 -44
c0 -26 -16 -44 -44 -44c-26 0 -44 16 -44 44c0 26 16 44 44 44zM372 598c26 0 43 -16 43 -44c0 -26 -15 -44 -43 -44c-26 0 -44 16 -44 44c0 26 16 44 44 44z" />
    <glyph glyph-name="Yacute" unicode="&#xdd;" 
d="M167 390l97 -176c5 -9 12 -25 14 -31h2c2 6 8 21 13 31l89 162c10 18 14 31 14 40c0 17 -15 21 -45 21h-37v18h184v-18h-26c-30 0 -33 -12 -60 -61l-119 -217v-89c0 -47 5 -53 52 -53h35v-17h-245v17h35c47 0 53 6 53 53v70l-128 238c-24 45 -27 59 -63 59h-23v18h178
v-18h-59v-2c14 -5 23 -16 39 -45zM143 378c-18 33 -21 32 -39 39l14 -28l131 -242v-77c0 -14 -2 -32 -5 -44h27c-3 13 -4 30 -4 44v84zM317 604l-42 -49l42 32l8 10zM325 621l15 -13c3 -3 5 -7 5 -10s-1 -5 -3 -8l-13 -15l-105 -82l-14 11l96 115c3 3 7 5 10 5s6 -1 9 -3z
" />
    <glyph glyph-name="Thorn" unicode="&#xde;" horiz-adv-x="472" 
d="M140 402c0 20 -17 27 -21 29c3 -15 3 -30 3 -38v-323c0 -14 -1 -32 -4 -44h27c-3 13 -5 31 -5 44v332zM375 156c28 21 45 50 45 84s-17 64 -45 85c14 -23 23 -52 23 -85s-9 -61 -23 -84zM166 350v-219h92c74 0 114 38 114 109s-40 110 -114 110h-92zM166 376h96
c110 0 184 -55 184 -136s-74 -135 -184 -135h-96v-35c0 -47 6 -53 53 -53h34v-17h-236v17h27c47 0 52 6 52 53v315c0 47 -5 52 -52 52h-27v18h206v-18h-66v-2c7 -7 9 -10 9 -26v-33z" />
    <glyph glyph-name="germandbls" unicode="&#xdf;" horiz-adv-x="537" 
d="M309 299c90 -100 202 -102 202 -201c0 -69 -57 -115 -144 -115c-61 0 -96 24 -118 48v-48h-17v144h17c0 -77 47 -118 118 -118c49 0 75 27 75 78c0 74 -122 84 -196 180l112 131c-27 28 -66 48 -111 48c-59 0 -90 -28 -90 -79v-311c0 -17 3 -34 5 -53v-7l-145 4v17h18
c47 0 52 6 52 53v187h-61v27h61v48c0 84 67 140 167 140c104 0 144 -51 152 -58zM460 39c16 15 25 35 25 59c0 83 -100 89 -194 181l-10 -12c72 -79 188 -98 188 -180c0 -19 -3 -34 -9 -48zM133 23c-1 10 -2 21 -2 33v311c0 10 2 21 4 30c-14 -18 -21 -40 -21 -65v-262
c0 -14 -1 -35 -6 -46z" />
    <glyph glyph-name="agrave" unicode="&#xe0;" 
d="M9 0v17h11c36 0 37 6 57 53l164 393h55v-5v-9c0 -18 5 -40 10 -55l120 -324c19 -47 21 -53 57 -53h15v-17h-179v17h68v2c-14 5 -25 20 -31 37l-24 66h-205l-22 -53c-5 -13 -8 -23 -8 -30c0 -17 15 -22 50 -22h28v-17h-166zM322 149l-74 201c-6 15 -8 31 -8 39v4v2h-7v-2
v-2c0 -7 -4 -24 -11 -41l-84 -201h184zM267 421c0 -10 -1 -18 -1 -25c0 -11 0 -22 6 -37l109 -293c8 -21 16 -26 30 -32c-3 6 -6 17 -9 26l-121 325c-3 8 -6 22 -9 37zM204 604l-9 -7l9 -10l42 -32zM196 621c3 2 6 3 9 3s6 -2 9 -5l96 -115l-14 -11l-105 82l-12 15
c-2 3 -4 5 -4 8s3 7 6 10z" />
    <glyph glyph-name="aacute" unicode="&#xe1;" 
d="M9 0v17h11c36 0 37 6 57 53l164 393h55v-5v-9c0 -18 5 -40 10 -55l120 -324c19 -47 21 -53 57 -53h15v-17h-179v17h68v2c-14 5 -25 20 -31 37l-24 66h-205l-22 -53c-5 -13 -8 -23 -8 -30c0 -17 15 -22 50 -22h28v-17h-166zM322 149l-74 201c-6 15 -8 31 -8 39v4v2h-7v-2
v-2c0 -7 -4 -24 -11 -41l-84 -201h184zM267 421c0 -10 -1 -18 -1 -25c0 -11 0 -22 6 -37l109 -293c8 -21 16 -26 30 -32c-3 6 -6 17 -9 26l-121 325c-3 8 -6 22 -9 37zM321 604l-42 -49l42 32l9 10zM329 621l15 -13c3 -3 6 -7 6 -10s-2 -5 -4 -8l-13 -15l-104 -82l-14 11
l96 115c3 3 6 5 9 5s6 -1 9 -3z" />
    <glyph glyph-name="acircumflex" unicode="&#xe2;" 
d="M9 0v17h11c36 0 37 6 57 53l164 393h55v-5v-9c0 -18 5 -40 10 -55l120 -324c19 -47 21 -53 57 -53h15v-17h-179v17h68v2c-14 5 -25 20 -31 37l-24 66h-205l-22 -53c-5 -13 -8 -23 -8 -30c0 -17 15 -22 50 -22h28v-17h-166zM322 149l-74 201c-6 15 -8 31 -8 39v4v2h-7v-2
v-2c0 -7 -4 -24 -11 -41l-84 -201h184zM267 421c0 -10 -1 -18 -1 -25c0 -11 0 -22 6 -37l109 -293c8 -21 16 -26 30 -32c-3 6 -6 17 -9 26l-121 325c-3 8 -6 22 -9 37zM303 576l24 -26l26 -29l3 4zM222 576l-53 -51l3 -4l26 29zM276 624l101 -99l-24 -27l-37 42
c-27 31 -49 50 -52 64h-4c-3 -14 -24 -33 -51 -64l-37 -42l-25 27l101 99h28z" />
    <glyph glyph-name="atilde" unicode="&#xe3;" 
d="M9 0v17h11c36 0 37 6 57 53l164 393h55v-5v-9c0 -18 5 -40 10 -55l120 -324c19 -47 21 -53 57 -53h15v-17h-179v17h68v2c-14 5 -25 20 -31 37l-24 66h-205l-22 -53c-5 -13 -8 -23 -8 -30c0 -17 15 -22 50 -22h28v-17h-166zM322 149l-74 201c-6 15 -8 31 -8 39v4v2h-7v-2
v-2c0 -7 -4 -24 -11 -41l-84 -201h184zM267 421c0 -10 -1 -18 -1 -25c0 -11 0 -22 6 -37l109 -293c8 -21 16 -26 30 -32c-3 6 -6 17 -9 26l-121 325c-3 8 -6 22 -9 37zM371 530c-7 -3 -15 -6 -24 -6c-29 0 -57 20 -85 40c-30 21 -60 43 -82 43c-9 0 -18 -3 -27 -13
c5 3 13 5 20 5c26 0 51 -17 78 -36c32 -23 65 -47 89 -47c11 0 21 3 31 14zM410 572c-15 -56 -42 -74 -70 -74c-56 0 -124 83 -167 83c-14 0 -27 -8 -33 -31l-8 -30l-25 6l8 30c14 51 39 68 65 68c55 0 122 -82 167 -82c16 0 30 9 37 36l8 30l25 -7z" />
    <glyph glyph-name="adieresis" unicode="&#xe4;" 
d="M9 0v17h11c36 0 37 6 57 53l164 393h55v-5v-9c0 -18 5 -40 10 -55l120 -324c19 -47 21 -53 57 -53h15v-17h-179v17h68v2c-14 5 -25 20 -31 37l-24 66h-205l-22 -53c-5 -13 -8 -23 -8 -30c0 -17 15 -22 50 -22h28v-17h-166zM322 149l-74 201c-6 15 -8 31 -8 39v4v2h-7v-2
v-2c0 -7 -4 -24 -11 -41l-84 -201h184zM267 421c0 -10 -1 -18 -1 -25c0 -11 0 -22 6 -37l109 -293c8 -21 16 -26 30 -32c-3 6 -6 17 -9 26l-121 325c-3 8 -6 22 -9 37zM166 572c-13 0 -17 -5 -17 -18s4 -17 17 -17s18 4 18 17s-5 18 -18 18zM358 572c-13 0 -17 -5 -17 -18
s4 -17 17 -17s18 4 18 17s-5 18 -18 18zM166 598c26 0 44 -16 44 -44c0 -26 -16 -44 -44 -44c-26 0 -44 16 -44 44c0 26 16 44 44 44zM358 598c26 0 44 -16 44 -44c0 -26 -16 -44 -44 -44c-26 0 -43 16 -43 44c0 26 15 44 43 44z" />
    <glyph glyph-name="aring" unicode="&#xe5;" 
d="M267 421c0 -10 -1 -18 -1 -25c0 -11 0 -22 6 -37l109 -293c8 -21 16 -22 30 -28c-3 6 -6 13 -9 22l-121 325c-3 8 -6 22 -9 37zM267 607c-29 0 -62 -30 -62 -62c0 -31 34 -61 63 -61s60 29 60 61s-32 62 -61 62zM322 149l-74 201c-7 18 -8 39 -8 45h-7
c0 -6 -3 -26 -11 -45l-84 -201h184zM268 632c43 0 88 -40 88 -87c0 -37 -28 -69 -60 -82v-5v-9c0 -18 5 -40 10 -55l120 -324c19 -47 21 -53 57 -53h15v-17h-179v17h68v2c-14 5 -25 20 -31 37l-24 66h-205l-22 -53c-5 -13 -8 -23 -8 -30c0 -17 15 -22 50 -22h28v-17h-166v17
h11c36 0 37 6 57 53l164 393c-33 13 -60 46 -60 82c0 47 45 87 87 87z" />
    <glyph glyph-name="ae" unicode="&#xe6;" horiz-adv-x="708" 
d="M376 79v297c0 14 -6 24 -14 32l-5 5c1 -11 1 -22 1 -28v-315c0 -8 0 -18 -1 -28l5 4c8 8 14 19 14 33zM9 0v17h15c24 0 39 19 53 53l124 315c6 14 10 37 10 55v10v5h366c16 0 20 -2 27 -9l-3 48l17 1l11 -172h-17c-6 94 -28 105 -122 105h-110v-1c12 -12 22 -29 22 -51
v-131h43c46 0 52 10 52 96h18v-219h-18c0 86 -6 97 -52 97h-43v-140c0 -22 -10 -39 -22 -51v-2h162c94 0 108 11 114 105h17l-11 -172l-18 1l4 49h-1c-7 -7 -10 -9 -26 -9h-363v17h22c47 0 52 6 52 53v70h-199l-28 -71c-3 -8 -4 -14 -4 -20c0 -20 15 -32 46 -32h15v-17h-153
zM143 166h189v192c0 40 -18 62 -52 62h-41c0 -10 -19 -57 -27 -78z" />
    <glyph glyph-name="ccedilla" unicode="&#xe7;" horiz-adv-x="480" 
d="M296 -74c4 -9 6 -20 6 -32c0 -23 -7 -43 -22 -61c24 14 36 33 36 52c0 16 -6 30 -20 41zM106 372c-28 -38 -45 -87 -45 -147c0 -66 23 -121 61 -159c-26 42 -41 101 -41 172c0 53 8 98 25 134zM455 91c-38 -71 -102 -108 -184 -108c-17 0 -33 1 -49 4l-8 -34
c9 4 20 6 33 6c55 0 86 -35 86 -74c0 -55 -69 -95 -156 -95l3 18c58 0 105 36 105 86c0 26 -13 47 -37 47c-15 0 -32 -3 -43 -10l-13 2l13 58c-101 26 -170 113 -170 234c0 149 96 247 225 247c41 0 91 -12 128 -36c8 -6 11 -13 14 -23h3c-2 7 -5 11 -5 25l-1 42l17 1
l8 -157l-25 -1l-1 3c-10 86 -73 120 -138 120c-94 0 -153 -73 -153 -208c0 -149 65 -229 170 -229c65 0 121 33 154 92z" />
    <glyph glyph-name="egrave" unicode="&#xe8;" horiz-adv-x="489" 
d="M17 455h342c16 0 19 -2 26 -9l-3 48l17 1l12 -172h-18c-6 94 -37 105 -131 105h-118v-1c12 -12 22 -29 22 -51v-131h52c46 0 52 10 52 96h18v-219h-18c0 86 -6 97 -52 97h-52v-140c0 -22 -10 -39 -22 -51v-2h162c94 0 125 11 131 105h18l-12 -172l-17 1l3 49
c-7 -7 -10 -9 -26 -9h-386v17h27c47 0 52 6 52 53v315c0 47 -5 52 -52 52h-27v18zM140 79v297c0 14 -6 24 -14 32l-5 5c1 -11 1 -22 1 -28v-315c0 -8 0 -18 -1 -28l5 4c8 8 14 19 14 33zM161 621c3 2 6 3 9 3s6 -2 9 -5l96 -115l-14 -11l-105 82l-12 15c-2 3 -4 5 -4 8
s3 7 6 10z" />
    <glyph glyph-name="eacute" unicode="&#xe9;" horiz-adv-x="489" 
d="M286 604l-42 -49l42 32l9 10zM294 621l15 -13c3 -3 6 -7 6 -10s-2 -5 -4 -8l-12 -15l-105 -82l-14 11l96 115c3 3 6 5 9 5s6 -1 9 -3zM17 455h342c16 0 19 -2 26 -9l-3 48l17 1l12 -172h-18c-6 94 -37 105 -131 105h-118v-1c12 -12 22 -29 22 -51v-131h52
c46 0 52 10 52 96h18v-219h-18c0 86 -6 97 -52 97h-52v-140c0 -22 -10 -39 -22 -51v-2h162c94 0 125 11 131 105h18l-12 -172l-17 1l3 49c-7 -7 -10 -9 -26 -9h-386v17h27c47 0 52 6 52 53v315c0 47 -5 52 -52 52h-27v18zM140 79v297c0 14 -6 24 -14 32l-5 5
c1 -11 1 -22 1 -28v-315c0 -8 0 -18 -1 -28l5 4c8 8 14 19 14 33z" />
    <glyph glyph-name="ecircumflex" unicode="&#xea;" horiz-adv-x="489" 
d="M17 455h342c16 0 19 -2 26 -9l-3 48l17 1l12 -172h-18c-6 94 -37 105 -131 105h-118v-1c12 -12 22 -29 22 -51v-131h52c46 0 52 10 52 96h18v-219h-18c0 86 -6 97 -52 97h-52v-140c0 -22 -10 -39 -22 -51v-2h162c94 0 125 11 131 105h18l-12 -172l-17 1l3 49
c-7 -7 -10 -9 -26 -9h-386v17h27c47 0 52 6 52 53v315c0 47 -5 52 -52 52h-27v18zM140 79v297c0 14 -6 24 -14 32l-5 5c1 -11 1 -22 1 -28v-315c0 -8 0 -18 -1 -28l5 4c8 8 14 19 14 33zM241 624l101 -99l-24 -27l-37 42c-27 31 -49 50 -52 64h-4c-3 -14 -24 -33 -51 -64
l-37 -42l-25 27l101 99h28z" />
    <glyph glyph-name="edieresis" unicode="&#xeb;" horiz-adv-x="489" 
d="M131 572c-13 0 -17 -5 -17 -18s4 -17 17 -17s18 4 18 17s-5 18 -18 18zM323 572c-13 0 -17 -5 -17 -18s4 -17 17 -17s18 4 18 17s-5 18 -18 18zM131 598c26 0 44 -16 44 -44c0 -26 -16 -44 -44 -44c-26 0 -44 16 -44 44c0 26 16 44 44 44zM323 598c26 0 44 -16 44 -44
c0 -26 -16 -44 -44 -44c-26 0 -43 16 -43 44c0 26 15 44 43 44zM17 455h342c16 0 19 -2 26 -9l-3 48l17 1l12 -172h-18c-6 94 -37 105 -131 105h-118v-1c12 -12 22 -29 22 -51v-131h52c46 0 52 10 52 96h18v-219h-18c0 86 -6 97 -52 97h-52v-140c0 -22 -10 -39 -22 -51v-2
h162c94 0 125 11 131 105h18l-12 -172l-17 1l3 49c-7 -7 -10 -9 -26 -9h-386v17h27c47 0 52 6 52 53v315c0 47 -5 52 -52 52h-27v18zM140 79v297c0 14 -6 24 -14 32l-5 5c1 -11 1 -22 1 -28v-315c0 -8 0 -18 -1 -28l5 4c8 8 14 19 14 33z" />
    <glyph glyph-name="igrave" unicode="&#xec;" horiz-adv-x="262" 
d="M17 0v17h27c47 0 52 6 52 53v315c0 47 -5 52 -52 52h-27v18h228v-18h-26c-47 0 -53 -5 -53 -52v-315c0 -47 6 -53 53 -53h26v-17h-228zM118 428c3 -13 4 -34 4 -43v-315c0 -14 -1 -32 -4 -44h27c-3 13 -5 35 -5 44v315c0 14 2 31 5 43h-27zM73 604l-9 -7l9 -10l42 -32z
M65 621c3 2 5 3 8 3s7 -2 10 -5l96 -115l-14 -11l-105 82l-12 15c-2 3 -4 5 -4 8s2 7 5 10z" />
    <glyph glyph-name="iacute" unicode="&#xed;" horiz-adv-x="262" 
d="M17 0v17h27c47 0 52 6 52 53v315c0 47 -5 52 -52 52h-27v18h228v-18h-26c-47 0 -53 -5 -53 -52v-315c0 -47 6 -53 53 -53h26v-17h-228zM118 428c3 -13 4 -34 4 -43v-315c0 -14 -1 -32 -4 -44h27c-3 13 -5 35 -5 44v315c0 14 2 31 5 43h-27zM190 604l-42 -49l42 32l8 10z
M198 621l15 -13c3 -3 6 -7 6 -10s-2 -5 -4 -8l-13 -15l-105 -82l-14 11l97 115c3 3 6 5 9 5s6 -1 9 -3z" />
    <glyph glyph-name="icircumflex" unicode="&#xee;" horiz-adv-x="262" 
d="M17 0v17h27c47 0 52 6 52 53v315c0 47 -5 52 -52 52h-27v18h228v-18h-26c-47 0 -53 -5 -53 -52v-315c0 -47 6 -53 53 -53h26v-17h-228zM118 428c3 -13 4 -34 4 -43v-315c0 -14 -1 -32 -4 -44h27c-3 13 -5 35 -5 44v315c0 14 2 31 5 43h-27zM145 615l92 -98l-24 -27
l-37 41c-27 31 -40 50 -43 64h-4c-3 -14 -15 -33 -42 -64l-38 -41l-24 27l92 98h28z" />
    <glyph glyph-name="idieresis" unicode="&#xef;" horiz-adv-x="262" 
d="M17 0v17h27c47 0 52 6 52 53v315c0 47 -5 52 -52 52h-27v18h228v-18h-26c-47 0 -53 -5 -53 -52v-315c0 -47 6 -53 53 -53h26v-17h-228zM118 428c3 -13 4 -34 4 -43v-315c0 -14 -1 -32 -4 -44h27c-3 13 -5 35 -5 44v315c0 14 2 31 5 43h-27zM61 589c21 0 35 -13 35 -35
c0 -21 -13 -35 -35 -35c-21 0 -35 13 -35 35c0 21 13 35 35 35zM201 589c21 0 35 -13 35 -35c0 -21 -13 -35 -35 -35c-21 0 -35 13 -35 35c0 21 13 35 35 35zM61 563c-8 0 -9 -1 -9 -9s1 -9 9 -9s9 1 9 9s-1 9 -9 9zM201 563c-8 0 -9 -1 -9 -9s1 -9 9 -9s9 1 9 9s-1 9 -9 9z
" />
    <glyph glyph-name="eth" unicode="&#xf0;" horiz-adv-x="524" 
d="M409 83c35 35 54 84 54 144s-19 109 -54 144c21 -37 32 -85 32 -144s-11 -107 -32 -144zM122 428h-4c4 -14 4 -25 4 -43v-315c0 -17 -1 -37 -4 -44h4c5 6 18 24 18 48v306c0 21 -11 43 -18 48zM44 437h-27v18h236c142 0 237 -92 237 -228s-95 -227 -237 -227h-236v17h27
c47 0 52 6 52 53v140h-52l4 43h48v132c0 47 -5 52 -52 52zM149 26h100c108 0 166 70 166 201s-58 201 -166 201h-100v-1c12 -12 17 -25 17 -47v-127h83l-4 -43h-79v-136c0 -22 -5 -34 -17 -46v-2z" />
    <glyph glyph-name="ntilde" unicode="&#xf1;" horiz-adv-x="533" 
d="M17 455h138l234 -320c13 -17 17 -34 17 -37h7c-1 10 -2 25 -2 42v245c0 47 -6 52 -53 52h-26v18h184v-18h-26c-47 0 -53 -5 -53 -52v-394h-30l-261 356c-13 17 -19 35 -19 38h-6c1 -11 1 -24 1 -41v-274c0 -47 6 -53 53 -53h35v-17h-193v17h27c47 0 52 6 52 53v315
c0 47 -5 52 -52 52h-27v18zM149 418c0 -24 1 -29 18 -56l220 -299c-3 29 -5 35 -20 56zM362 530c-7 -3 -14 -6 -23 -6c-29 0 -58 20 -86 40c-30 21 -60 43 -82 43c-9 0 -18 -3 -27 -13c5 3 13 5 20 5c26 0 52 -17 79 -36c32 -23 65 -47 89 -47c11 0 20 3 30 14zM401 572
c-15 -56 -41 -74 -69 -74c-56 0 -125 83 -168 83c-14 0 -26 -8 -32 -31l-8 -30l-26 6l8 30c14 51 39 68 65 68c55 0 123 -82 168 -82c16 0 29 9 36 36l8 30l26 -7z" />
    <glyph glyph-name="ograve" unicode="&#xf2;" 
d="M195 604l-8 -7l8 -10l42 -32zM187 621c3 2 6 3 9 3s6 -2 9 -5l97 -115l-14 -11l-105 82l-13 15c-2 3 -3 5 -3 8s2 7 5 10zM412 94c22 35 34 81 34 133c0 73 -23 133 -64 171c26 -42 44 -107 44 -206c0 -38 -5 -70 -14 -98zM95 361c-22 -35 -34 -82 -34 -134
c0 -73 23 -133 64 -171c-26 42 -44 107 -44 206c0 38 5 71 14 99zM400 192c0 165 -53 254 -150 254c-93 0 -143 -65 -143 -184c0 -165 53 -253 150 -253c93 0 143 64 143 183zM35 227c0 147 87 245 218 245s219 -98 219 -245s-88 -244 -219 -244s-218 97 -218 244z" />
    <glyph glyph-name="oacute" unicode="&#xf3;" 
d="M312 604l-41 -49l41 32l9 10zM320 621l16 -13c3 -3 5 -7 5 -10s-2 -5 -4 -8l-12 -15l-105 -82l-14 11l96 115c3 3 7 5 10 5s5 -1 8 -3zM412 94c22 35 34 81 34 133c0 73 -23 133 -64 171c26 -42 44 -107 44 -206c0 -38 -5 -70 -14 -98zM95 361c-22 -35 -34 -82 -34 -134
c0 -73 23 -133 64 -171c-26 42 -44 107 -44 206c0 38 5 71 14 99zM400 192c0 165 -53 254 -150 254c-93 0 -143 -65 -143 -184c0 -165 53 -253 150 -253c93 0 143 64 143 183zM35 227c0 147 87 245 218 245s219 -98 219 -245s-88 -244 -219 -244s-218 97 -218 244z" />
    <glyph glyph-name="ocircumflex" unicode="&#xf4;" 
d="M412 94c22 35 34 81 34 133c0 73 -23 133 -64 171c26 -42 44 -107 44 -206c0 -38 -5 -70 -14 -98zM95 361c-22 -35 -34 -82 -34 -134c0 -73 23 -133 64 -171c-26 42 -44 107 -44 206c0 38 5 71 14 99zM400 192c0 165 -53 254 -150 254c-93 0 -143 -65 -143 -184
c0 -165 53 -253 150 -253c93 0 143 64 143 183zM35 227c0 147 87 245 218 245s219 -98 219 -245s-88 -244 -219 -244s-218 97 -218 244zM267 624l101 -99l-24 -27l-37 42c-27 31 -48 50 -51 64h-5c-3 -14 -24 -33 -51 -64l-37 -42l-24 27l101 99h27z" />
    <glyph glyph-name="otilde" unicode="&#xf5;" 
d="M401 572c-15 -56 -41 -74 -69 -74c-56 0 -125 83 -168 83c-14 0 -26 -8 -32 -31l-8 -30l-26 6l8 30c14 51 39 68 65 68c55 0 123 -82 168 -82c16 0 29 9 36 36l8 30l26 -7zM412 94c22 35 34 81 34 133c0 73 -23 133 -64 171c26 -42 44 -107 44 -206c0 -38 -5 -70 -14 -98
zM95 361c-22 -35 -34 -82 -34 -134c0 -73 23 -133 64 -171c-26 42 -44 107 -44 206c0 38 5 71 14 99zM400 192c0 165 -53 254 -150 254c-93 0 -143 -65 -143 -184c0 -165 53 -253 150 -253c93 0 143 64 143 183zM35 227c0 147 87 245 218 245s219 -98 219 -245
s-88 -244 -219 -244s-218 97 -218 244zM362 530c-7 -3 -14 -6 -23 -6c-55 0 -126 83 -168 83c-9 0 -18 -3 -27 -13c5 3 13 5 20 5c54 0 124 -83 168 -83c11 0 20 3 30 14z" />
    <glyph glyph-name="odieresis" unicode="&#xf6;" 
d="M157 598c26 0 44 -16 44 -44c0 -26 -16 -44 -44 -44c-26 0 -43 16 -43 44c0 26 15 44 43 44zM350 598c26 0 43 -16 43 -44c0 -26 -15 -44 -43 -44c-26 0 -44 16 -44 44c0 26 16 44 44 44zM412 94c22 35 34 81 34 133c0 73 -23 133 -64 171c26 -42 44 -107 44 -206
c0 -38 -5 -70 -14 -98zM95 361c-22 -35 -34 -82 -34 -134c0 -73 23 -133 64 -171c-26 42 -44 107 -44 206c0 38 5 71 14 99zM400 192c0 165 -53 254 -150 254c-93 0 -143 -65 -143 -184c0 -165 53 -253 150 -253c93 0 143 64 143 183zM35 227c0 147 87 245 218 245
s219 -98 219 -245s-88 -244 -219 -244s-218 97 -218 244zM157 572c-13 0 -17 -5 -17 -18s4 -17 17 -17s18 4 18 17s-5 18 -18 18zM350 572c-13 0 -18 -5 -18 -18s5 -17 18 -17s17 4 17 17s-4 18 -17 18z" />
    <glyph glyph-name="divide" unicode="&#xf7;" horiz-adv-x="441" 
d="M223 135c26 0 44 -15 44 -43c0 -26 -16 -44 -44 -44c-26 0 -44 16 -44 44c0 26 16 43 44 43zM223 398c26 0 44 -16 44 -44c0 -26 -16 -44 -44 -44c-26 0 -44 16 -44 44c0 26 16 44 44 44zM223 109c-13 0 -18 -4 -18 -17s5 -18 18 -18s17 5 17 18s-4 17 -17 17zM223 372
c-13 0 -18 -5 -18 -18s5 -17 18 -17s17 4 17 17s-4 18 -17 18zM402 205h-367l4 35h367z" />
    <glyph glyph-name="oslash" unicode="&#xf8;" horiz-adv-x="489" 
d="M395 94c22 35 33 81 33 133c0 73 -23 133 -64 171c26 -42 45 -107 45 -206c0 -38 -5 -70 -14 -98zM95 361c-22 -35 -34 -82 -34 -134c0 -73 23 -133 64 -171c-26 42 -44 107 -44 206c0 38 5 71 14 99zM80 -17l-21 16l37 50c-39 42 -61 104 -61 178c0 144 84 241 210 241
c51 0 94 -16 129 -44l35 47l21 -16l-37 -49c39 -42 62 -105 62 -179c0 -144 -84 -240 -210 -240c-51 0 -95 16 -130 44zM146 72c24 -39 58 -59 102 -59c87 0 134 63 134 179c0 68 -8 123 -25 164zM133 98l211 284c-24 39 -59 59 -103 59c-87 0 -134 -63 -134 -179
c0 -68 9 -123 26 -164z" />
    <glyph glyph-name="ugrave" unicode="&#xf9;" horiz-adv-x="524" 
d="M17 455h219v-18h-26c-47 0 -53 -5 -53 -52v-254c0 -80 39 -122 110 -122c87 0 144 59 144 148v228c0 47 -6 52 -53 52h-26v18h175v-18h-19c-47 0 -51 -5 -51 -52v-228c0 -105 -68 -174 -170 -174c-108 0 -180 69 -180 174v228c0 47 -5 52 -52 52h-18v18zM136 428h-27
c3 -13 5 -31 5 -43v-228c0 -36 9 -67 27 -91c-7 19 -10 40 -10 65v254c0 14 2 31 5 43zM217 604l-9 -7l9 -10l42 -32zM209 621c3 2 6 3 9 3s6 -2 9 -5l96 -115l-14 -11l-104 82l-13 15c-2 3 -4 5 -4 8s3 7 6 10z" />
    <glyph glyph-name="uacute" unicode="&#xfa;" horiz-adv-x="524" 
d="M17 455h219v-18h-26c-47 0 -53 -5 -53 -52v-254c0 -80 39 -122 110 -122c87 0 144 59 144 148v228c0 47 -6 52 -53 52h-26v18h175v-18h-19c-47 0 -51 -5 -51 -52v-228c0 -105 -68 -174 -170 -174c-108 0 -180 69 -180 174v228c0 47 -5 52 -52 52h-18v18zM136 428h-27
c3 -13 5 -31 5 -43v-228c0 -36 9 -67 27 -91c-7 19 -10 40 -10 65v254c0 14 2 31 5 43zM334 604l-42 -49l42 32l9 10zM342 621l16 -13c3 -3 5 -7 5 -10s-2 -5 -4 -8l-12 -15l-105 -82l-14 11l96 115c3 3 6 5 9 5s6 -1 9 -3z" />
    <glyph glyph-name="ucircumflex" unicode="&#xfb;" horiz-adv-x="524" 
d="M17 455h219v-18h-26c-47 0 -53 -5 -53 -52v-254c0 -80 39 -122 110 -122c87 0 144 59 144 148v228c0 47 -6 52 -53 52h-26v18h175v-18h-19c-47 0 -51 -5 -51 -52v-228c0 -105 -68 -174 -170 -174c-108 0 -180 69 -180 174v228c0 47 -5 52 -52 52h-18v18zM136 428h-27
c3 -13 5 -31 5 -43v-228c0 -36 9 -67 27 -91c-7 19 -10 40 -10 65v254c0 14 2 31 5 43zM289 624l101 -99l-24 -27l-37 42c-27 31 -48 50 -51 64h-5c-3 -14 -24 -33 -51 -64l-37 -42l-25 27l101 99h28z" />
    <glyph glyph-name="udieresis" unicode="&#xfc;" horiz-adv-x="524" 
d="M17 455h219v-18h-26c-47 0 -53 -5 -53 -52v-254c0 -80 39 -122 110 -122c87 0 144 59 144 148v228c0 47 -6 52 -53 52h-26v18h175v-18h-19c-47 0 -51 -5 -51 -52v-228c0 -105 -68 -174 -170 -174c-108 0 -180 69 -180 174v228c0 47 -5 52 -52 52h-18v18zM136 428h-27
c3 -13 5 -31 5 -43v-228c0 -36 9 -67 27 -91c-7 19 -10 40 -10 65v254c0 14 2 31 5 43zM179 572c-13 0 -17 -5 -17 -18s4 -17 17 -17s18 4 18 17s-5 18 -18 18zM372 572c-13 0 -18 -5 -18 -18s5 -17 18 -17s17 4 17 17s-4 18 -17 18zM179 598c26 0 44 -16 44 -44
c0 -26 -16 -44 -44 -44c-26 0 -44 16 -44 44c0 26 16 44 44 44zM372 598c26 0 43 -16 43 -44c0 -26 -15 -44 -43 -44c-26 0 -44 16 -44 44c0 26 16 44 44 44z" />
    <glyph glyph-name="yacute" unicode="&#xfd;" 
d="M167 390l97 -176c5 -9 12 -25 14 -31h2c2 6 8 21 13 31l89 162c10 18 14 31 14 40c0 17 -15 21 -45 21h-37v18h184v-18h-26c-30 0 -33 -12 -60 -61l-119 -217v-89c0 -47 5 -53 52 -53h35v-17h-245v17h35c47 0 53 6 53 53v70l-128 238c-24 45 -27 59 -63 59h-23v18h178
v-18h-59v-2c14 -5 23 -16 39 -45zM143 378c-18 33 -21 32 -39 39l14 -28l131 -242v-77c0 -14 -2 -32 -5 -44h27c-3 13 -4 30 -4 44v84zM317 604l-42 -49l42 32l8 10zM325 621l15 -13c3 -3 5 -7 5 -10s-1 -5 -3 -8l-13 -15l-105 -82l-14 11l96 115c3 3 7 5 10 5s6 -1 9 -3z
" />
    <glyph glyph-name="thorn" unicode="&#xfe;" horiz-adv-x="472" 
d="M140 402c0 20 -17 27 -21 29c3 -15 3 -30 3 -38v-323c0 -14 -1 -32 -4 -44h27c-3 13 -5 31 -5 44v332zM375 156c28 21 45 50 45 84s-17 64 -45 85c14 -23 23 -52 23 -85s-9 -61 -23 -84zM166 350v-219h92c74 0 114 38 114 109s-40 110 -114 110h-92zM166 376h96
c110 0 184 -55 184 -136s-74 -135 -184 -135h-96v-35c0 -47 6 -53 53 -53h34v-17h-236v17h27c47 0 52 6 52 53v315c0 47 -5 52 -52 52h-27v18h206v-18h-66v-2c7 -7 9 -10 9 -26v-33z" />
    <glyph glyph-name="ydieresis" unicode="&#xff;" 
d="M167 390l97 -176c5 -9 12 -25 14 -31h2c2 6 8 21 13 31l89 162c10 18 14 31 14 40c0 17 -15 21 -45 21h-37v18h184v-18h-26c-30 0 -33 -12 -60 -61l-119 -217v-89c0 -47 5 -53 52 -53h35v-17h-245v17h35c47 0 53 6 53 53v70l-128 238c-24 45 -27 59 -63 59h-23v18h178
v-18h-59v-2c14 -5 23 -16 39 -45zM143 378c-18 33 -21 32 -39 39l14 -28l131 -242v-77c0 -14 -2 -32 -5 -44h27c-3 13 -4 30 -4 44v84zM162 572c-13 0 -18 -5 -18 -18s5 -17 18 -17s17 4 17 17s-4 18 -17 18zM354 572c-13 0 -17 -5 -17 -18s4 -17 17 -17s18 4 18 17
s-5 18 -18 18zM162 598c26 0 43 -16 43 -44c0 -26 -15 -44 -43 -44c-26 0 -44 16 -44 44c0 26 16 44 44 44zM354 598c26 0 44 -16 44 -44c0 -26 -16 -44 -44 -44c-26 0 -44 16 -44 44c0 26 16 44 44 44z" />
    <glyph glyph-name="Amacron" unicode="&#x100;" 
d="M9 0v17h11c36 0 37 6 57 53l164 393h55v-5v-9c0 -18 5 -40 10 -55l120 -324c19 -47 21 -53 57 -53h15v-17h-179v17h68v2c-14 5 -25 20 -31 37l-24 66h-205l-22 -53c-5 -13 -8 -23 -8 -30c0 -17 15 -22 50 -22h28v-17h-166zM322 149l-74 201c-6 15 -8 31 -8 39v4v2h-7v-2
v-2c0 -7 -4 -24 -11 -41l-84 -201h184zM267 421c0 -10 -1 -18 -1 -25c0 -11 0 -22 6 -37l109 -293c8 -21 16 -26 30 -32c-3 6 -6 17 -9 26l-121 325c-3 8 -6 22 -9 37zM396 533h-269l2 26h269z" />
    <glyph glyph-name="amacron" unicode="&#x101;" 
d="M9 0v17h11c36 0 37 6 57 53l164 393h55v-5v-9c0 -18 5 -40 10 -55l120 -324c19 -47 21 -53 57 -53h15v-17h-179v17h68v2c-14 5 -25 20 -31 37l-24 66h-205l-22 -53c-5 -13 -8 -23 -8 -30c0 -17 15 -22 50 -22h28v-17h-166zM322 149l-74 201c-6 15 -8 31 -8 39v4v2h-7v-2
v-2c0 -7 -4 -24 -11 -41l-84 -201h184zM267 421c0 -10 -1 -18 -1 -25c0 -11 0 -22 6 -37l109 -293c8 -21 16 -26 30 -32c-3 6 -6 17 -9 26l-121 325c-3 8 -6 22 -9 37zM396 533h-269l2 26h269z" />
    <glyph glyph-name="Abreve" unicode="&#x102;" 
d="M9 0v17h11c36 0 37 6 57 53l164 393h55v-5v-9c0 -18 5 -40 10 -55l120 -324c19 -47 21 -53 57 -53h15v-17h-179v17h68v2c-14 5 -25 20 -31 37l-24 66h-205l-22 -53c-5 -13 -8 -23 -8 -30c0 -17 15 -22 50 -22h28v-17h-166zM322 149l-74 201c-6 15 -8 31 -8 39v4v2h-7v-2
v-2c0 -7 -4 -24 -11 -41l-84 -201h184zM267 421c0 -10 -1 -18 -1 -25c0 -11 0 -22 6 -37l109 -293c8 -21 16 -26 30 -32c-3 6 -6 17 -9 26l-121 325c-3 8 -6 22 -9 37zM192 548c23 -22 47 -33 70 -33s48 11 72 33c-21 -14 -46 -23 -72 -23c-23 0 -46 6 -70 23zM122 615l22 9
c42 -61 80 -82 118 -82c45 0 89 32 123 82l17 -9c-34 -75 -87 -117 -140 -117c-49 0 -98 37 -140 117z" />
    <glyph glyph-name="abreve" unicode="&#x103;" 
d="M9 0v17h11c36 0 37 6 57 53l164 393h55v-5v-9c0 -18 5 -40 10 -55l120 -324c19 -47 21 -53 57 -53h15v-17h-179v17h68v2c-14 5 -25 20 -31 37l-24 66h-205l-22 -53c-5 -13 -8 -23 -8 -30c0 -17 15 -22 50 -22h28v-17h-166zM322 149l-74 201c-6 15 -8 31 -8 39v4v2h-7v-2
v-2c0 -7 -4 -24 -11 -41l-84 -201h184zM267 421c0 -10 -1 -18 -1 -25c0 -11 0 -22 6 -37l109 -293c8 -21 16 -26 30 -32c-3 6 -6 17 -9 26l-121 325c-3 8 -6 22 -9 37zM192 548c23 -22 47 -33 70 -33s48 11 72 33c-21 -14 -46 -23 -72 -23c-23 0 -46 6 -70 23zM122 615l22 9
c42 -61 80 -82 118 -82c45 0 89 32 123 82l17 -9c-34 -75 -87 -117 -140 -117c-49 0 -98 37 -140 117z" />
    <glyph glyph-name="Aogonek" unicode="&#x104;" 
d="M338 -59c-17 -17 -25 -36 -25 -56c0 -18 7 -36 32 -43c-11 10 -19 26 -19 47c0 17 4 35 12 52zM267 421l-1 -25c0 -12 1 -23 6 -37l112 -302c8 -21 16 -30 33 -32c-3 6 -12 26 -15 35l-121 325c-3 8 -6 22 -9 37zM322 149l-74 201c-7 18 -8 38 -8 45h-7
c0 -7 -4 -27 -11 -45l-84 -201h184zM9 0v17h11c36 0 37 6 57 53l164 393h55v-5v-9c0 -18 5 -40 10 -55l120 -324c19 -47 21 -53 57 -53h15v-17l-61 -1c-57 -12 -93 -64 -93 -110c0 -32 17 -42 38 -42c19 0 41 10 53 13l7 -26c-29 -8 -52 -13 -71 -13c-57 0 -76 33 -76 64
c0 45 37 83 93 113v4c-12 5 -21 20 -27 37l-29 83h-205l-22 -53c-5 -13 -8 -23 -8 -30c0 -17 15 -22 50 -22h28v-17h-166z" />
    <glyph glyph-name="aogonek" unicode="&#x105;" 
d="M338 -59c-17 -17 -25 -36 -25 -56c0 -18 7 -36 32 -43c-11 10 -19 26 -19 47c0 17 4 35 12 52zM267 421l-1 -25c0 -12 1 -23 6 -37l112 -302c8 -21 16 -30 33 -32c-3 6 -12 26 -15 35l-121 325c-3 8 -6 22 -9 37zM322 149l-74 201c-7 18 -8 38 -8 45h-7
c0 -7 -4 -27 -11 -45l-84 -201h184zM9 0v17h11c36 0 37 6 57 53l164 393h55v-5v-9c0 -18 5 -40 10 -55l120 -324c19 -47 21 -53 57 -53h15v-17l-61 -1c-57 -12 -93 -64 -93 -110c0 -32 17 -42 38 -42c19 0 41 10 53 13l7 -26c-29 -8 -52 -13 -71 -13c-57 0 -76 33 -76 64
c0 45 37 83 93 113v4c-12 5 -21 20 -27 37l-29 83h-205l-22 -53c-5 -13 -8 -23 -8 -30c0 -17 15 -22 50 -22h28v-17h-166z" />
    <glyph glyph-name="Cacute" unicode="&#x106;" horiz-adv-x="480" 
d="M312 604l-41 -49l41 32l9 10zM320 621l16 -13c3 -3 5 -7 5 -10s-2 -5 -4 -8l-12 -15l-105 -82l-14 11l96 115c3 3 7 5 10 5s5 -1 8 -3zM106 372c-28 -38 -45 -87 -45 -147c0 -66 23 -121 61 -159c-26 42 -41 101 -41 172c0 53 8 98 25 134zM455 91
c-38 -71 -102 -108 -184 -108c-136 0 -236 97 -236 242c0 149 96 247 225 247c41 0 91 -12 128 -36c8 -6 11 -13 14 -23h3c-2 7 -5 11 -5 25l-1 42l17 1l8 -157l-25 -1l-1 3c-10 86 -73 120 -138 120c-94 0 -153 -73 -153 -208c0 -149 65 -229 170 -229c65 0 121 33 154 92z
" />
    <glyph glyph-name="cacute" unicode="&#x107;" horiz-adv-x="480" 
d="M312 604l-41 -49l41 32l9 10zM320 621l16 -13c3 -3 5 -7 5 -10s-2 -5 -4 -8l-12 -15l-105 -82l-14 11l96 115c3 3 7 5 10 5s5 -1 8 -3zM106 372c-28 -38 -45 -87 -45 -147c0 -66 23 -121 61 -159c-26 42 -41 101 -41 172c0 53 8 98 25 134zM455 91
c-38 -71 -102 -108 -184 -108c-136 0 -236 97 -236 242c0 149 96 247 225 247c41 0 91 -12 128 -36c8 -6 11 -13 14 -23h3c-2 7 -5 11 -5 25l-1 42l17 1l8 -157l-25 -1l-1 3c-10 86 -73 120 -138 120c-94 0 -153 -73 -153 -208c0 -149 65 -229 170 -229c65 0 121 33 154 92z
" />
    <glyph glyph-name="Ccircumflex" unicode="&#x108;" horiz-adv-x="480" 
d="M106 372c-28 -38 -45 -87 -45 -147c0 -66 23 -121 61 -159c-26 42 -41 101 -41 172c0 53 8 98 25 134zM455 91c-38 -71 -102 -108 -184 -108c-136 0 -236 97 -236 242c0 149 96 247 225 247c41 0 91 -12 128 -36c8 -6 11 -13 14 -23h3c-2 7 -5 11 -5 25l-1 42l17 1
l8 -157l-25 -1l-1 3c-10 86 -73 120 -138 120c-94 0 -153 -73 -153 -208c0 -149 65 -229 170 -229c65 0 121 33 154 92zM267 624l101 -99l-24 -27l-37 42c-27 31 -48 50 -51 64h-5c-3 -14 -24 -33 -51 -64l-37 -42l-24 27l101 99h27z" />
    <glyph glyph-name="ccircumflex" unicode="&#x109;" horiz-adv-x="480" 
d="M106 372c-28 -38 -45 -87 -45 -147c0 -66 23 -121 61 -159c-26 42 -41 101 -41 172c0 53 8 98 25 134zM455 91c-38 -71 -102 -108 -184 -108c-136 0 -236 97 -236 242c0 149 96 247 225 247c41 0 91 -12 128 -36c8 -6 11 -13 14 -23h3c-2 7 -5 11 -5 25l-1 42l17 1
l8 -157l-25 -1l-1 3c-10 86 -73 120 -138 120c-94 0 -153 -73 -153 -208c0 -149 65 -229 170 -229c65 0 121 33 154 92zM267 624l101 -99l-24 -27l-37 42c-27 31 -48 50 -51 64h-5c-3 -14 -24 -33 -51 -64l-37 -42l-24 27l101 99h27z" />
    <glyph glyph-name="Cdotaccent" unicode="&#x10a;" horiz-adv-x="480" 
d="M253 615c26 0 44 -15 44 -43c0 -26 -16 -44 -44 -44c-26 0 -43 16 -43 44c0 26 15 43 43 43zM253 589c-13 0 -17 -4 -17 -17s4 -18 17 -18s18 5 18 18s-5 17 -18 17zM106 372c-28 -38 -45 -87 -45 -147c0 -66 23 -121 61 -159c-26 42 -41 101 -41 172c0 53 8 98 25 134z
M455 91c-38 -71 -102 -108 -184 -108c-136 0 -236 97 -236 242c0 149 96 247 225 247c41 0 91 -12 128 -36c8 -6 11 -13 14 -23h3c-2 7 -5 11 -5 25l-1 42l17 1l8 -157l-25 -1l-1 3c-10 86 -73 120 -138 120c-94 0 -153 -73 -153 -208c0 -149 65 -229 170 -229
c65 0 121 33 154 92z" />
    <glyph glyph-name="cdotaccent" unicode="&#x10b;" horiz-adv-x="480" 
d="M253 615c26 0 44 -15 44 -43c0 -26 -16 -44 -44 -44c-26 0 -43 16 -43 44c0 26 15 43 43 43zM253 589c-13 0 -17 -4 -17 -17s4 -18 17 -18s18 5 18 18s-5 17 -18 17zM106 372c-28 -38 -45 -87 -45 -147c0 -66 23 -121 61 -159c-26 42 -41 101 -41 172c0 53 8 98 25 134z
M455 91c-38 -71 -102 -108 -184 -108c-136 0 -236 97 -236 242c0 149 96 247 225 247c41 0 91 -12 128 -36c8 -6 11 -13 14 -23h3c-2 7 -5 11 -5 25l-1 42l17 1l8 -157l-25 -1l-1 3c-10 86 -73 120 -138 120c-94 0 -153 -73 -153 -208c0 -149 65 -229 170 -229
c65 0 121 33 154 92z" />
    <glyph glyph-name="Ccaron" unicode="&#x10c;" horiz-adv-x="480" 
d="M106 372c-28 -38 -45 -87 -45 -147c0 -66 23 -121 61 -159c-26 42 -41 101 -41 172c0 53 8 98 25 134zM455 91c-38 -71 -102 -108 -184 -108c-136 0 -236 97 -236 242c0 149 96 247 225 247c41 0 91 -12 128 -36c8 -6 11 -13 14 -23h3c-2 7 -5 11 -5 25l-1 42l17 1
l8 -157l-25 -1l-1 3c-10 86 -73 120 -138 120c-94 0 -153 -73 -153 -208c0 -149 65 -229 170 -229c65 0 121 33 154 92zM267 498h-27l-101 99l24 27l37 -42c28 -30 48 -49 51 -63h5c3 14 23 33 51 63l37 42l24 -27z" />
    <glyph glyph-name="ccaron" unicode="&#x10d;" horiz-adv-x="480" 
d="M106 372c-28 -38 -45 -87 -45 -147c0 -66 23 -121 61 -159c-26 42 -41 101 -41 172c0 53 8 98 25 134zM455 91c-38 -71 -102 -108 -184 -108c-136 0 -236 97 -236 242c0 149 96 247 225 247c41 0 91 -12 128 -36c8 -6 11 -13 14 -23h3c-2 7 -5 11 -5 25l-1 42l17 1
l8 -157l-25 -1l-1 3c-10 86 -73 120 -138 120c-94 0 -153 -73 -153 -208c0 -149 65 -229 170 -229c65 0 121 33 154 92zM267 498h-27l-101 99l24 27l37 -42c28 -30 48 -49 51 -63h5c3 14 23 33 51 63l37 42l24 -27z" />
    <glyph glyph-name="Dcaron" unicode="&#x10e;" horiz-adv-x="524" 
d="M149 26h100c108 0 166 70 166 201s-58 201 -166 201h-100v-1c12 -12 17 -25 17 -47v-306c0 -22 -5 -34 -17 -46v-2zM44 437h-27v18h236c142 0 237 -92 237 -228s-95 -227 -237 -227h-236v17h27c47 0 52 6 52 53v315c0 47 -5 52 -52 52zM409 83c35 35 54 84 54 144
s-19 109 -54 144c21 -37 32 -85 32 -144s-11 -107 -32 -144zM122 428h-4c4 -16 4 -29 4 -43v-315c0 -17 0 -32 -4 -44h4c3 9 18 19 18 48v306c0 35 -15 42 -18 48zM263 498h-28l-101 99l25 27l37 -42c28 -30 48 -49 51 -63h4c3 14 23 33 51 63l38 42l24 -27z" />
    <glyph glyph-name="dcaron" unicode="&#x10f;" horiz-adv-x="524" 
d="M149 26h100c108 0 166 70 166 201s-58 201 -166 201h-100v-1c12 -12 17 -25 17 -47v-306c0 -22 -5 -34 -17 -46v-2zM44 437h-27v18h236c142 0 237 -92 237 -228s-95 -227 -237 -227h-236v17h27c47 0 52 6 52 53v315c0 47 -5 52 -52 52zM409 83c35 35 54 84 54 144
s-19 109 -54 144c21 -37 32 -85 32 -144s-11 -107 -32 -144zM122 428h-4c4 -16 4 -29 4 -43v-315c0 -17 0 -32 -4 -44h4c3 9 18 19 18 48v306c0 35 -15 42 -18 48zM263 498h-28l-101 99l25 27l37 -42c28 -30 48 -49 51 -63h4c3 14 23 33 51 63l38 42l24 -27z" />
    <glyph glyph-name="Dcroat" unicode="&#x110;" horiz-adv-x="533" 
d="M409 83c35 35 54 84 54 144s-19 109 -54 144c21 -37 32 -85 32 -144s-11 -107 -32 -144zM122 428h-4c4 -11 4 -29 4 -43v-315c0 -17 0 -32 -4 -44h4c6 6 18 24 18 48v306c0 25 -14 45 -18 48zM44 437h-27v18h236c142 0 237 -92 237 -228s-95 -227 -237 -227h-236v17h27
c47 0 52 6 52 53v140h-52l4 43h48v132c0 47 -5 52 -52 52zM149 26h100c108 0 166 70 166 201s-58 201 -166 201h-100v-1c12 -12 17 -25 17 -47v-127h83l-4 -43h-79v-136c0 -22 -5 -34 -17 -46v-2z" />
    <glyph glyph-name="dcroat" unicode="&#x111;" horiz-adv-x="533" 
d="M409 83c35 35 54 84 54 144s-19 109 -54 144c21 -37 32 -85 32 -144s-11 -107 -32 -144zM122 428h-4c4 -11 4 -29 4 -43v-315c0 -17 0 -32 -4 -44h4c6 6 18 24 18 48v306c0 25 -14 45 -18 48zM44 437h-27v18h236c142 0 237 -92 237 -228s-95 -227 -237 -227h-236v17h27
c47 0 52 6 52 53v140h-52l4 43h48v132c0 47 -5 52 -52 52zM149 26h100c108 0 166 70 166 201s-58 201 -166 201h-100v-1c12 -12 17 -25 17 -47v-127h83l-4 -43h-79v-136c0 -22 -5 -34 -17 -46v-2z" />
    <glyph glyph-name="Emacron" unicode="&#x112;" horiz-adv-x="489" 
d="M17 455h342c16 0 19 -2 26 -9l-3 48l17 1l12 -172h-18c-6 94 -37 105 -131 105h-118v-1c12 -12 22 -29 22 -51v-131h52c46 0 52 10 52 96h18v-219h-18c0 86 -6 97 -52 97h-52v-140c0 -22 -10 -39 -22 -51v-2h162c94 0 125 11 131 105h18l-12 -172l-17 1l3 49
c-7 -7 -10 -9 -26 -9h-386v17h27c47 0 52 6 52 53v315c0 47 -5 52 -52 52h-27v18zM140 79v297c0 14 -6 24 -14 32l-5 5c1 -11 1 -22 1 -28v-315c0 -8 0 -18 -1 -28l5 4c8 8 14 19 14 33zM361 533h-269l2 26h269z" />
    <glyph glyph-name="emacron" unicode="&#x113;" horiz-adv-x="489" 
d="M17 455h342c16 0 19 -2 26 -9l-3 48l17 1l12 -172h-18c-6 94 -37 105 -131 105h-118v-1c12 -12 22 -29 22 -51v-131h52c46 0 52 10 52 96h18v-219h-18c0 86 -6 97 -52 97h-52v-140c0 -22 -10 -39 -22 -51v-2h162c94 0 125 11 131 105h18l-12 -172l-17 1l3 49
c-7 -7 -10 -9 -26 -9h-386v17h27c47 0 52 6 52 53v315c0 47 -5 52 -52 52h-27v18zM140 79v297c0 14 -6 24 -14 32l-5 5c1 -11 1 -22 1 -28v-315c0 -8 0 -18 -1 -28l5 4c8 8 14 19 14 33zM361 533h-269l2 26h269z" />
    <glyph glyph-name="Ebreve" unicode="&#x114;" horiz-adv-x="489" 
d="M157 548c23 -22 47 -33 70 -33s48 11 72 33c-21 -14 -46 -23 -72 -23c-23 0 -46 6 -70 23zM17 455h342c16 0 19 -2 26 -9l-3 48l17 1l12 -172h-18c-6 94 -37 105 -131 105h-118v-1c12 -12 22 -29 22 -51v-131h52c46 0 52 10 52 96h18v-219h-18c0 86 -6 97 -52 97h-52
v-140c0 -22 -10 -39 -22 -51v-2h162c94 0 125 11 131 105h18l-12 -172l-17 1l3 49c-7 -7 -10 -9 -26 -9h-386v17h27c47 0 52 6 52 53v315c0 47 -5 52 -52 52h-27v18zM140 79v297c0 14 -6 24 -14 32l-5 5c1 -11 1 -22 1 -28v-315c0 -8 0 -18 -1 -28l5 4c8 8 14 19 14 33z
M87 615l22 9c42 -61 80 -82 118 -82c45 0 89 32 123 82l17 -9c-34 -75 -87 -117 -140 -117c-49 0 -98 37 -140 117z" />
    <glyph glyph-name="ebreve" unicode="&#x115;" horiz-adv-x="489" 
d="M157 548c23 -22 47 -33 70 -33s48 11 72 33c-21 -14 -46 -23 -72 -23c-23 0 -46 6 -70 23zM17 455h342c16 0 19 -2 26 -9l-3 48l17 1l12 -172h-18c-6 94 -37 105 -131 105h-118v-1c12 -12 22 -29 22 -51v-131h52c46 0 52 10 52 96h18v-219h-18c0 86 -6 97 -52 97h-52
v-140c0 -22 -10 -39 -22 -51v-2h162c94 0 125 11 131 105h18l-12 -172l-17 1l3 49c-7 -7 -10 -9 -26 -9h-386v17h27c47 0 52 6 52 53v315c0 47 -5 52 -52 52h-27v18zM140 79v297c0 14 -6 24 -14 32l-5 5c1 -11 1 -22 1 -28v-315c0 -8 0 -18 -1 -28l5 4c8 8 14 19 14 33z
M87 615l22 9c42 -61 80 -82 118 -82c45 0 89 32 123 82l17 -9c-34 -75 -87 -117 -140 -117c-49 0 -98 37 -140 117z" />
    <glyph glyph-name="Edotaccent" unicode="&#x116;" horiz-adv-x="489" 
d="M227 615c26 0 44 -15 44 -43c0 -26 -16 -44 -44 -44c-26 0 -43 16 -43 44c0 26 15 43 43 43zM227 589c-13 0 -17 -4 -17 -17s4 -18 17 -18s18 5 18 18s-5 17 -18 17zM17 455h342c16 0 19 -2 26 -9l-3 48l17 1l12 -172h-18c-6 94 -37 105 -131 105h-118v-1
c12 -12 22 -29 22 -51v-131h52c46 0 52 10 52 96h18v-219h-18c0 86 -6 97 -52 97h-52v-140c0 -22 -10 -39 -22 -51v-2h162c94 0 125 11 131 105h18l-12 -172l-17 1l3 49c-7 -7 -10 -9 -26 -9h-386v17h27c47 0 52 6 52 53v315c0 47 -5 52 -52 52h-27v18zM140 79v297
c0 14 -6 24 -14 32l-5 5c1 -11 1 -22 1 -28v-315c0 -8 0 -18 -1 -28l5 4c8 8 14 19 14 33z" />
    <glyph glyph-name="edotaccent" unicode="&#x117;" horiz-adv-x="489" 
d="M227 615c26 0 44 -15 44 -43c0 -26 -16 -44 -44 -44c-26 0 -43 16 -43 44c0 26 15 43 43 43zM227 589c-13 0 -17 -4 -17 -17s4 -18 17 -18s18 5 18 18s-5 17 -18 17zM17 455h342c16 0 19 -2 26 -9l-3 48l17 1l12 -172h-18c-6 94 -37 105 -131 105h-118v-1
c12 -12 22 -29 22 -51v-131h52c46 0 52 10 52 96h18v-219h-18c0 86 -6 97 -52 97h-52v-140c0 -22 -10 -39 -22 -51v-2h162c94 0 125 11 131 105h18l-12 -172l-17 1l3 49c-7 -7 -10 -9 -26 -9h-386v17h27c47 0 52 6 52 53v315c0 47 -5 52 -52 52h-27v18zM140 79v297
c0 14 -6 24 -14 32l-5 5c1 -11 1 -22 1 -28v-315c0 -8 0 -18 -1 -28l5 4c8 8 14 19 14 33z" />
    <glyph glyph-name="Eogonek" unicode="&#x118;" horiz-adv-x="489" 
d="M295 -52c-19 -21 -28 -44 -28 -63c0 -18 7 -36 32 -43c-11 10 -19 26 -19 47c0 19 5 40 15 59zM311 0h-294v17h27c47 0 52 6 52 53v315c0 47 -5 52 -52 52h-27v18h342c16 0 19 -2 26 -9l-3 48l17 1l12 -172h-18c-6 94 -37 105 -131 105h-118v-1c12 -12 22 -29 22 -51
v-131h52c46 0 52 10 52 96h18v-219h-18c0 86 -6 97 -52 97h-52v-140c0 -22 -10 -39 -22 -51v-2h162c94 0 125 11 131 105h18l-10 -141l-17 1l1 18c-7 -7 -10 -9 -26 -9h-12c-57 -12 -94 -65 -94 -111c0 -32 17 -42 38 -42c19 0 42 10 54 13l7 -26c-29 -8 -53 -13 -72 -13
c-57 0 -75 33 -75 64c0 33 22 73 63 101c7 5 19 11 25 13v3c-6 -1 -14 -2 -26 -2zM140 79v297c0 14 -6 24 -14 32l-5 5c1 -11 1 -22 1 -28v-315c0 -8 0 -18 -1 -28l5 4c8 8 14 19 14 33z" />
    <glyph glyph-name="eogonek" unicode="&#x119;" horiz-adv-x="489" 
d="M295 -52c-19 -21 -28 -44 -28 -63c0 -18 7 -36 32 -43c-11 10 -19 26 -19 47c0 19 5 40 15 59zM311 0h-294v17h27c47 0 52 6 52 53v315c0 47 -5 52 -52 52h-27v18h342c16 0 19 -2 26 -9l-3 48l17 1l12 -172h-18c-6 94 -37 105 -131 105h-118v-1c12 -12 22 -29 22 -51
v-131h52c46 0 52 10 52 96h18v-219h-18c0 86 -6 97 -52 97h-52v-140c0 -22 -10 -39 -22 -51v-2h162c94 0 125 11 131 105h18l-10 -141l-17 1l1 18c-7 -7 -10 -9 -26 -9h-12c-57 -12 -94 -65 -94 -111c0 -32 17 -42 38 -42c19 0 42 10 54 13l7 -26c-29 -8 -53 -13 -72 -13
c-57 0 -75 33 -75 64c0 33 22 73 63 101c7 5 19 11 25 13v3c-6 -1 -14 -2 -26 -2zM140 79v297c0 14 -6 24 -14 32l-5 5c1 -11 1 -22 1 -28v-315c0 -8 0 -18 -1 -28l5 4c8 8 14 19 14 33z" />
    <glyph glyph-name="Ecaron" unicode="&#x11a;" horiz-adv-x="489" 
d="M17 455h342c16 0 19 -2 26 -9l-3 48l17 1l12 -172h-18c-6 94 -37 105 -131 105h-118v-1c12 -12 22 -29 22 -51v-131h52c46 0 52 10 52 96h18v-219h-18c0 86 -6 97 -52 97h-52v-140c0 -22 -10 -39 -22 -51v-2h162c94 0 125 11 131 105h18l-12 -172l-17 1l3 49
c-7 -7 -10 -9 -26 -9h-386v17h27c47 0 52 6 52 53v315c0 47 -5 52 -52 52h-27v18zM140 79v297c0 14 -6 24 -14 32l-5 5c1 -11 1 -22 1 -28v-315c0 -8 0 -18 -1 -28l5 4c8 8 14 19 14 33zM241 498h-28l-101 99l25 27l37 -42c28 -30 48 -49 51 -63h4c3 14 24 33 52 63l37 42
l24 -27z" />
    <glyph glyph-name="ecaron" unicode="&#x11b;" horiz-adv-x="489" 
d="M17 455h342c16 0 19 -2 26 -9l-3 48l17 1l12 -172h-18c-6 94 -37 105 -131 105h-118v-1c12 -12 22 -29 22 -51v-131h52c46 0 52 10 52 96h18v-219h-18c0 86 -6 97 -52 97h-52v-140c0 -22 -10 -39 -22 -51v-2h162c94 0 125 11 131 105h18l-12 -172l-17 1l3 49
c-7 -7 -10 -9 -26 -9h-386v17h27c47 0 52 6 52 53v315c0 47 -5 52 -52 52h-27v18zM140 79v297c0 14 -6 24 -14 32l-5 5c1 -11 1 -22 1 -28v-315c0 -8 0 -18 -1 -28l5 4c8 8 14 19 14 33zM241 498h-28l-101 99l25 27l37 -42c28 -30 48 -49 51 -63h4c3 14 24 33 52 63l37 42
l24 -27z" />
    <glyph glyph-name="Gcircumflex" unicode="&#x11c;" horiz-adv-x="541" 
d="M402 76v64c0 47 -5 52 -52 52h-88v18h280v-18h-18c-47 0 -52 -5 -52 -52v-179h-17v41c0 30 -15 46 -30 46c-6 0 -13 -3 -18 -8c-36 -36 -76 -57 -136 -57c-136 0 -236 97 -236 242c0 149 104 247 233 247c41 0 100 -12 137 -36c8 -6 11 -13 14 -23h4c-2 7 -5 11 -5 25
l-2 42l18 1l7 -157l-25 -1v3c-10 86 -83 120 -148 120c-94 0 -161 -73 -161 -208c0 -149 65 -229 170 -229c55 0 94 23 125 67zM424 184c3 -13 4 -32 4 -44v-67h1c6 0 12 -1 17 -3v70c0 12 2 31 5 44h-27zM107 368c-29 -37 -46 -85 -46 -143c0 -66 23 -121 61 -159
c-26 42 -41 101 -41 172c0 52 9 95 26 130zM267 624l101 -99l-24 -27l-37 42c-27 31 -48 50 -51 64h-5c-3 -14 -24 -33 -51 -64l-37 -42l-24 27l101 99h27z" />
    <glyph glyph-name="gcircumflex" unicode="&#x11d;" horiz-adv-x="541" 
d="M402 76v64c0 47 -5 52 -52 52h-88v18h280v-18h-18c-47 0 -52 -5 -52 -52v-179h-17v41c0 30 -15 46 -30 46c-6 0 -13 -3 -18 -8c-36 -36 -76 -57 -136 -57c-136 0 -236 97 -236 242c0 149 104 247 233 247c41 0 100 -12 137 -36c8 -6 11 -13 14 -23h4c-2 7 -5 11 -5 25
l-2 42l18 1l7 -157l-25 -1v3c-10 86 -83 120 -148 120c-94 0 -161 -73 -161 -208c0 -149 65 -229 170 -229c55 0 94 23 125 67zM424 184c3 -13 4 -32 4 -44v-67h1c6 0 12 -1 17 -3v70c0 12 2 31 5 44h-27zM107 368c-29 -37 -46 -85 -46 -143c0 -66 23 -121 61 -159
c-26 42 -41 101 -41 172c0 52 9 95 26 130zM267 624l101 -99l-24 -27l-37 42c-27 31 -48 50 -51 64h-5c-3 -14 -24 -33 -51 -64l-37 -42l-24 27l101 99h27z" />
    <glyph glyph-name="Gbreve" unicode="&#x11e;" horiz-adv-x="541" 
d="M402 76v64c0 47 -5 52 -52 52h-88v18h280v-18h-18c-47 0 -52 -5 -52 -52v-179h-17v41c0 30 -15 46 -30 46c-6 0 -13 -3 -18 -8c-36 -36 -76 -57 -136 -57c-136 0 -236 97 -236 242c0 149 104 247 233 247c41 0 100 -12 137 -36c8 -6 11 -13 14 -23h4c-2 7 -5 11 -5 25
l-2 42l18 1l7 -157l-25 -1v3c-10 86 -83 120 -148 120c-94 0 -161 -73 -161 -208c0 -149 65 -229 170 -229c55 0 94 23 125 67zM424 184c3 -13 4 -32 4 -44v-67h1c6 0 12 -1 17 -3v70c0 12 2 31 5 44h-27zM107 368c-29 -37 -46 -85 -46 -143c0 -66 23 -121 61 -159
c-26 42 -41 101 -41 172c0 52 9 95 26 130zM183 548c23 -22 47 -33 70 -33s49 11 73 33c-21 -14 -47 -23 -73 -23c-23 0 -46 6 -70 23zM114 615l21 9c42 -61 80 -82 118 -82c45 0 89 32 123 82l17 -9c-34 -75 -87 -117 -140 -117c-49 0 -97 37 -139 117z" />
    <glyph glyph-name="gbreve" unicode="&#x11f;" horiz-adv-x="541" 
d="M402 76v64c0 47 -5 52 -52 52h-88v18h280v-18h-18c-47 0 -52 -5 -52 -52v-179h-17v41c0 30 -15 46 -30 46c-6 0 -13 -3 -18 -8c-36 -36 -76 -57 -136 -57c-136 0 -236 97 -236 242c0 149 104 247 233 247c41 0 100 -12 137 -36c8 -6 11 -13 14 -23h4c-2 7 -5 11 -5 25
l-2 42l18 1l7 -157l-25 -1v3c-10 86 -83 120 -148 120c-94 0 -161 -73 -161 -208c0 -149 65 -229 170 -229c55 0 94 23 125 67zM424 184c3 -13 4 -32 4 -44v-67h1c6 0 12 -1 17 -3v70c0 12 2 31 5 44h-27zM107 368c-29 -37 -46 -85 -46 -143c0 -66 23 -121 61 -159
c-26 42 -41 101 -41 172c0 52 9 95 26 130zM183 548c23 -22 47 -33 70 -33s49 11 73 33c-21 -14 -47 -23 -73 -23c-23 0 -46 6 -70 23zM114 615l21 9c42 -61 80 -82 118 -82c45 0 89 32 123 82l17 -9c-34 -75 -87 -117 -140 -117c-49 0 -97 37 -139 117z" />
    <glyph glyph-name="Gdotaccent" unicode="&#x120;" horiz-adv-x="541" 
d="M402 76v64c0 47 -5 52 -52 52h-88v18h280v-18h-18c-47 0 -52 -5 -52 -52v-179h-17v41c0 30 -15 46 -30 46c-6 0 -13 -3 -18 -8c-36 -36 -76 -57 -136 -57c-136 0 -236 97 -236 242c0 149 104 247 233 247c41 0 100 -12 137 -36c8 -6 11 -13 14 -23h4c-2 7 -5 11 -5 25
l-2 42l18 1l7 -157l-25 -1v3c-10 86 -83 120 -148 120c-94 0 -161 -73 -161 -208c0 -149 65 -229 170 -229c55 0 94 23 125 67zM424 184c3 -13 4 -32 4 -44v-67h1c6 0 12 -1 17 -3v70c0 12 2 31 5 44h-27zM107 368c-29 -37 -46 -85 -46 -143c0 -66 23 -121 61 -159
c-26 42 -41 101 -41 172c0 52 9 95 26 130zM253 615c26 0 44 -15 44 -43c0 -26 -16 -44 -44 -44c-26 0 -43 16 -43 44c0 26 15 43 43 43zM253 589c-13 0 -17 -4 -17 -17s4 -18 17 -18s18 5 18 18s-5 17 -18 17z" />
    <glyph glyph-name="gdotaccent" unicode="&#x121;" horiz-adv-x="541" 
d="M402 76v64c0 47 -5 52 -52 52h-88v18h280v-18h-18c-47 0 -52 -5 -52 -52v-179h-17v41c0 30 -15 46 -30 46c-6 0 -13 -3 -18 -8c-36 -36 -76 -57 -136 -57c-136 0 -236 97 -236 242c0 149 104 247 233 247c41 0 100 -12 137 -36c8 -6 11 -13 14 -23h4c-2 7 -5 11 -5 25
l-2 42l18 1l7 -157l-25 -1v3c-10 86 -83 120 -148 120c-94 0 -161 -73 -161 -208c0 -149 65 -229 170 -229c55 0 94 23 125 67zM424 184c3 -13 4 -32 4 -44v-67h1c6 0 12 -1 17 -3v70c0 12 2 31 5 44h-27zM107 368c-29 -37 -46 -85 -46 -143c0 -66 23 -121 61 -159
c-26 42 -41 101 -41 172c0 52 9 95 26 130zM253 615c26 0 44 -15 44 -43c0 -26 -16 -44 -44 -44c-26 0 -43 16 -43 44c0 26 15 43 43 43zM253 589c-13 0 -17 -4 -17 -17s4 -18 17 -18s18 5 18 18s-5 17 -18 17z" />
    <glyph glyph-name="Gcommaaccent" unicode="&#x122;" horiz-adv-x="541" 
d="M402 76v64c0 47 -5 52 -52 52h-88v18h280v-18h-18c-47 0 -52 -5 -52 -52v-179h-17v41c0 30 -15 46 -30 46c-6 0 -13 -3 -18 -8c-36 -36 -76 -57 -136 -57c-136 0 -236 97 -236 242c0 149 104 247 233 247c41 0 100 -12 137 -36c8 -6 11 -13 14 -23h4c-2 7 -5 11 -5 25
l-2 42l18 1l7 -157l-25 -1v3c-10 86 -83 120 -148 120c-94 0 -161 -73 -161 -208c0 -149 65 -229 170 -229c55 0 94 23 125 67zM424 184c3 -13 4 -32 4 -44v-67h1c6 0 12 -1 17 -3v70c0 12 2 31 5 44h-27zM107 368c-29 -37 -46 -85 -46 -143c0 -66 23 -121 61 -159
c-26 42 -41 101 -41 172c0 52 9 95 26 130zM271 -107c-13 0 -18 -6 -18 -17c0 -13 7 -18 18 -18c13 0 17 7 17 18c0 13 -6 17 -17 17zM315 -124c0 -74 -33 -123 -81 -123v17c26 0 47 29 50 49c1 8 4 15 6 18l-3 2c-3 -3 -9 -7 -16 -7c-28 0 -44 16 -44 44s16 44 44 44
c26 0 44 -18 44 -44z" />
    <glyph glyph-name="gcommaaccent" unicode="&#x123;" horiz-adv-x="541" 
d="M402 76v64c0 47 -5 52 -52 52h-88v18h280v-18h-18c-47 0 -52 -5 -52 -52v-179h-17v41c0 30 -15 46 -30 46c-6 0 -13 -3 -18 -8c-36 -36 -76 -57 -136 -57c-136 0 -236 97 -236 242c0 149 104 247 233 247c41 0 100 -12 137 -36c8 -6 11 -13 14 -23h4c-2 7 -5 11 -5 25
l-2 42l18 1l7 -157l-25 -1v3c-10 86 -83 120 -148 120c-94 0 -161 -73 -161 -208c0 -149 65 -229 170 -229c55 0 94 23 125 67zM424 184c3 -13 4 -32 4 -44v-67h1c6 0 12 -1 17 -3v70c0 12 2 31 5 44h-27zM107 368c-29 -37 -46 -85 -46 -143c0 -66 23 -121 61 -159
c-26 42 -41 101 -41 172c0 52 9 95 26 130zM271 -107c-13 0 -18 -6 -18 -17c0 -13 7 -18 18 -18c13 0 17 7 17 18c0 13 -6 17 -17 17zM315 -124c0 -74 -33 -123 -81 -123v17c26 0 47 29 50 49c1 8 4 15 6 18l-3 2c-3 -3 -9 -7 -16 -7c-28 0 -44 16 -44 44s16 44 44 44
c26 0 44 -18 44 -44z" />
    <glyph glyph-name="Hcircumflex" unicode="&#x124;" horiz-adv-x="559" 
d="M166 385v-123h227v123c0 47 -5 52 -52 52h-13v18h214v-18h-26c-47 0 -53 -5 -53 -52v-315c0 -47 6 -53 53 -53h26v-17h-214v17h13c47 0 52 6 52 53v166h-227v-166c0 -47 6 -53 53 -53h15v-17h-217v17h27c47 0 52 6 52 53v315c0 47 -5 52 -52 52h-27v18h217v-18h-15
c-47 0 -53 -5 -53 -52zM140 385c0 14 2 31 5 43h-27c3 -13 4 -34 4 -43v-315c0 -14 -1 -32 -4 -44h27c-3 13 -5 35 -5 44v315zM415 428c3 -13 5 -34 5 -43v-315c0 -12 -1 -33 -5 -44h27c-3 13 -5 35 -5 44v315c0 14 2 31 5 43h-27zM294 624l101 -99l-25 -27l-37 42
c-27 31 -48 50 -51 64h-4c-3 -14 -25 -33 -52 -64l-37 -42l-24 27l101 99h28z" />
    <glyph glyph-name="hcircumflex" unicode="&#x125;" horiz-adv-x="559" 
d="M166 385v-123h227v123c0 47 -5 52 -52 52h-13v18h214v-18h-26c-47 0 -53 -5 -53 -52v-315c0 -47 6 -53 53 -53h26v-17h-214v17h13c47 0 52 6 52 53v166h-227v-166c0 -47 6 -53 53 -53h15v-17h-217v17h27c47 0 52 6 52 53v315c0 47 -5 52 -52 52h-27v18h217v-18h-15
c-47 0 -53 -5 -53 -52zM140 385c0 14 2 31 5 43h-27c3 -13 4 -34 4 -43v-315c0 -14 -1 -32 -4 -44h27c-3 13 -5 35 -5 44v315zM415 428c3 -13 5 -34 5 -43v-315c0 -12 -1 -33 -5 -44h27c-3 13 -5 35 -5 44v315c0 14 2 31 5 43h-27zM294 624l101 -99l-25 -27l-37 42
c-27 31 -48 50 -51 64h-4c-3 -14 -25 -33 -52 -64l-37 -42l-24 27l101 99h28z" />
    <glyph glyph-name="Hbar" unicode="&#x126;" horiz-adv-x="559" 
d="M140 380c0 14 2 32 5 44h-27c3 -13 4 -35 4 -44v-310c0 -14 -1 -32 -4 -44h27c-3 13 -5 31 -5 44v310zM415 424c3 -13 5 -35 5 -44v-310c0 -12 -1 -31 -5 -44h27c-3 13 -5 31 -5 44v310c0 14 2 32 5 44h-27zM52 332v26h44v27c0 47 -5 52 -52 52h-27v18h228v-18h-26
c-47 0 -53 -5 -53 -52v-27h227v27c0 47 -5 52 -52 52h-26v18h227v-18h-26c-47 0 -53 -5 -53 -52v-27h44v-26h-44v-262c0 -47 6 -53 53 -53h26v-17h-227v17h26c47 0 52 6 52 53v166h-227v-166c0 -47 6 -53 53 -53h26v-17h-228v17h27c47 0 52 6 52 53v262h-44zM393 332h-227
v-70h227v70z" />
    <glyph glyph-name="hbar" unicode="&#x127;" horiz-adv-x="559" 
d="M140 380c0 14 2 32 5 44h-27c3 -13 4 -35 4 -44v-310c0 -14 -1 -32 -4 -44h27c-3 13 -5 31 -5 44v310zM415 424c3 -13 5 -35 5 -44v-310c0 -12 -1 -31 -5 -44h27c-3 13 -5 31 -5 44v310c0 14 2 32 5 44h-27zM52 332v26h44v27c0 47 -5 52 -52 52h-27v18h228v-18h-26
c-47 0 -53 -5 -53 -52v-27h227v27c0 47 -5 52 -52 52h-26v18h227v-18h-26c-47 0 -53 -5 -53 -52v-27h44v-26h-44v-262c0 -47 6 -53 53 -53h26v-17h-227v17h26c47 0 52 6 52 53v166h-227v-166c0 -47 6 -53 53 -53h26v-17h-228v17h27c47 0 52 6 52 53v262h-44zM393 332h-227
v-70h227v70z" />
    <glyph glyph-name="Itilde" unicode="&#x128;" horiz-adv-x="262" 
d="M17 0v17h27c47 0 52 6 52 53v315c0 47 -5 52 -52 52h-27v18h228v-18h-26c-47 0 -53 -5 -53 -52v-315c0 -47 6 -53 53 -53h26v-17h-228zM118 428c3 -13 4 -34 4 -43v-315c0 -14 -1 -32 -4 -44h27c-3 13 -5 35 -5 44v315c0 14 2 31 5 43h-27zM239 572
c-15 -56 -32 -74 -60 -74c-56 0 -59 83 -102 83c-14 0 -22 -8 -28 -31l-8 -30l-26 6l8 30c14 51 34 68 60 68c55 0 58 -82 103 -82c16 0 21 9 28 36l8 30l25 -7zM220 555c-5 -14 -17 -27 -35 -27c-52 0 -57 82 -102 82c-16 0 -31 -6 -44 -46c6 17 19 31 38 31
c51 0 59 -83 102 -83c16 0 28 5 41 43z" />
    <glyph glyph-name="itilde" unicode="&#x129;" horiz-adv-x="262" 
d="M17 0v17h27c47 0 52 6 52 53v315c0 47 -5 52 -52 52h-27v18h228v-18h-26c-47 0 -53 -5 -53 -52v-315c0 -47 6 -53 53 -53h26v-17h-228zM118 428c3 -13 4 -34 4 -43v-315c0 -14 -1 -32 -4 -44h27c-3 13 -5 35 -5 44v315c0 14 2 31 5 43h-27zM239 572
c-15 -56 -32 -74 -60 -74c-56 0 -59 83 -102 83c-14 0 -22 -8 -28 -31l-8 -30l-26 6l8 30c14 51 34 68 60 68c55 0 58 -82 103 -82c16 0 21 9 28 36l8 30l25 -7zM220 555c-5 -14 -17 -27 -35 -27c-52 0 -57 82 -102 82c-16 0 -31 -6 -44 -46c6 17 19 31 38 31
c51 0 59 -83 102 -83c16 0 28 5 41 43z" />
    <glyph glyph-name="Imacron" unicode="&#x12a;" horiz-adv-x="262" 
d="M17 0v17h27c47 0 52 6 52 53v315c0 47 -5 52 -52 52h-27v18h228v-18h-26c-47 0 -53 -5 -53 -52v-315c0 -47 6 -53 53 -53h26v-17h-228zM118 428c3 -13 4 -34 4 -43v-315c0 -14 -1 -32 -4 -44h27c-3 13 -5 35 -5 44v315c0 14 2 31 5 43h-27zM46 555h181l-2 -26h-181z" />
    <glyph glyph-name="imacron" unicode="&#x12b;" horiz-adv-x="262" 
d="M17 0v17h27c47 0 52 6 52 53v315c0 47 -5 52 -52 52h-27v18h228v-18h-26c-47 0 -53 -5 -53 -52v-315c0 -47 6 -53 53 -53h26v-17h-228zM118 428c3 -13 4 -34 4 -43v-315c0 -14 -1 -32 -4 -44h27c-3 13 -5 35 -5 44v315c0 14 2 31 5 43h-27zM46 555h181l-2 -26h-181z" />
    <glyph glyph-name="Ibreve" unicode="&#x12c;" horiz-adv-x="262" 
d="M17 0v17h27c47 0 52 6 52 53v315c0 47 -5 52 -52 52h-27v18h228v-18h-26c-47 0 -53 -5 -53 -52v-315c0 -47 6 -53 53 -53h26v-17h-228zM118 428c3 -13 4 -34 4 -43v-315c0 -14 -1 -32 -4 -44h27c-3 13 -5 35 -5 44v315c0 14 2 31 5 43h-27zM19 610l18 8
c33 -55 64 -74 94 -74c36 0 71 29 98 74l14 -8c-27 -67 -70 -106 -112 -106c-39 0 -78 34 -112 106z" />
    <glyph glyph-name="ibreve" unicode="&#x12d;" horiz-adv-x="262" 
d="M17 0v17h27c47 0 52 6 52 53v315c0 47 -5 52 -52 52h-27v18h228v-18h-26c-47 0 -53 -5 -53 -52v-315c0 -47 6 -53 53 -53h26v-17h-228zM118 428c3 -13 4 -34 4 -43v-315c0 -14 -1 -32 -4 -44h27c-3 13 -5 35 -5 44v315c0 14 2 31 5 43h-27zM19 610l18 8
c33 -55 64 -74 94 -74c36 0 71 29 98 74l14 -8c-27 -67 -70 -106 -112 -106c-39 0 -78 34 -112 106z" />
    <glyph glyph-name="Iogonek" unicode="&#x12e;" horiz-adv-x="262" 
d="M108 -52c-19 -21 -29 -44 -29 -63c0 -18 7 -36 32 -43c-11 10 -19 26 -19 47c0 19 6 40 16 59zM118 428c3 -13 4 -34 4 -43v-315c0 -14 -1 -32 -4 -44h27c-3 13 -5 35 -5 44v315c0 14 2 31 5 43h-27zM17 17h27c47 0 52 6 52 53v315c0 47 -5 52 -52 52h-27v18h228v-18h-26
c-47 0 -53 -5 -53 -52v-315c0 -47 6 -53 53 -53h26v-17h-42c-57 -12 -94 -65 -94 -111c0 -32 17 -42 38 -42c19 0 42 10 54 13l7 -26c-29 -8 -53 -13 -72 -13c-57 0 -75 33 -75 64c0 33 23 73 64 101c7 5 18 11 24 13v3c-6 -1 -14 -2 -26 -2h-106v17z" />
    <glyph glyph-name="iogonek" unicode="&#x12f;" horiz-adv-x="262" 
d="M108 -52c-19 -21 -29 -44 -29 -63c0 -18 7 -36 32 -43c-11 10 -19 26 -19 47c0 19 6 40 16 59zM118 428c3 -13 4 -34 4 -43v-315c0 -14 -1 -32 -4 -44h27c-3 13 -5 35 -5 44v315c0 14 2 31 5 43h-27zM17 17h27c47 0 52 6 52 53v315c0 47 -5 52 -52 52h-27v18h228v-18h-26
c-47 0 -53 -5 -53 -52v-315c0 -47 6 -53 53 -53h26v-17h-42c-57 -12 -94 -65 -94 -111c0 -32 17 -42 38 -42c19 0 42 10 54 13l7 -26c-29 -8 -53 -13 -72 -13c-57 0 -75 33 -75 64c0 33 23 73 64 101c7 5 18 11 24 13v3c-6 -1 -14 -2 -26 -2h-106v17z" />
    <glyph glyph-name="Idotaccent" unicode="&#x130;" horiz-adv-x="262" 
d="M17 0v17h27c47 0 52 6 52 53v315c0 47 -5 52 -52 52h-27v18h228v-18h-26c-47 0 -53 -5 -53 -52v-315c0 -47 6 -53 53 -53h26v-17h-228zM118 428c3 -13 4 -34 4 -43v-315c0 -14 -1 -32 -4 -44h27c-3 13 -5 35 -5 44v315c0 14 2 31 5 43h-27z" />
    <glyph glyph-name="dotlessi" unicode="&#x131;" horiz-adv-x="262" 
d="M17 0v17h27c47 0 52 6 52 53v315c0 47 -5 52 -52 52h-27v18h228v-18h-26c-47 0 -53 -5 -53 -52v-315c0 -47 6 -53 53 -53h26v-17h-228zM118 428c3 -13 4 -34 4 -43v-315c0 -14 -1 -32 -4 -44h27c-3 13 -5 35 -5 44v315c0 14 2 31 5 43h-27z" />
    <glyph glyph-name="IJ" unicode="&#x132;" horiz-adv-x="559" 
d="M17 0v17h27c47 0 52 6 52 53v315c0 47 -5 52 -52 52h-27v18h228v-18h-26c-47 0 -53 -5 -53 -52v-315c0 -47 6 -53 53 -53h26v-17h-228zM118 428c3 -13 4 -34 4 -43v-315c0 -14 -1 -32 -4 -44h27c-3 13 -5 35 -5 44v315c0 14 2 31 5 43h-27zM411 409v-339
c0 -17 -2 -34 -7 -51c15 21 24 50 24 86v280c0 14 2 29 10 43h-20c-5 -6 -7 -9 -7 -19zM385 409c0 16 1 19 8 26v2h-96v18h245v-18h-35c-35 0 -52 -17 -52 -52v-280c0 -100 -66 -166 -165 -166c-21 0 -42 4 -57 9l7 28c31 -9 42 -11 58 -11c56 0 87 43 87 105v339z" />
    <glyph glyph-name="ij" unicode="&#x133;" horiz-adv-x="559" 
d="M17 0v17h27c47 0 52 6 52 53v315c0 47 -5 52 -52 52h-27v18h228v-18h-26c-47 0 -53 -5 -53 -52v-315c0 -47 6 -53 53 -53h26v-17h-228zM118 428c3 -13 4 -34 4 -43v-315c0 -14 -1 -32 -4 -44h27c-3 13 -5 35 -5 44v315c0 14 2 31 5 43h-27zM411 409v-339
c0 -17 -2 -34 -7 -51c15 21 24 50 24 86v280c0 14 2 29 10 43h-20c-5 -6 -7 -9 -7 -19zM385 409c0 16 1 19 8 26v2h-96v18h245v-18h-35c-35 0 -52 -17 -52 -52v-280c0 -100 -66 -166 -165 -166c-21 0 -42 4 -57 9l7 28c31 -9 42 -11 58 -11c56 0 87 43 87 105v339z" />
    <glyph glyph-name="Jcircumflex" unicode="&#x134;" horiz-adv-x="332" 
d="M184 409v-295c0 -19 -3 -37 -7 -52c16 23 24 53 24 87v236c0 17 3 31 10 43h-19c-4 -3 -8 -12 -8 -19zM157 409c0 16 2 19 9 26v2h-96v18h245v-18h-35c-35 0 -53 -17 -53 -52v-236c0 -100 -66 -166 -165 -166c-21 0 -41 4 -56 9l7 28c31 -9 41 -11 57 -11
c56 0 87 43 87 105v295zM193 624l101 -99l-24 -27l-37 42c-27 31 -49 50 -52 64h-4c-3 -14 -24 -33 -51 -64l-37 -42l-25 27l101 99h28z" />
    <glyph glyph-name="jcircumflex" unicode="&#x135;" horiz-adv-x="332" 
d="M184 409v-295c0 -19 -3 -37 -7 -52c16 23 24 53 24 87v236c0 17 3 31 10 43h-19c-4 -3 -8 -12 -8 -19zM157 409c0 16 2 19 9 26v2h-96v18h245v-18h-35c-35 0 -53 -17 -53 -52v-236c0 -100 -66 -166 -165 -166c-21 0 -41 4 -56 9l7 28c31 -9 41 -11 57 -11
c56 0 87 43 87 105v295zM193 624l101 -99l-24 -27l-37 42c-27 31 -49 50 -52 64h-4c-3 -14 -24 -33 -51 -64l-37 -42l-25 27l101 99h28z" />
    <glyph glyph-name="Kcommaaccent" unicode="&#x136;" horiz-adv-x="515" 
d="M149 385c0 14 1 31 4 43h-27c3 -13 5 -31 5 -43v-315c0 -17 -3 -32 -10 -44h19c3 6 9 12 9 28v121v64v146zM264 216c21 -26 42 -59 65 -92c98 -141 158 -210 214 -240c-49 41 -103 112 -196 245c-31 44 -49 69 -83 87zM674 -135c28 0 60 9 84 25l9 -15
c-35 -27 -77 -40 -119 -40c-124 0 -186 52 -341 274c-32 45 -60 94 -87 115l-45 -58v-121c0 -16 -2 -19 -9 -26v-2h66v-17h-215v17h35c35 0 53 18 53 53v315c0 47 -6 52 -53 52h-35v18h219v-18h-9c-47 0 -52 -5 -52 -52v-146c0 -15 -2 -31 -3 -34l3 -2c1 3 7 17 17 29
l131 167c25 32 29 32 39 36v2h-37v18h162v-18h-23c-47 0 -83 -7 -124 -59l-95 -122v-3c62 -21 85 -55 123 -109c169 -243 212 -279 306 -279zM279 -89c-13 0 -17 -7 -17 -18c0 -13 6 -17 17 -17c13 0 18 6 18 17c0 13 -7 18 -18 18zM323 -107c0 -74 -32 -123 -80 -123v18
c26 0 47 29 50 49c1 8 4 14 6 17l-4 3c-3 -3 -8 -7 -15 -7c-28 0 -44 15 -44 43s16 44 44 44c26 0 43 -18 43 -44z" />
    <glyph glyph-name="kcommaaccent" unicode="&#x137;" horiz-adv-x="533" 
d="M441 9c-24 18 -42 46 -56 66l-38 54c-29 42 -48 68 -83 87c20 -25 41 -57 65 -92l28 -40c44 -61 61 -75 84 -75zM149 385c0 14 1 31 4 43h-27c3 -13 5 -30 5 -43v-315c0 -17 -3 -32 -10 -44h19c5 5 9 12 9 28v121v64v146zM17 455h219v-18h-9c-47 0 -52 -5 -52 -52v-146
c0 -15 -2 -31 -3 -34l3 -2c1 3 7 17 17 29l131 167c25 32 29 32 39 36v2h-37v18h162v-18h-23c-47 0 -83 -7 -124 -59l-95 -122v-3c62 -21 85 -55 123 -109l38 -54c25 -35 48 -73 87 -73h10l28 5l2 -18c-36 -12 -69 -21 -92 -21c-39 0 -63 27 -105 86l-29 40
c-32 45 -60 94 -87 115l-45 -58v-121c0 -16 -2 -19 -9 -26v-2h66v-17h-215v17h35c35 0 53 18 53 53v315c0 47 -6 52 -53 52h-35v18zM279 -89c-13 0 -17 -7 -17 -18c0 -13 6 -17 17 -17c13 0 18 6 18 17c0 13 -7 18 -18 18zM323 -107c0 -74 -32 -123 -80 -123v18
c26 0 47 29 50 49c1 8 4 14 6 17l-4 3c-3 -3 -8 -7 -15 -7c-28 0 -44 15 -44 43s16 44 44 44c26 0 43 -18 43 -44z" />
    <glyph glyph-name="kgreenlandic" unicode="&#x138;" horiz-adv-x="533" 
d="M441 9c-24 18 -42 46 -56 66l-38 54c-29 42 -48 68 -83 87c20 -25 41 -57 65 -92l28 -40c44 -61 61 -75 84 -75zM149 385c0 14 1 31 4 43h-27c3 -13 5 -34 5 -43v-315c0 -17 -3 -32 -10 -44h19c3 6 9 12 9 28v121v64v146zM105 385c0 47 -6 52 -53 52h-17v18l144 4v-8
c-2 -19 -4 -35 -4 -52v-160c0 -15 -2 -31 -3 -34l3 -2c1 3 7 17 17 29l131 167c25 32 29 32 39 36v2h-46v18h171v-18h-23c-47 0 -83 -7 -124 -59l-95 -122v-3c62 -21 85 -55 123 -109l38 -54c25 -35 48 -73 87 -73h10l28 5l2 -18c-36 -12 -69 -21 -92 -21
c-39 0 -63 27 -105 86l-29 40c-32 45 -60 94 -87 115l-45 -58v-121c0 -16 -2 -19 -9 -26v-2h66v-17h-215v17h35c35 0 53 18 53 53v315z" />
    <glyph glyph-name="Lacute" unicode="&#x139;" horiz-adv-x="463" 
d="M96 70v315c0 47 -5 52 -52 52h-27v18h236v-18h-34c-47 0 -53 -5 -53 -52v-306c0 -22 -10 -39 -22 -51v-2h142c94 0 125 11 131 105l3 39h17l-14 -211l-17 1l3 49c-7 -7 -11 -9 -27 -9h-365v17h27c47 0 52 6 52 53zM118 428c3 -13 4 -30 4 -43v-315c0 -8 0 -18 -1 -28l5 4
c8 8 14 19 14 33v306c0 14 2 31 5 43h-27zM190 604l-42 -49l42 32l8 10zM198 621l15 -13c3 -3 6 -7 6 -10s-2 -5 -4 -8l-13 -15l-105 -82l-14 11l97 115c3 3 6 5 9 5s6 -1 9 -3z" />
    <glyph glyph-name="lacute" unicode="&#x13a;" horiz-adv-x="463" 
d="M96 70v315c0 47 -5 52 -52 52h-27v18h236v-18h-34c-47 0 -53 -5 -53 -52v-306c0 -22 -10 -39 -22 -51v-2h142c94 0 125 11 131 105l3 39h17l-14 -211l-17 1l3 49c-7 -7 -11 -9 -27 -9h-365v17h27c47 0 52 6 52 53zM118 428c3 -13 4 -30 4 -43v-315c0 -8 0 -18 -1 -28l5 4
c8 8 14 19 14 33v306c0 14 2 31 5 43h-27zM190 604l-42 -49l42 32l8 10zM198 621l15 -13c3 -3 6 -7 6 -10s-2 -5 -4 -8l-13 -15l-105 -82l-14 11l97 115c3 3 6 5 9 5s6 -1 9 -3z" />
    <glyph glyph-name="Lcommaaccent" unicode="&#x13b;" horiz-adv-x="463" 
d="M96 70v315c0 47 -5 52 -52 52h-27v18h236v-18h-34c-47 0 -53 -5 -53 -52v-306c0 -22 -10 -39 -22 -51v-2h142c94 0 125 11 131 105l3 39h17l-14 -211l-17 1l3 49c-7 -7 -11 -9 -27 -9h-365v17h27c47 0 52 6 52 53zM118 428c3 -13 4 -30 4 -43v-315c0 -8 0 -18 -1 -28l5 4
c8 8 14 19 14 33v306c0 14 2 31 5 43h-27zM231 -89c-13 0 -17 -7 -17 -18c0 -13 6 -17 17 -17c13 0 18 6 18 17c0 13 -7 18 -18 18zM275 -107c0 -74 -32 -123 -80 -123v18c26 0 47 29 50 49c1 8 4 14 6 17l-4 3c-3 -3 -8 -7 -15 -7c-28 0 -44 15 -44 43s16 44 44 44
c26 0 43 -18 43 -44z" />
    <glyph glyph-name="lcommaaccent" unicode="&#x13c;" horiz-adv-x="463" 
d="M96 70v315c0 47 -5 52 -52 52h-27v18h236v-18h-34c-47 0 -53 -5 -53 -52v-306c0 -22 -10 -39 -22 -51v-2h142c94 0 125 11 131 105l3 39h17l-14 -211l-17 1l3 49c-7 -7 -11 -9 -27 -9h-365v17h27c47 0 52 6 52 53zM118 428c3 -13 4 -30 4 -43v-315c0 -8 0 -18 -1 -28l5 4
c8 8 14 19 14 33v306c0 14 2 31 5 43h-27zM231 -89c-13 0 -17 -7 -17 -18c0 -13 6 -17 17 -17c13 0 18 6 18 17c0 13 -7 18 -18 18zM275 -107c0 -74 -32 -123 -80 -123v18c26 0 47 29 50 49c1 8 4 14 6 17l-4 3c-3 -3 -8 -7 -15 -7c-28 0 -44 15 -44 43s16 44 44 44
c26 0 43 -18 43 -44z" />
    <glyph glyph-name="Lcaron" unicode="&#x13d;" horiz-adv-x="463" 
d="M96 70v315c0 47 -5 52 -52 52h-27v18h236v-18h-34c-47 0 -53 -5 -53 -52v-306c0 -22 -10 -39 -22 -51v-2h142c94 0 125 11 131 105l3 39h17l-14 -211l-17 1l3 49c-7 -7 -11 -9 -27 -9h-365v17h27c47 0 52 6 52 53zM118 428c3 -13 4 -30 4 -43v-315c0 -8 0 -18 -1 -28l5 4
c8 8 14 19 14 33v306c0 14 2 31 5 43h-27zM383 428c-13 0 -17 -6 -17 -17c0 -13 6 -18 17 -18c13 0 18 7 18 18c0 13 -7 17 -18 17zM427 411c0 -74 -32 -123 -80 -123v18c26 0 47 28 50 48c1 8 4 15 6 18l-4 3c-3 -3 -8 -7 -15 -7c-28 0 -44 15 -44 43s16 44 44 44
c26 0 43 -18 43 -44z" />
    <glyph glyph-name="lcaron" unicode="&#x13e;" horiz-adv-x="463" 
d="M96 70v315c0 47 -5 52 -52 52h-27v18h236v-18h-34c-47 0 -53 -5 -53 -52v-306c0 -22 -10 -39 -22 -51v-2h142c94 0 125 11 131 105l3 39h17l-14 -211l-17 1l3 49c-7 -7 -11 -9 -27 -9h-365v17h27c47 0 52 6 52 53zM118 428c3 -13 4 -30 4 -43v-315c0 -8 0 -18 -1 -28l5 4
c8 8 14 19 14 33v306c0 14 2 31 5 43h-27zM383 428c-13 0 -17 -6 -17 -17c0 -13 6 -18 17 -18c13 0 18 7 18 18c0 13 -7 17 -18 17zM427 411c0 -74 -32 -123 -80 -123v18c26 0 47 28 50 48c1 8 4 15 6 18l-4 3c-3 -3 -8 -7 -15 -7c-28 0 -44 15 -44 43s16 44 44 44
c26 0 43 -18 43 -44z" />
    <glyph glyph-name="Ldot" unicode="&#x13f;" horiz-adv-x="463" 
d="M96 70v315c0 47 -5 52 -52 52h-27v18h236v-18h-34c-47 0 -53 -5 -53 -52v-306c0 -22 -10 -39 -22 -51v-2h142c94 0 125 11 131 105l3 39h17l-14 -211l-17 1l3 49c-7 -7 -11 -9 -27 -9h-365v17h27c47 0 52 6 52 53zM118 428c3 -13 4 -30 4 -43v-315c0 -8 0 -18 -1 -28l5 4
c8 8 14 19 14 33v306c0 14 2 31 5 43h-27zM393 305c26 0 44 -16 44 -44c0 -26 -16 -43 -44 -43c-26 0 -43 15 -43 43c0 26 15 44 43 44zM393 279c-13 0 -17 -5 -17 -18s4 -17 17 -17s18 4 18 17s-5 18 -18 18z" />
    <glyph glyph-name="ldot" unicode="&#x140;" horiz-adv-x="463" 
d="M96 70v315c0 47 -5 52 -52 52h-27v18h236v-18h-34c-47 0 -53 -5 -53 -52v-306c0 -22 -10 -39 -22 -51v-2h142c94 0 125 11 131 105l3 39h17l-14 -211l-17 1l3 49c-7 -7 -11 -9 -27 -9h-365v17h27c47 0 52 6 52 53zM118 428c3 -13 4 -30 4 -43v-315c0 -8 0 -18 -1 -28l5 4
c8 8 14 19 14 33v306c0 14 2 31 5 43h-27zM393 305c26 0 44 -16 44 -44c0 -26 -16 -43 -44 -43c-26 0 -43 15 -43 43c0 26 15 44 43 44zM393 279c-13 0 -17 -5 -17 -18s4 -17 17 -17s18 4 18 17s-5 18 -18 18z" />
    <glyph glyph-name="Lslash" unicode="&#x141;" horiz-adv-x="463" 
d="M313 354l16 -21l-163 -112v-142c0 -22 -10 -39 -22 -51v-2h142c94 0 125 11 131 105l3 39h17l-14 -211l-17 1l3 49c-7 -7 -11 -9 -27 -9h-365v17h27c47 0 52 6 52 53v47c0 17 3 43 3 43h-3l-51 -38l-16 21l67 50v192c0 47 -5 52 -52 52h-27v18h228v-18h-26
c-47 0 -53 -5 -53 -52v-97c0 -17 -3 -43 -3 -43l3 -1zM121 42l5 4c8 8 14 19 14 33v306c0 14 2 31 5 43h-27c3 -13 4 -34 4 -43v-315c0 -8 0 -18 -1 -28z" />
    <glyph glyph-name="lslash" unicode="&#x142;" horiz-adv-x="463" 
d="M313 354l16 -21l-163 -112v-142c0 -22 -10 -39 -22 -51v-2h142c94 0 125 11 131 105l3 39h17l-14 -211l-17 1l3 49c-7 -7 -11 -9 -27 -9h-365v17h27c47 0 52 6 52 53v47c0 17 3 43 3 43h-3l-51 -38l-16 21l67 50v192c0 47 -5 52 -52 52h-27v18h228v-18h-26
c-47 0 -53 -5 -53 -52v-97c0 -17 -3 -43 -3 -43l3 -1zM121 42l5 4c8 8 14 19 14 33v306c0 14 2 31 5 43h-27c3 -13 4 -34 4 -43v-315c0 -8 0 -18 -1 -28z" />
    <glyph glyph-name="Nacute" unicode="&#x143;" horiz-adv-x="533" 
d="M17 455h138l234 -320c13 -17 17 -34 17 -37h7c-1 10 -2 25 -2 42v245c0 47 -6 52 -53 52h-26v18h184v-18h-26c-47 0 -53 -5 -53 -52v-394h-30l-261 356c-13 17 -19 35 -19 38h-6c1 -11 1 -24 1 -41v-274c0 -47 6 -53 53 -53h35v-17h-193v17h27c47 0 52 6 52 53v315
c0 47 -5 52 -52 52h-27v18zM149 418c0 -24 1 -29 18 -56l220 -299c-3 29 -5 35 -20 56zM312 604l-41 -49l41 32l9 10zM320 621l16 -13c3 -3 5 -7 5 -10s-2 -5 -4 -8l-12 -15l-105 -82l-14 11l96 115c3 3 7 5 10 5s5 -1 8 -3z" />
    <glyph glyph-name="nacute" unicode="&#x144;" horiz-adv-x="533" 
d="M17 455h138l234 -320c13 -17 17 -34 17 -37h7c-1 10 -2 25 -2 42v245c0 47 -6 52 -53 52h-26v18h184v-18h-26c-47 0 -53 -5 -53 -52v-394h-30l-261 356c-13 17 -19 35 -19 38h-6c1 -11 1 -24 1 -41v-274c0 -47 6 -53 53 -53h35v-17h-193v17h27c47 0 52 6 52 53v315
c0 47 -5 52 -52 52h-27v18zM149 418c0 -24 1 -29 18 -56l220 -299c-3 29 -5 35 -20 56zM312 604l-41 -49l41 32l9 10zM320 621l16 -13c3 -3 5 -7 5 -10s-2 -5 -4 -8l-12 -15l-105 -82l-14 11l96 115c3 3 7 5 10 5s5 -1 8 -3z" />
    <glyph glyph-name="Ncommaaccent" unicode="&#x145;" horiz-adv-x="533" 
d="M17 455h138l234 -320c13 -17 17 -34 17 -37h7c-1 10 -2 25 -2 42v245c0 47 -6 52 -53 52h-26v18h184v-18h-26c-47 0 -53 -5 -53 -52v-394h-30l-261 356c-13 17 -19 35 -19 38h-6c1 -11 1 -24 1 -41v-274c0 -47 6 -53 53 -53h35v-17h-193v17h27c47 0 52 6 52 53v315
c0 47 -5 52 -52 52h-27v18zM149 418c0 -24 1 -29 18 -56l220 -299c-3 29 -5 35 -20 56zM267 -96c-13 0 -18 -7 -18 -18c0 -13 7 -17 18 -17c13 0 17 6 17 17c0 13 -6 18 -17 18zM310 -115c0 -74 -32 -124 -80 -124v18c26 0 47 29 50 49c1 8 4 14 6 17l-4 3
c-3 -3 -8 -7 -15 -7c-28 0 -44 16 -44 44s16 43 44 43c26 0 43 -17 43 -43z" />
    <glyph glyph-name="ncommaaccent" unicode="&#x146;" horiz-adv-x="533" 
d="M17 455h138l234 -320c13 -17 17 -34 17 -37h7c-1 10 -2 25 -2 42v245c0 47 -6 52 -53 52h-26v18h184v-18h-26c-47 0 -53 -5 -53 -52v-394h-30l-261 356c-13 17 -19 35 -19 38h-6c1 -11 1 -24 1 -41v-274c0 -47 6 -53 53 -53h35v-17h-193v17h27c47 0 52 6 52 53v315
c0 47 -5 52 -52 52h-27v18zM149 418c0 -24 1 -29 18 -56l220 -299c-3 29 -5 35 -20 56zM267 -96c-13 0 -18 -7 -18 -18c0 -13 7 -17 18 -17c13 0 17 6 17 17c0 13 -6 18 -17 18zM310 -115c0 -74 -32 -124 -80 -124v18c26 0 47 29 50 49c1 8 4 14 6 17l-4 3
c-3 -3 -8 -7 -15 -7c-28 0 -44 16 -44 44s16 43 44 43c26 0 43 -17 43 -43z" />
    <glyph glyph-name="Ncaron" unicode="&#x147;" horiz-adv-x="533" 
d="M17 455h138l234 -320c13 -17 17 -34 17 -37h7c-1 10 -2 25 -2 42v245c0 47 -6 52 -53 52h-26v18h184v-18h-26c-47 0 -53 -5 -53 -52v-394h-30l-261 356c-13 17 -19 35 -19 38h-6c1 -11 1 -24 1 -41v-274c0 -47 6 -53 53 -53h35v-17h-193v17h27c47 0 52 6 52 53v315
c0 47 -5 52 -52 52h-27v18zM149 418c0 -24 1 -29 18 -56l220 -299c-3 29 -5 35 -20 56zM267 498h-27l-101 99l24 27l37 -42c28 -30 48 -49 51 -63h5c3 14 23 33 51 63l37 42l24 -27z" />
    <glyph glyph-name="ncaron" unicode="&#x148;" horiz-adv-x="533" 
d="M17 455h138l234 -320c13 -17 17 -34 17 -37h7c-1 10 -2 25 -2 42v245c0 47 -6 52 -53 52h-26v18h184v-18h-26c-47 0 -53 -5 -53 -52v-394h-30l-261 356c-13 17 -19 35 -19 38h-6c1 -11 1 -24 1 -41v-274c0 -47 6 -53 53 -53h35v-17h-193v17h27c47 0 52 6 52 53v315
c0 47 -5 52 -52 52h-27v18zM149 418c0 -24 1 -29 18 -56l220 -299c-3 29 -5 35 -20 56zM267 498h-27l-101 99l24 27l37 -42c28 -30 48 -49 51 -63h5c3 14 23 33 51 63l37 42l24 -27z" />
    <glyph glyph-name="napostrophe" unicode="&#x149;" horiz-adv-x="629" 
d="M114 455h137l234 -320c13 -17 18 -34 18 -37h6c-1 10 -2 25 -2 42v245c0 47 -5 52 -52 52h-27v18h184v-18h-26c-47 0 -53 -5 -53 -52v-394h-30l-260 356c-13 17 -20 35 -20 38h-6c1 -11 2 -24 2 -41v-274c0 -47 5 -53 52 -53h35v-17h-192v17h26c47 0 52 6 52 53v315
c0 47 -5 52 -52 52h-26v18zM245 418c0 -24 2 -29 19 -56l219 -299c-3 29 -5 35 -20 56zM52 494c-13 0 -17 -7 -17 -18c0 -13 6 -17 17 -17c13 0 18 6 18 17c0 13 -7 18 -18 18zM96 476c0 -74 -32 -123 -80 -123v18c26 0 47 29 50 49c1 8 3 14 6 17l-4 3c-3 -3 -9 -7 -16 -7
c-28 0 -43 15 -43 43s15 44 43 44c26 0 44 -18 44 -44z" />
    <glyph glyph-name="Eng" unicode="&#x14a;" horiz-adv-x="559" 
d="M149 376v23c0 12 1 22 2 36l-27 -1c7 -14 7 -29 7 -49v-315c0 -16 -1 -30 -5 -44h27c-4 13 -4 27 -4 44v144v162zM430 419c17 -29 25 -67 25 -113v-267c0 -17 -2 -34 -7 -51c15 21 24 50 24 86v249c0 42 -15 75 -42 96zM175 399v-23c0 -16 -2 -25 -5 -31v-3h5
c30 79 85 130 166 130c94 0 157 -60 157 -149v-249c0 -100 -66 -166 -165 -166c-34 0 -64 13 -78 16l7 28c48 -14 59 -18 79 -18c56 0 87 43 87 105v267c0 91 -33 140 -95 140c-94 0 -158 -93 -158 -232v-144c0 -47 5 -53 52 -53h18v-17h-228v17h35c47 0 53 6 53 53v315
c0 47 -6 52 -53 52h-17v18l144 8v-7c-2 -19 -4 -40 -4 -57z" />
    <glyph glyph-name="eng" unicode="&#x14b;" horiz-adv-x="559" 
d="M149 376v23c0 12 1 22 2 36l-27 -1c7 -14 7 -29 7 -49v-315c0 -16 -1 -30 -5 -44h27c-4 13 -4 27 -4 44v144v162zM430 419c17 -29 25 -67 25 -113v-267c0 -17 -2 -34 -7 -51c15 21 24 50 24 86v249c0 42 -15 75 -42 96zM175 399v-23c0 -16 -2 -25 -5 -31v-3h5
c30 79 85 130 166 130c94 0 157 -60 157 -149v-249c0 -100 -66 -166 -165 -166c-34 0 -64 13 -78 16l7 28c48 -14 59 -18 79 -18c56 0 87 43 87 105v267c0 91 -33 140 -95 140c-94 0 -158 -93 -158 -232v-144c0 -47 5 -53 52 -53h18v-17h-228v17h35c47 0 53 6 53 53v315
c0 47 -6 52 -53 52h-17v18l144 8v-7c-2 -19 -4 -40 -4 -57z" />
    <glyph glyph-name="Omacron" unicode="&#x14c;" 
d="M412 94c22 35 34 81 34 133c0 73 -23 133 -64 171c26 -42 44 -107 44 -206c0 -38 -5 -70 -14 -98zM95 361c-22 -35 -34 -82 -34 -134c0 -73 23 -133 64 -171c-26 42 -44 107 -44 206c0 38 5 71 14 99zM400 192c0 165 -53 254 -150 254c-93 0 -143 -65 -143 -184
c0 -165 53 -253 150 -253c93 0 143 64 143 183zM35 227c0 147 87 245 218 245s219 -98 219 -245s-88 -244 -219 -244s-218 97 -218 244zM387 533h-269l2 26h269z" />
    <glyph glyph-name="omacron" unicode="&#x14d;" 
d="M412 94c22 35 34 81 34 133c0 73 -23 133 -64 171c26 -42 44 -107 44 -206c0 -38 -5 -70 -14 -98zM95 361c-22 -35 -34 -82 -34 -134c0 -73 23 -133 64 -171c-26 42 -44 107 -44 206c0 38 5 71 14 99zM400 192c0 165 -53 254 -150 254c-93 0 -143 -65 -143 -184
c0 -165 53 -253 150 -253c93 0 143 64 143 183zM35 227c0 147 87 245 218 245s219 -98 219 -245s-88 -244 -219 -244s-218 97 -218 244zM387 533h-269l2 26h269z" />
    <glyph glyph-name="Obreve" unicode="&#x14e;" 
d="M183 548c23 -22 47 -33 70 -33s49 11 73 33c-21 -14 -47 -23 -73 -23c-23 0 -46 6 -70 23zM412 94c22 35 34 81 34 133c0 73 -23 133 -64 171c26 -42 44 -107 44 -206c0 -38 -5 -70 -14 -98zM95 361c-22 -35 -34 -82 -34 -134c0 -73 23 -133 64 -171
c-26 42 -44 107 -44 206c0 38 5 71 14 99zM400 192c0 165 -53 254 -150 254c-93 0 -143 -65 -143 -184c0 -165 53 -253 150 -253c93 0 143 64 143 183zM35 227c0 147 87 245 218 245s219 -98 219 -245s-88 -244 -219 -244s-218 97 -218 244zM114 615l21 9
c42 -61 80 -82 118 -82c45 0 89 32 123 82l17 -9c-34 -75 -87 -117 -140 -117c-49 0 -97 37 -139 117z" />
    <glyph glyph-name="obreve" unicode="&#x14f;" 
d="M183 548c23 -22 47 -33 70 -33s49 11 73 33c-21 -14 -47 -23 -73 -23c-23 0 -46 6 -70 23zM412 94c22 35 34 81 34 133c0 73 -23 133 -64 171c26 -42 44 -107 44 -206c0 -38 -5 -70 -14 -98zM95 361c-22 -35 -34 -82 -34 -134c0 -73 23 -133 64 -171
c-26 42 -44 107 -44 206c0 38 5 71 14 99zM400 192c0 165 -53 254 -150 254c-93 0 -143 -65 -143 -184c0 -165 53 -253 150 -253c93 0 143 64 143 183zM35 227c0 147 87 245 218 245s219 -98 219 -245s-88 -244 -219 -244s-218 97 -218 244zM114 615l21 9
c42 -61 80 -82 118 -82c45 0 89 32 123 82l17 -9c-34 -75 -87 -117 -140 -117c-49 0 -97 37 -139 117z" />
    <glyph glyph-name="Ohungarumlaut" unicode="&#x150;" 
d="M412 94c22 35 34 81 34 133c0 73 -23 133 -64 171c26 -42 44 -107 44 -206c0 -38 -5 -70 -14 -98zM95 361c-22 -35 -34 -82 -34 -134c0 -73 23 -133 64 -171c-26 42 -44 107 -44 206c0 38 5 71 14 99zM400 192c0 165 -53 254 -150 254c-93 0 -143 -65 -143 -184
c0 -165 53 -253 150 -253c93 0 143 64 143 183zM35 227c0 147 87 245 218 245s219 -98 219 -245s-88 -244 -219 -244s-218 97 -218 244zM255 624l23 -26l-18 -17l-117 -81l-12 13zM413 624l24 -26l-19 -17l-116 -81l-12 13z" />
    <glyph glyph-name="ohungarumlaut" unicode="&#x151;" 
d="M412 94c22 35 34 81 34 133c0 73 -23 133 -64 171c26 -42 44 -107 44 -206c0 -38 -5 -70 -14 -98zM95 361c-22 -35 -34 -82 -34 -134c0 -73 23 -133 64 -171c-26 42 -44 107 -44 206c0 38 5 71 14 99zM400 192c0 165 -53 254 -150 254c-93 0 -143 -65 -143 -184
c0 -165 53 -253 150 -253c93 0 143 64 143 183zM35 227c0 147 87 245 218 245s219 -98 219 -245s-88 -244 -219 -244s-218 97 -218 244zM255 624l23 -26l-18 -17l-117 -81l-12 13zM413 624l24 -26l-19 -17l-116 -81l-12 13z" />
    <glyph glyph-name="OE" unicode="&#x152;" horiz-adv-x="773" 
d="M415 79v297c0 13 -4 25 -11 35l-12 18c-6 0 -11 1 -17 2c15 -16 23 -37 23 -64v-280c0 -27 -8 -47 -23 -63c6 1 11 1 17 1l12 19c7 10 11 22 11 35zM257 9c80 0 115 27 115 78v280c0 51 -37 79 -122 79c-87 0 -143 -65 -143 -184c0 -165 58 -253 150 -253zM420 0
c-59 0 -115 -17 -167 -17c-126 0 -218 97 -218 244s92 245 218 245c52 0 108 -17 167 -17h223c16 0 19 -2 26 -9h1l-4 48l18 1l11 -172h-18c-6 94 -28 105 -122 105h-135v-1c12 -12 21 -29 21 -51v-131h52c46 0 52 10 52 96h18v-219h-18c0 86 -6 97 -52 97h-52v-140
c0 -22 -9 -39 -21 -51v-2h179c94 0 116 11 122 105h18l-12 -172l-17 1l3 49c-7 -7 -10 -9 -26 -9h-267zM95 361c-22 -35 -34 -82 -34 -134c0 -73 23 -133 64 -171c-26 42 -44 107 -44 206c0 38 5 71 14 99z" />
    <glyph glyph-name="oe" unicode="&#x153;" horiz-adv-x="773" 
d="M415 79v297c0 13 -4 25 -11 35l-12 18c-6 0 -11 1 -17 2c15 -16 23 -37 23 -64v-280c0 -27 -8 -47 -23 -63c6 1 11 1 17 1l12 19c7 10 11 22 11 35zM257 9c80 0 115 27 115 78v280c0 51 -37 79 -122 79c-87 0 -143 -65 -143 -184c0 -165 58 -253 150 -253zM420 0
c-59 0 -115 -17 -167 -17c-126 0 -218 97 -218 244s92 245 218 245c52 0 108 -17 167 -17h223c16 0 19 -2 26 -9h1l-4 48l18 1l11 -172h-18c-6 94 -28 105 -122 105h-135v-1c12 -12 21 -29 21 -51v-131h52c46 0 52 10 52 96h18v-219h-18c0 86 -6 97 -52 97h-52v-140
c0 -22 -9 -39 -21 -51v-2h179c94 0 116 11 122 105h18l-12 -172l-17 1l3 49c-7 -7 -10 -9 -26 -9h-267zM95 361c-22 -35 -34 -82 -34 -134c0 -73 23 -133 64 -171c-26 42 -44 107 -44 206c0 38 5 71 14 99z" />
    <glyph glyph-name="Racute" unicode="&#x154;" horiz-adv-x="498" 
d="M301 152c6 -9 13 -18 20 -30c88 -134 145 -204 200 -235c-45 39 -91 103 -164 213c-14 21 -37 42 -56 52zM370 239c31 19 50 47 50 76c0 31 -17 57 -47 77c14 -21 20 -47 20 -77c0 -23 -5 -52 -23 -76zM121 415c1 -7 1 -23 1 -30v-315c0 -14 -1 -32 -4 -44h27
c-3 13 -5 26 -5 44v306c0 10 -2 24 -10 32l-8 8zM17 455h202c136 0 227 -56 227 -140c0 -67 -67 -119 -153 -127v-5c28 -6 64 -35 85 -68c138 -209 181 -250 282 -250c28 0 60 9 84 25l9 -15c-35 -27 -77 -40 -119 -40c-129 0 -192 54 -335 273c-33 50 -54 76 -98 76h-9v26
h35c91 0 140 37 140 105c0 74 -49 113 -140 113h-78v-1c12 -12 17 -29 17 -51v-306c0 -47 6 -53 53 -53h17v-17h-219v17h27c47 0 52 6 52 53v315c0 47 -5 52 -52 52h-27v18zM307 630l16 -13c3 -3 5 -7 5 -10s-2 -5 -4 -8l-12 -15l-105 -82l-14 12l96 114c3 3 7 5 10 5
s5 -1 8 -3zM257 564l42 33l9 9l-9 8z" />
    <glyph glyph-name="racute" unicode="&#x155;" horiz-adv-x="533" 
d="M17 455h236c136 0 228 -56 228 -140c0 -67 -67 -119 -153 -127v-5c28 -6 63 -35 85 -68l16 -24c33 -50 46 -70 69 -70h8l25 5l2 -17c-31 -9 -61 -18 -82 -18c-35 0 -55 21 -92 79l-25 38c-33 50 -54 76 -98 76h-44v26h70c91 0 140 37 140 105c0 74 -49 113 -140 113h-113
v-1c12 -12 17 -29 17 -51v-306c0 -47 6 -53 53 -53h17v-17h-219v17h27c47 0 52 6 52 53v315c0 47 -5 52 -52 52h-27v18zM450 17c-10 10 -19 24 -43 59l-15 24c-17 26 -39 44 -56 52c7 -9 13 -19 20 -30l25 -38c35 -55 48 -67 69 -67zM405 239c31 19 50 47 50 76
c0 31 -17 57 -47 77c14 -21 20 -47 20 -77c0 -23 -5 -52 -23 -76zM121 415c2 -12 1 -23 1 -30v-315c0 -14 -1 -32 -4 -44h27c-3 13 -5 30 -5 44v306c0 10 -2 24 -10 32l-8 8zM325 630l15 -13c3 -3 5 -7 5 -10s-1 -5 -3 -8l-13 -15l-105 -82l-14 12l96 114c3 3 7 5 10 5
s6 -1 9 -3zM275 564l42 33l8 9l-8 8z" />
    <glyph glyph-name="Rcommaaccent" unicode="&#x156;" horiz-adv-x="498" 
d="M301 152c6 -9 13 -18 20 -30c88 -134 145 -204 200 -235c-45 39 -91 103 -164 213c-14 21 -37 42 -56 52zM370 239c31 19 50 47 50 76c0 31 -17 57 -47 77c14 -21 20 -47 20 -77c0 -23 -5 -52 -23 -76zM121 415c1 -7 1 -23 1 -30v-315c0 -14 -1 -32 -4 -44h27
c-3 13 -5 26 -5 44v306c0 10 -2 24 -10 32l-8 8zM17 455h202c136 0 227 -56 227 -140c0 -67 -67 -119 -153 -127v-5c28 -6 64 -35 85 -68c138 -209 181 -250 282 -250c28 0 60 9 84 25l9 -15c-35 -27 -77 -40 -119 -40c-129 0 -192 54 -335 273c-33 50 -54 76 -98 76h-9v26
h35c91 0 140 37 140 105c0 74 -49 113 -140 113h-78v-1c12 -12 17 -29 17 -51v-306c0 -47 6 -53 53 -53h17v-17h-219v17h27c47 0 52 6 52 53v315c0 47 -5 52 -52 52h-27v18zM258 -99c-13 0 -18 -6 -18 -17c0 -13 7 -18 18 -18c13 0 17 7 17 18c0 13 -6 17 -17 17zM302 -115
c0 -74 -33 -124 -81 -124v18c26 0 47 29 50 49c1 8 4 14 6 17l-3 3c-3 -3 -9 -7 -16 -7c-28 0 -44 16 -44 44s16 43 44 43c26 0 44 -17 44 -43z" />
    <glyph glyph-name="rcommaaccent" unicode="&#x157;" horiz-adv-x="533" 
d="M17 455h236c136 0 228 -56 228 -140c0 -67 -67 -119 -153 -127v-5c28 -6 63 -35 85 -68l16 -24c33 -50 46 -70 69 -70h8l25 5l2 -17c-31 -9 -61 -18 -82 -18c-35 0 -55 21 -92 79l-25 38c-33 50 -54 76 -98 76h-44v26h70c91 0 140 37 140 105c0 74 -49 113 -140 113h-113
v-1c12 -12 17 -29 17 -51v-306c0 -47 6 -53 53 -53h17v-17h-219v17h27c47 0 52 6 52 53v315c0 47 -5 52 -52 52h-27v18zM450 17c-10 10 -19 24 -43 59l-15 24c-17 26 -39 44 -56 52c7 -9 13 -19 20 -30l25 -38c35 -55 48 -67 69 -67zM405 239c31 19 50 47 50 76
c0 31 -17 57 -47 77c14 -21 20 -47 20 -77c0 -23 -5 -52 -23 -76zM121 415c2 -12 1 -23 1 -30v-315c0 -14 -1 -32 -4 -44h27c-3 13 -5 30 -5 44v306c0 10 -2 24 -10 32l-8 8zM258 -99c-13 0 -18 -6 -18 -17c0 -13 7 -18 18 -18c13 0 17 7 17 18c0 13 -6 17 -17 17zM302 -115
c0 -74 -33 -124 -81 -124v18c26 0 47 29 50 49c1 8 4 14 6 17l-3 3c-3 -3 -9 -7 -16 -7c-28 0 -44 16 -44 44s16 43 44 43c26 0 44 -17 44 -43z" />
    <glyph glyph-name="Rcaron" unicode="&#x158;" horiz-adv-x="498" 
d="M301 152c6 -9 13 -18 20 -30c88 -134 145 -204 200 -235c-45 39 -91 103 -164 213c-14 21 -37 42 -56 52zM370 239c31 19 50 47 50 76c0 31 -17 57 -47 77c14 -21 20 -47 20 -77c0 -23 -5 -52 -23 -76zM121 415c1 -7 1 -23 1 -30v-315c0 -14 -1 -32 -4 -44h27
c-3 13 -5 26 -5 44v306c0 10 -2 24 -10 32l-8 8zM17 455h202c136 0 227 -56 227 -140c0 -67 -67 -119 -153 -127v-5c28 -6 64 -35 85 -68c138 -209 181 -250 282 -250c28 0 60 9 84 25l9 -15c-35 -27 -77 -40 -119 -40c-129 0 -192 54 -335 273c-33 50 -54 76 -98 76h-9v26
h35c91 0 140 37 140 105c0 74 -49 113 -140 113h-78v-1c12 -12 17 -29 17 -51v-306c0 -47 6 -53 53 -53h17v-17h-219v17h27c47 0 52 6 52 53v315c0 47 -5 52 -52 52h-27v18zM246 498h-28l-101 99l24 27l37 -42c28 -30 48 -49 51 -63h5c3 14 23 33 51 63l37 42l25 -27z" />
    <glyph glyph-name="rcaron" unicode="&#x159;" horiz-adv-x="533" 
d="M17 455h236c136 0 228 -56 228 -140c0 -67 -67 -119 -153 -127v-5c28 -6 63 -35 85 -68l16 -24c33 -50 46 -70 69 -70h8l25 5l2 -17c-31 -9 -61 -18 -82 -18c-35 0 -55 21 -92 79l-25 38c-33 50 -54 76 -98 76h-44v26h70c91 0 140 37 140 105c0 74 -49 113 -140 113h-113
v-1c12 -12 17 -29 17 -51v-306c0 -47 6 -53 53 -53h17v-17h-219v17h27c47 0 52 6 52 53v315c0 47 -5 52 -52 52h-27v18zM450 17c-10 10 -19 24 -43 59l-15 24c-17 26 -39 44 -56 52c7 -9 13 -19 20 -30l25 -38c35 -55 48 -67 69 -67zM405 239c31 19 50 47 50 76
c0 31 -17 57 -47 77c14 -21 20 -47 20 -77c0 -23 -5 -52 -23 -76zM121 415c2 -12 1 -23 1 -30v-315c0 -14 -1 -32 -4 -44h27c-3 13 -5 30 -5 44v306c0 10 -2 24 -10 32l-8 8zM272 498h-28l-101 99l24 27l38 -42c28 -30 48 -49 51 -63h4c3 14 23 33 51 63l37 42l25 -27z" />
    <glyph glyph-name="Sacute" unicode="&#x15a;" horiz-adv-x="437" 
d="M272 630l16 -13c3 -3 5 -7 5 -10s-2 -5 -4 -8l-12 -15l-105 -82l-14 12l96 114c3 3 7 5 10 5s5 -1 8 -3zM402 105c0 -73 -82 -122 -192 -122c-49 0 -117 22 -148 44c-7 5 -11 11 -14 19l-3 -1c3 -7 5 -18 5 -28l2 -34l-17 -1l-9 153l26 1c2 -67 84 -127 158 -127
c76 0 125 29 125 83c0 98 -283 131 -283 272c0 65 69 108 158 108c47 0 91 -13 116 -31c10 -7 15 -18 16 -21l2 1c-1 7 -3 18 -3 28l-1 23h18l7 -139l-25 -1l-1 14c-5 52 -56 100 -129 100c-59 0 -101 -22 -101 -61c0 -110 293 -142 293 -280zM376 105
c0 117 -293 148 -293 280v1c-3 -7 -4 -14 -4 -22c0 -112 245 -147 279 -247c3 -8 2 -10 3 -25c0 -13 -1 -26 -5 -36c13 14 20 31 20 49zM222 564l42 33l9 9l-9 8z" />
    <glyph glyph-name="sacute" unicode="&#x15b;" horiz-adv-x="437" 
d="M272 630l16 -13c3 -3 5 -7 5 -10s-2 -5 -4 -8l-12 -15l-105 -82l-14 12l96 114c3 3 7 5 10 5s5 -1 8 -3zM402 105c0 -73 -82 -122 -192 -122c-49 0 -117 22 -148 44c-7 5 -11 11 -14 19l-3 -1c3 -7 5 -18 5 -28l2 -34l-17 -1l-9 153l26 1c2 -67 84 -127 158 -127
c76 0 125 29 125 83c0 98 -283 131 -283 272c0 65 69 108 158 108c47 0 91 -13 116 -31c10 -7 15 -18 16 -21l2 1c-1 7 -3 18 -3 28l-1 23h18l7 -139l-25 -1l-1 14c-5 52 -56 100 -129 100c-59 0 -101 -22 -101 -61c0 -110 293 -142 293 -280zM376 105
c0 117 -293 148 -293 280v1c-3 -7 -4 -14 -4 -22c0 -112 245 -147 279 -247c3 -8 2 -10 3 -25c0 -13 -1 -26 -5 -36c13 14 20 31 20 49zM222 564l42 33l9 9l-9 8z" />
    <glyph glyph-name="Scircumflex" unicode="&#x15c;" horiz-adv-x="437" 
d="M402 105c0 -73 -82 -122 -192 -122c-49 0 -117 22 -148 44c-7 5 -11 11 -14 19l-3 -1c3 -7 5 -18 5 -28l2 -34l-17 -1l-9 153l26 1c2 -67 84 -127 158 -127c76 0 125 29 125 83c0 98 -283 131 -283 272c0 65 69 108 158 108c47 0 91 -13 116 -31c10 -7 15 -18 16 -21l2 1
c-1 7 -3 18 -3 28l-1 23h18l7 -139l-25 -1l-1 14c-5 52 -56 100 -129 100c-59 0 -101 -22 -101 -61c0 -110 293 -142 293 -280zM376 105c0 117 -293 148 -293 280v1c-3 -7 -4 -14 -4 -22c0 -112 245 -147 279 -247c3 -8 2 -10 3 -25c0 -13 -1 -26 -5 -36c13 14 20 31 20 49z
M224 624l101 -99l-25 -27l-37 42c-27 31 -48 50 -51 64h-4c-3 -14 -25 -33 -52 -64l-37 -42l-24 27l101 99h28z" />
    <glyph glyph-name="scircumflex" unicode="&#x15d;" horiz-adv-x="437" 
d="M402 105c0 -73 -82 -122 -192 -122c-49 0 -117 22 -148 44c-7 5 -11 11 -14 19l-3 -1c3 -7 5 -18 5 -28l2 -34l-17 -1l-9 153l26 1c2 -67 84 -127 158 -127c76 0 125 29 125 83c0 98 -283 131 -283 272c0 65 69 108 158 108c47 0 91 -13 116 -31c10 -7 15 -18 16 -21l2 1
c-1 7 -3 18 -3 28l-1 23h18l7 -139l-25 -1l-1 14c-5 52 -56 100 -129 100c-59 0 -101 -22 -101 -61c0 -110 293 -142 293 -280zM376 105c0 117 -293 148 -293 280v1c-3 -7 -4 -14 -4 -22c0 -112 245 -147 279 -247c3 -8 2 -10 3 -25c0 -13 -1 -26 -5 -36c13 14 20 31 20 49z
M224 624l101 -99l-25 -27l-37 42c-27 31 -48 50 -51 64h-4c-3 -14 -25 -33 -52 -64l-37 -42l-24 27l101 99h28z" />
    <glyph glyph-name="Scedilla" unicode="&#x15e;" horiz-adv-x="437" 
d="M260 -73c4 -9 6 -20 6 -32c0 -23 -8 -44 -23 -62c24 14 36 33 36 52c0 16 -5 31 -19 42zM376 105c0 117 -293 148 -293 280v1c-3 -7 -4 -14 -4 -22c0 -112 245 -147 279 -247c3 -8 2 -10 3 -25c0 -13 -1 -26 -5 -36c13 14 20 31 20 49zM402 105c0 -73 -82 -122 -192 -122
c-8 0 -17 0 -26 1l-7 -30c9 4 21 6 34 6c55 0 85 -36 85 -75c0 -55 -69 -94 -156 -94l3 17c58 0 105 37 105 87c0 26 -12 46 -36 46c-15 0 -33 -3 -44 -10l-12 2l11 54c-40 7 -82 24 -105 40c-7 5 -11 11 -14 19l-3 -1c3 -7 5 -18 5 -28l2 -34l-17 -1l-9 153l26 1
c2 -67 84 -127 158 -127c76 0 125 29 125 83c0 98 -283 131 -283 272c0 65 69 108 158 108c47 0 91 -13 116 -31c10 -7 15 -18 16 -21l2 1c-1 7 -3 18 -3 28l-1 23h18l7 -139l-25 -1l-1 14c-5 52 -56 100 -129 100c-59 0 -101 -22 -101 -61c0 -110 293 -142 293 -280z" />
    <glyph glyph-name="scedilla" unicode="&#x15f;" horiz-adv-x="437" 
d="M260 -73c4 -9 6 -20 6 -32c0 -23 -8 -44 -23 -62c24 14 36 33 36 52c0 16 -5 31 -19 42zM376 105c0 117 -293 148 -293 280v1c-3 -7 -4 -14 -4 -22c0 -112 245 -147 279 -247c3 -8 2 -10 3 -25c0 -13 -1 -26 -5 -36c13 14 20 31 20 49zM402 105c0 -73 -82 -122 -192 -122
c-8 0 -17 0 -26 1l-7 -30c9 4 21 6 34 6c55 0 85 -36 85 -75c0 -55 -69 -94 -156 -94l3 17c58 0 105 37 105 87c0 26 -12 46 -36 46c-15 0 -33 -3 -44 -10l-12 2l11 54c-40 7 -82 24 -105 40c-7 5 -11 11 -14 19l-3 -1c3 -7 5 -18 5 -28l2 -34l-17 -1l-9 153l26 1
c2 -67 84 -127 158 -127c76 0 125 29 125 83c0 98 -283 131 -283 272c0 65 69 108 158 108c47 0 91 -13 116 -31c10 -7 15 -18 16 -21l2 1c-1 7 -3 18 -3 28l-1 23h18l7 -139l-25 -1l-1 14c-5 52 -56 100 -129 100c-59 0 -101 -22 -101 -61c0 -110 293 -142 293 -280z" />
    <glyph glyph-name="Scaron" unicode="&#x160;" horiz-adv-x="437" 
d="M402 105c0 -73 -82 -122 -192 -122c-49 0 -117 22 -148 44c-7 5 -11 11 -14 19l-3 -1c3 -7 5 -18 5 -28l2 -34l-17 -1l-9 153l26 1c2 -67 84 -127 158 -127c76 0 125 29 125 83c0 98 -283 131 -283 272c0 65 69 108 158 108c47 0 91 -13 116 -31c10 -7 15 -18 16 -21l2 1
c-1 7 -3 18 -3 28l-1 23h18l7 -139l-25 -1l-1 14c-5 52 -56 100 -129 100c-59 0 -101 -22 -101 -61c0 -110 293 -142 293 -280zM376 105c0 117 -293 148 -293 280v1c-3 -7 -4 -14 -4 -22c0 -112 245 -147 279 -247c3 -8 2 -10 3 -25c0 -13 -1 -26 -5 -36c13 14 20 31 20 49z
M224 498h-28l-101 99l24 27l37 -42c28 -30 49 -49 52 -63h4c3 14 23 33 51 63l37 42l25 -27z" />
    <glyph glyph-name="scaron" unicode="&#x161;" horiz-adv-x="437" 
d="M402 105c0 -73 -82 -122 -192 -122c-49 0 -117 22 -148 44c-7 5 -11 11 -14 19l-3 -1c3 -7 5 -18 5 -28l2 -34l-17 -1l-9 153l26 1c2 -67 84 -127 158 -127c76 0 125 29 125 83c0 98 -283 131 -283 272c0 65 69 108 158 108c47 0 91 -13 116 -31c10 -7 15 -18 16 -21l2 1
c-1 7 -3 18 -3 28l-1 23h18l7 -139l-25 -1l-1 14c-5 52 -56 100 -129 100c-59 0 -101 -22 -101 -61c0 -110 293 -142 293 -280zM376 105c0 117 -293 148 -293 280v1c-3 -7 -4 -14 -4 -22c0 -112 245 -147 279 -247c3 -8 2 -10 3 -25c0 -13 -1 -26 -5 -36c13 14 20 31 20 49z
M224 498h-28l-101 99l24 27l37 -42c28 -30 49 -49 52 -63h4c3 14 23 33 51 63l37 42l25 -27z" />
    <glyph glyph-name="Tcommaaccent" unicode="&#x162;" horiz-adv-x="489" 
d="M316 -73c4 -9 7 -20 7 -32c0 -23 -8 -43 -23 -61c24 14 36 32 36 51c0 16 -6 31 -20 42zM253 428h-17v-358c0 -14 -2 -32 -5 -44h27c-3 13 -5 35 -5 44v358zM44 455h402l-3 39l18 1l11 -172h-17c-6 94 -11 105 -105 105h-70v-358c0 -47 5 -53 52 -53h35v-17h-123l-10 -46
c9 4 20 6 33 6c55 0 86 -36 86 -75c0 -55 -69 -94 -156 -94l3 18c58 0 105 36 105 86c0 26 -13 47 -37 47c-15 0 -32 -3 -43 -10l-13 2l14 66h-104v17h35c47 0 53 6 53 53v358h-61c-94 0 -108 -11 -114 -105h-18l12 172l17 -1z" />
    <glyph glyph-name="tcedilla" unicode="&#x163;" horiz-adv-x="489" 
d="M316 -73c4 -9 7 -20 7 -32c0 -23 -8 -43 -23 -61c24 14 36 32 36 51c0 16 -6 31 -20 42zM253 428h-17v-358c0 -14 -2 -32 -5 -44h27c-3 13 -5 35 -5 44v358zM44 455h402l-3 39l18 1l11 -172h-17c-6 94 -11 105 -105 105h-70v-358c0 -47 5 -53 52 -53h35v-17h-123l-10 -46
c9 4 20 6 33 6c55 0 86 -36 86 -75c0 -55 -69 -94 -156 -94l3 18c58 0 105 36 105 86c0 26 -13 47 -37 47c-15 0 -32 -3 -43 -10l-13 2l14 66h-104v17h35c47 0 53 6 53 53v358h-61c-94 0 -108 -11 -114 -105h-18l12 172l17 -1z" />
    <glyph glyph-name="Tcaron" unicode="&#x164;" horiz-adv-x="489" 
d="M253 428h-17v-358c0 -14 -2 -32 -5 -44h27c-3 13 -5 35 -5 44v358zM44 455h402l-3 39l18 1l11 -172h-17c-6 94 -11 105 -105 105h-70v-358c0 -47 5 -53 52 -53h35v-17h-245v17h35c47 0 53 6 53 53v358h-61c-94 0 -108 -11 -114 -105h-18l12 172l17 -1zM259 498h-28
l-101 99l24 27l37 -42c28 -30 49 -49 52 -63h4c3 14 23 33 51 63l37 42l25 -27z" />
    <glyph glyph-name="tcaron" unicode="&#x165;" horiz-adv-x="489" 
d="M253 428h-17v-358c0 -14 -2 -32 -5 -44h27c-3 13 -5 35 -5 44v358zM44 455h402l-3 39l18 1l11 -172h-17c-6 94 -11 105 -105 105h-70v-358c0 -47 5 -53 52 -53h35v-17h-245v17h35c47 0 53 6 53 53v358h-61c-94 0 -108 -11 -114 -105h-18l12 172l17 -1zM259 498h-28
l-101 99l24 27l37 -42c28 -30 49 -49 52 -63h4c3 14 23 33 51 63l37 42l25 -27z" />
    <glyph glyph-name="Tbar" unicode="&#x166;" horiz-adv-x="489" 
d="M253 428h-17v-358c0 -14 -2 -32 -5 -44h27c-3 13 -5 35 -5 44v358zM44 455h402l-3 39l18 1l11 -172h-17c-6 94 -11 105 -105 105h-70v-122h89l-4 -26h-85v-210c0 -47 5 -53 52 -53h35v-17h-245v17h35c47 0 53 6 53 53v210h-90l5 26h85v122h-61c-94 0 -108 -11 -114 -105
h-18l12 172l17 -1z" />
    <glyph glyph-name="tbar" unicode="&#x167;" horiz-adv-x="489" 
d="M253 428h-17v-358c0 -14 -2 -32 -5 -44h27c-3 13 -5 35 -5 44v358zM44 455h402l-3 39l18 1l11 -172h-17c-6 94 -11 105 -105 105h-70v-122h89l-4 -26h-85v-210c0 -47 5 -53 52 -53h35v-17h-245v17h35c47 0 53 6 53 53v210h-90l5 26h85v122h-61c-94 0 -108 -11 -114 -105
h-18l12 172l17 -1z" />
    <glyph glyph-name="Utilde" unicode="&#x168;" horiz-adv-x="524" 
d="M17 455h219v-18h-26c-47 0 -53 -5 -53 -52v-254c0 -80 39 -122 110 -122c87 0 144 59 144 148v228c0 47 -6 52 -53 52h-26v18h175v-18h-19c-47 0 -51 -5 -51 -52v-228c0 -105 -68 -174 -170 -174c-108 0 -180 69 -180 174v228c0 47 -5 52 -52 52h-18v18zM136 428h-27
c3 -13 5 -31 5 -43v-228c0 -36 9 -67 27 -91c-7 19 -10 40 -10 65v254c0 14 2 31 5 43zM384 530c-7 -3 -14 -6 -23 -6c-29 0 -58 20 -86 40c-30 21 -60 43 -82 43c-9 0 -18 -3 -27 -13c5 3 13 5 20 5c26 0 51 -17 78 -36c32 -23 66 -47 90 -47c11 0 20 3 30 14zM423 572
c-15 -56 -41 -74 -69 -74c-56 0 -125 83 -168 83c-14 0 -27 -8 -33 -31l-7 -30l-26 6l8 30c14 51 39 68 65 68c55 0 123 -82 168 -82c16 0 29 9 36 36l8 30l26 -7z" />
    <glyph glyph-name="utilde" unicode="&#x169;" horiz-adv-x="524" 
d="M17 455h219v-18h-26c-47 0 -53 -5 -53 -52v-254c0 -80 39 -122 110 -122c87 0 144 59 144 148v228c0 47 -6 52 -53 52h-26v18h175v-18h-19c-47 0 -51 -5 -51 -52v-228c0 -105 -68 -174 -170 -174c-108 0 -180 69 -180 174v228c0 47 -5 52 -52 52h-18v18zM136 428h-27
c3 -13 5 -31 5 -43v-228c0 -36 9 -67 27 -91c-7 19 -10 40 -10 65v254c0 14 2 31 5 43zM384 530c-7 -3 -14 -6 -23 -6c-29 0 -58 20 -86 40c-30 21 -60 43 -82 43c-9 0 -18 -3 -27 -13c5 3 13 5 20 5c26 0 51 -17 78 -36c32 -23 66 -47 90 -47c11 0 20 3 30 14zM423 572
c-15 -56 -41 -74 -69 -74c-56 0 -125 83 -168 83c-14 0 -27 -8 -33 -31l-7 -30l-26 6l8 30c14 51 39 68 65 68c55 0 123 -82 168 -82c16 0 29 9 36 36l8 30l26 -7z" />
    <glyph glyph-name="Umacron" unicode="&#x16a;" horiz-adv-x="524" 
d="M17 455h219v-18h-26c-47 0 -53 -5 -53 -52v-254c0 -80 39 -122 110 -122c87 0 144 59 144 148v228c0 47 -6 52 -53 52h-26v18h175v-18h-19c-47 0 -51 -5 -51 -52v-228c0 -105 -68 -174 -170 -174c-108 0 -180 69 -180 174v228c0 47 -5 52 -52 52h-18v18zM136 428h-27
c3 -13 5 -31 5 -43v-228c0 -36 9 -67 27 -91c-7 19 -10 40 -10 65v254c0 14 2 31 5 43zM409 533h-269l2 26h269z" />
    <glyph glyph-name="umacron" unicode="&#x16b;" horiz-adv-x="524" 
d="M17 455h219v-18h-26c-47 0 -53 -5 -53 -52v-254c0 -80 39 -122 110 -122c87 0 144 59 144 148v228c0 47 -6 52 -53 52h-26v18h175v-18h-19c-47 0 -51 -5 -51 -52v-228c0 -105 -68 -174 -170 -174c-108 0 -180 69 -180 174v228c0 47 -5 52 -52 52h-18v18zM136 428h-27
c3 -13 5 -31 5 -43v-228c0 -36 9 -67 27 -91c-7 19 -10 40 -10 65v254c0 14 2 31 5 43zM409 533h-269l2 26h269z" />
    <glyph glyph-name="Ubreve" unicode="&#x16c;" horiz-adv-x="524" 
d="M17 455h219v-18h-26c-47 0 -53 -5 -53 -52v-254c0 -80 39 -122 110 -122c87 0 144 59 144 148v228c0 47 -6 52 -53 52h-26v18h175v-18h-19c-47 0 -51 -5 -51 -52v-228c0 -105 -68 -174 -170 -174c-108 0 -180 69 -180 174v228c0 47 -5 52 -52 52h-18v18zM136 428h-27
c3 -13 5 -31 5 -43v-228c0 -36 9 -67 27 -91c-7 19 -10 40 -10 65v254c0 14 2 31 5 43zM135 615l22 9c42 -61 80 -82 118 -82c45 0 89 32 123 82l17 -9c-34 -75 -87 -117 -140 -117c-49 0 -98 37 -140 117zM205 548c23 -22 47 -32 70 -32s48 10 72 32
c-21 -14 -46 -24 -72 -24c-23 0 -46 7 -70 24z" />
    <glyph glyph-name="ubreve" unicode="&#x16d;" horiz-adv-x="524" 
d="M17 455h219v-18h-26c-47 0 -53 -5 -53 -52v-254c0 -80 39 -122 110 -122c87 0 144 59 144 148v228c0 47 -6 52 -53 52h-26v18h175v-18h-19c-47 0 -51 -5 -51 -52v-228c0 -105 -68 -174 -170 -174c-108 0 -180 69 -180 174v228c0 47 -5 52 -52 52h-18v18zM136 428h-27
c3 -13 5 -31 5 -43v-228c0 -36 9 -67 27 -91c-7 19 -10 40 -10 65v254c0 14 2 31 5 43zM135 615l22 9c42 -61 80 -82 118 -82c45 0 89 32 123 82l17 -9c-34 -75 -87 -117 -140 -117c-49 0 -98 37 -140 117zM205 548c23 -22 47 -32 70 -32s48 10 72 32
c-21 -14 -46 -24 -72 -24c-23 0 -46 7 -70 24z" />
    <glyph glyph-name="Uring" unicode="&#x16e;" horiz-adv-x="524" 
d="M17 455h219v-18h-26c-47 0 -53 -5 -53 -52v-254c0 -80 39 -122 110 -122c87 0 144 59 144 148v228c0 47 -6 52 -53 52h-26v18h175v-18h-19c-47 0 -51 -5 -51 -52v-228c0 -105 -68 -174 -170 -174c-108 0 -180 69 -180 174v228c0 47 -5 52 -52 52h-18v18zM136 428h-27
c3 -13 5 -31 5 -43v-228c0 -36 9 -67 27 -91c-7 19 -10 40 -10 65v254c0 14 2 31 5 43zM275 642c-29 0 -61 -30 -61 -62c0 -31 32 -61 61 -61s62 29 62 61s-33 62 -62 62zM275 668c43 0 88 -41 88 -88s-46 -87 -88 -87c-43 0 -87 42 -87 87c0 47 45 88 87 88z" />
    <glyph glyph-name="uring" unicode="&#x16f;" horiz-adv-x="524" 
d="M17 455h219v-18h-26c-47 0 -53 -5 -53 -52v-254c0 -80 39 -122 110 -122c87 0 144 59 144 148v228c0 47 -6 52 -53 52h-26v18h175v-18h-19c-47 0 -51 -5 -51 -52v-228c0 -105 -68 -174 -170 -174c-108 0 -180 69 -180 174v228c0 47 -5 52 -52 52h-18v18zM136 428h-27
c3 -13 5 -31 5 -43v-228c0 -36 9 -67 27 -91c-7 19 -10 40 -10 65v254c0 14 2 31 5 43zM275 642c-29 0 -61 -30 -61 -62c0 -31 32 -61 61 -61s62 29 62 61s-33 62 -62 62zM275 668c43 0 88 -41 88 -88s-46 -87 -88 -87c-43 0 -87 42 -87 87c0 47 45 88 87 88z" />
    <glyph glyph-name="Uhungarumlaut" unicode="&#x170;" horiz-adv-x="524" 
d="M17 455h219v-18h-26c-47 0 -53 -5 -53 -52v-254c0 -80 39 -122 110 -122c87 0 144 59 144 148v228c0 47 -6 52 -53 52h-26v18h175v-18h-19c-47 0 -51 -5 -51 -52v-228c0 -105 -68 -174 -170 -174c-108 0 -180 69 -180 174v228c0 47 -5 52 -52 52h-18v18zM136 428h-27
c3 -13 5 -31 5 -43v-228c0 -36 9 -67 27 -91c-7 19 -10 40 -10 65v254c0 14 2 31 5 43zM277 624l23 -26l-19 -17l-116 -81l-12 13zM435 624l24 -26l-19 -17l-117 -81l-11 13zM276 606l-63 -57l60 42l9 8zM434 606l-62 -57l60 42l9 8z" />
    <glyph glyph-name="uhungarumlaut" unicode="&#x171;" horiz-adv-x="524" 
d="M17 455h219v-18h-26c-47 0 -53 -5 -53 -52v-254c0 -80 39 -122 110 -122c87 0 144 59 144 148v228c0 47 -6 52 -53 52h-26v18h175v-18h-19c-47 0 -51 -5 -51 -52v-228c0 -105 -68 -174 -170 -174c-108 0 -180 69 -180 174v228c0 47 -5 52 -52 52h-18v18zM136 428h-27
c3 -13 5 -31 5 -43v-228c0 -36 9 -67 27 -91c-7 19 -10 40 -10 65v254c0 14 2 31 5 43zM277 624l23 -26l-19 -17l-116 -81l-12 13zM435 624l24 -26l-19 -17l-117 -81l-11 13zM276 606l-63 -57l60 42l9 8zM434 606l-62 -57l60 42l9 8z" />
    <glyph glyph-name="Uogonek" unicode="&#x172;" horiz-adv-x="524" 
d="M251 -56c-18 -21 -28 -44 -28 -62s7 -35 32 -42c-11 10 -19 26 -19 47c0 19 5 38 15 57zM136 428h-27c3 -13 5 -34 5 -43v-228c0 -36 9 -67 27 -91c-7 19 -10 40 -10 65v254c0 14 2 31 5 43zM17 455h219v-18h-26c-47 0 -53 -5 -53 -52v-254c0 -80 39 -122 110 -122
c87 0 144 59 144 148v228c0 48 -6 52 -53 52h-26v18h175v-18h-19c-47 0 -51 -4 -51 -52v-228c0 -82 -42 -141 -108 -164c-47 -18 -76 -65 -76 -106c0 -32 18 -42 39 -42c19 0 41 10 53 13l7 -26c-29 -8 -52 -13 -71 -13c-57 0 -76 32 -76 63c0 33 23 72 62 100v1
c-108 0 -180 69 -180 174v228c0 47 -5 52 -52 52h-18v18z" />
    <glyph glyph-name="uogonek" unicode="&#x173;" horiz-adv-x="524" 
d="M251 -56c-18 -21 -28 -44 -28 -62s7 -35 32 -42c-11 10 -19 26 -19 47c0 19 5 38 15 57zM136 428h-27c3 -13 5 -34 5 -43v-228c0 -36 9 -67 27 -91c-7 19 -10 40 -10 65v254c0 14 2 31 5 43zM17 455h219v-18h-26c-47 0 -53 -5 -53 -52v-254c0 -80 39 -122 110 -122
c87 0 144 59 144 148v228c0 48 -6 52 -53 52h-26v18h175v-18h-19c-47 0 -51 -4 -51 -52v-228c0 -82 -42 -141 -108 -164c-47 -18 -76 -65 -76 -106c0 -32 18 -42 39 -42c19 0 41 10 53 13l7 -26c-29 -8 -52 -13 -71 -13c-57 0 -76 32 -76 63c0 33 23 72 62 100v1
c-108 0 -180 69 -180 174v228c0 47 -5 52 -52 52h-18v18z" />
    <glyph glyph-name="Wcircumflex" unicode="&#x174;" horiz-adv-x="804" 
d="M725 385l-155 -394h-39l-129 324l-129 -324h-39l-155 394c-19 47 -21 52 -57 52h-13v18h133v-4c0 -4 -1 -8 -1 -12c0 -14 3 -28 8 -41l117 -294c7 -17 8 -30 8 -35h5c0 5 2 18 9 36l100 248l-12 32c-19 47 -21 52 -57 52h-24v18h197v-18h-76v-2c14 -5 23 -20 30 -37
l117 -294c7 -17 8 -30 8 -35h5c0 5 2 18 9 36l112 280c5 13 8 24 8 31c0 17 -14 21 -49 21h-28v18h167v-18h-13c-36 0 -40 -5 -57 -52zM89 428l15 -34l139 -353l4 1v16c0 18 -1 26 -5 37l-118 294c-5 14 -8 27 -9 39h-26zM545 42v31c0 4 -3 14 -6 22l-117 294
c-9 23 -16 22 -31 28c8 -19 7 -15 19 -49l130 -328zM419 624l101 -99l-25 -27l-37 42c-27 31 -48 50 -51 64h-4c-3 -14 -25 -33 -52 -64l-37 -42l-24 27l101 99h28z" />
    <glyph glyph-name="wcircumflex" unicode="&#x175;" horiz-adv-x="804" 
d="M725 385l-155 -394h-39l-129 324l-129 -324h-39l-155 394c-19 47 -21 52 -57 52h-13v18h133v-4c0 -4 -1 -8 -1 -12c0 -14 3 -28 8 -41l117 -294c7 -17 8 -30 8 -35h5c0 5 2 18 9 36l100 248l-12 32c-19 47 -21 52 -57 52h-24v18h197v-18h-76v-2c14 -5 23 -20 30 -37
l117 -294c7 -17 8 -30 8 -35h5c0 5 2 18 9 36l112 280c5 13 8 24 8 31c0 17 -14 21 -49 21h-28v18h167v-18h-13c-36 0 -40 -5 -57 -52zM89 428l15 -34l139 -353l4 1v16c0 18 -1 26 -5 37l-118 294c-5 14 -8 27 -9 39h-26zM545 42v31c0 4 -3 14 -6 22l-117 294
c-9 23 -16 22 -31 28c8 -19 7 -15 19 -49l130 -328zM419 624l101 -99l-25 -27l-37 42c-27 31 -48 50 -51 64h-4c-3 -14 -25 -33 -52 -64l-37 -42l-24 27l101 99h28z" />
    <glyph glyph-name="Ycircumflex" unicode="&#x176;" 
d="M167 390l97 -176c5 -9 12 -25 14 -31h2c2 6 8 21 13 31l89 162c10 18 14 31 14 40c0 17 -15 21 -45 21h-37v18h184v-18h-26c-30 0 -33 -12 -60 -61l-119 -217v-89c0 -47 5 -53 52 -53h35v-17h-245v17h35c47 0 53 6 53 53v70l-128 238c-24 45 -27 59 -63 59h-23v18h178
v-18h-59v-2c14 -5 23 -16 39 -45zM143 378c-18 33 -21 32 -39 39l14 -28l131 -242v-77c0 -14 -2 -32 -5 -44h27c-3 13 -4 30 -4 44v84zM272 624l101 -99l-25 -27l-37 42c-27 31 -48 50 -51 64h-4c-3 -14 -24 -33 -51 -64l-38 -42l-24 27l101 99h28z" />
    <glyph glyph-name="ycircumflex" unicode="&#x177;" 
d="M167 390l97 -176c5 -9 12 -25 14 -31h2c2 6 8 21 13 31l89 162c10 18 14 31 14 40c0 17 -15 21 -45 21h-37v18h184v-18h-26c-30 0 -33 -12 -60 -61l-119 -217v-89c0 -47 5 -53 52 -53h35v-17h-245v17h35c47 0 53 6 53 53v70l-128 238c-24 45 -27 59 -63 59h-23v18h178
v-18h-59v-2c14 -5 23 -16 39 -45zM143 378c-18 33 -21 32 -39 39l14 -28l131 -242v-77c0 -14 -2 -32 -5 -44h27c-3 13 -4 30 -4 44v84zM272 624l101 -99l-25 -27l-37 42c-27 31 -48 50 -51 64h-4c-3 -14 -24 -33 -51 -64l-38 -42l-24 27l101 99h28z" />
    <glyph glyph-name="Ydieresis" unicode="&#x178;" 
d="M167 390l97 -176c5 -9 12 -25 14 -31h2c2 6 8 21 13 31l89 162c10 18 14 31 14 40c0 17 -15 21 -45 21h-37v18h184v-18h-26c-30 0 -33 -12 -60 -61l-119 -217v-89c0 -47 5 -53 52 -53h35v-17h-245v17h35c47 0 53 6 53 53v70l-128 238c-24 45 -27 59 -63 59h-23v18h178
v-18h-59v-2c14 -5 23 -16 39 -45zM143 378c-18 33 -21 32 -39 39l14 -28l131 -242v-77c0 -14 -2 -32 -5 -44h27c-3 13 -4 30 -4 44v84zM162 572c-13 0 -18 -5 -18 -18s5 -17 18 -17s17 4 17 17s-4 18 -17 18zM354 572c-13 0 -17 -5 -17 -18s4 -17 17 -17s18 4 18 17
s-5 18 -18 18zM162 598c26 0 43 -16 43 -44c0 -26 -15 -44 -43 -44c-26 0 -44 16 -44 44c0 26 16 44 44 44zM354 598c26 0 44 -16 44 -44c0 -26 -16 -44 -44 -44c-26 0 -44 16 -44 44c0 26 16 44 44 44z" />
    <glyph glyph-name="Zacute" unicode="&#x179;" horiz-adv-x="489" 
d="M295 604l-42 -49l42 32l8 10zM74 27c19 19 39 36 72 80l218 278l29 39l-6 4c-26 -18 -28 -25 -72 -81l-218 -278l-31 -38zM446 455v-18c-10 0 -21 -17 -61 -68l-218 -278c-23 -31 -39 -52 -53 -62v-3h192c92 0 126 8 131 99v7l18 -1l-9 -166h-18l3 44h-1
c-7 -7 -11 -9 -27 -9h-386v17c10 0 20 17 59 69l219 278c22 28 33 51 47 61v3h-158c-94 0 -128 -7 -133 -105l-18 1l9 166l17 -1l-2 -43c7 7 11 9 26 9h363zM303 621l15 -13c3 -3 5 -7 5 -10s-1 -5 -3 -8l-13 -15l-105 -82l-14 11l97 115c3 3 6 5 9 5s6 -1 9 -3z" />
    <glyph glyph-name="zacute" unicode="&#x17a;" horiz-adv-x="489" 
d="M295 604l-42 -49l42 32l8 10zM74 27c19 19 39 36 72 80l218 278l29 39l-6 4c-26 -18 -28 -25 -72 -81l-218 -278l-31 -38zM446 455v-18c-10 0 -21 -17 -61 -68l-218 -278c-23 -31 -39 -52 -53 -62v-3h192c92 0 126 8 131 99v7l18 -1l-9 -166h-18l3 44h-1
c-7 -7 -11 -9 -27 -9h-386v17c10 0 20 17 59 69l219 278c22 28 33 51 47 61v3h-158c-94 0 -128 -7 -133 -105l-18 1l9 166l17 -1l-2 -43c7 7 11 9 26 9h363zM303 621l15 -13c3 -3 5 -7 5 -10s-1 -5 -3 -8l-13 -15l-105 -82l-14 11l97 115c3 3 6 5 9 5s6 -1 9 -3z" />
    <glyph glyph-name="Zdotaccent" unicode="&#x17b;" horiz-adv-x="489" 
d="M236 615c26 0 44 -15 44 -43c0 -26 -16 -44 -44 -44c-26 0 -44 16 -44 44c0 26 16 43 44 43zM74 27c19 19 39 36 72 80l218 278l29 39l-6 4c-26 -18 -28 -25 -72 -81l-218 -278l-31 -38zM446 455v-18c-10 0 -21 -17 -61 -68l-218 -278c-23 -31 -39 -52 -53 -62v-3h192
c92 0 126 8 131 99v7l18 -1l-9 -166h-18l3 44h-1c-7 -7 -11 -9 -27 -9h-386v17c10 0 20 17 59 69l219 278c22 28 33 51 47 61v3h-158c-94 0 -128 -7 -133 -105l-18 1l9 166l17 -1l-2 -43c7 7 11 9 26 9h363zM236 589c-10 0 -17 -7 -17 -17s7 -18 17 -18s17 8 17 18
s-7 17 -17 17z" />
    <glyph glyph-name="zdotaccent" unicode="&#x17c;" horiz-adv-x="489" 
d="M236 615c26 0 44 -15 44 -43c0 -26 -16 -44 -44 -44c-26 0 -44 16 -44 44c0 26 16 43 44 43zM74 27c19 19 39 36 72 80l218 278l29 39l-6 4c-26 -18 -28 -25 -72 -81l-218 -278l-31 -38zM446 455v-18c-10 0 -21 -17 -61 -68l-218 -278c-23 -31 -39 -52 -53 -62v-3h192
c92 0 126 8 131 99v7l18 -1l-9 -166h-18l3 44h-1c-7 -7 -11 -9 -27 -9h-386v17c10 0 20 17 59 69l219 278c22 28 33 51 47 61v3h-158c-94 0 -128 -7 -133 -105l-18 1l9 166l17 -1l-2 -43c7 7 11 9 26 9h363zM236 589c-10 0 -17 -7 -17 -17s7 -18 17 -18s17 8 17 18
s-7 17 -17 17z" />
    <glyph glyph-name="Zcaron" unicode="&#x17d;" horiz-adv-x="489" 
d="M250 498h-28l-101 99l25 27l37 -42c28 -30 48 -49 51 -63h4c3 14 23 33 51 63l37 42l25 -27zM74 27c19 19 39 36 72 80l218 278l29 39l-6 4c-26 -18 -28 -25 -72 -81l-218 -278l-31 -38zM446 455v-18c-10 0 -21 -17 -61 -68l-218 -278c-23 -31 -39 -52 -53 -62v-3h201
c92 0 117 8 122 99v7l18 -1l-9 -166h-18l3 44h-1c-7 -7 -11 -9 -27 -9h-386v17c10 0 20 17 59 69l219 278c22 28 33 51 47 61v3h-167c-94 0 -119 -7 -124 -105l-18 1l9 166l17 -1l-2 -43c7 7 11 9 26 9h363zM199 542l-28 30l-24 30l-5 -4zM273 542l57 56l-5 4l-24 -30z" />
    <glyph glyph-name="zcaron" unicode="&#x17e;" horiz-adv-x="489" 
d="M250 498h-28l-101 99l25 27l37 -42c28 -30 48 -49 51 -63h4c3 14 23 33 51 63l37 42l25 -27zM74 27c19 19 39 36 72 80l218 278l29 39l-6 4c-26 -18 -28 -25 -72 -81l-218 -278l-31 -38zM446 455v-18c-10 0 -21 -17 -61 -68l-218 -278c-23 -31 -39 -52 -53 -62v-3h201
c92 0 117 8 122 99v7l18 -1l-9 -166h-18l3 44h-1c-7 -7 -11 -9 -27 -9h-386v17c10 0 20 17 59 69l219 278c22 28 33 51 47 61v3h-167c-94 0 -119 -7 -124 -105l-18 1l9 166l17 -1l-2 -43c7 7 11 9 26 9h363zM199 542l-28 30l-24 30l-5 -4zM273 542l57 56l-5 4l-24 -30z" />
    <glyph glyph-name="florin" unicode="&#x192;" horiz-adv-x="340" 
d="M96 -26h18l21 297l4 63c2 24 5 46 13 66c-18 -24 -31 -61 -34 -113c-3 -58 -14 -199 -22 -313zM313 422c-14 16 -34 24 -62 24c-51 0 -81 -40 -86 -114l-4 -61h87l-2 -27h-100v-1c6 -4 10 -9 10 -25v-6l-18 -264h-70l21 296h-61l2 27h61l1 17c6 119 64 184 161 184
c34 0 61 -13 78 -37z" />
    <glyph glyph-name="uni01CD" unicode="&#x1cd;" 
d="M9 0v17h11c36 0 37 6 57 53l164 393h55v-5v-9c0 -18 5 -40 10 -55l120 -324c19 -47 21 -53 57 -53h15v-17h-179v17h68v2c-14 5 -25 20 -31 37l-24 66h-205l-22 -53c-5 -13 -8 -23 -8 -30c0 -17 15 -22 50 -22h28v-17h-166zM322 149l-74 201c-6 15 -8 31 -8 39v4v2h-7v-2
v-2c0 -7 -4 -24 -11 -41l-84 -201h184zM267 421c0 -10 -1 -18 -1 -25c0 -11 0 -22 6 -37l109 -293c8 -21 16 -26 30 -32c-3 6 -6 17 -9 26l-121 325c-3 8 -6 22 -9 37zM276 498h-28l-101 99l25 27l37 -42c28 -30 48 -49 51 -63h4c3 14 24 33 52 63l37 42l24 -27z" />
    <glyph glyph-name="uni01CE" unicode="&#x1ce;" 
d="M9 0v17h11c36 0 37 6 57 53l164 393h55v-5v-9c0 -18 5 -40 10 -55l120 -324c19 -47 21 -53 57 -53h15v-17h-179v17h68v2c-14 5 -25 20 -31 37l-24 66h-205l-22 -53c-5 -13 -8 -23 -8 -30c0 -17 15 -22 50 -22h28v-17h-166zM322 149l-74 201c-6 15 -8 31 -8 39v4v2h-7v-2
v-2c0 -7 -4 -24 -11 -41l-84 -201h184zM267 421c0 -10 -1 -18 -1 -25c0 -11 0 -22 6 -37l109 -293c8 -21 16 -26 30 -32c-3 6 -6 17 -9 26l-121 325c-3 8 -6 22 -9 37zM276 498h-28l-101 99l25 27l37 -42c28 -30 48 -49 51 -63h4c3 14 24 33 52 63l37 42l24 -27z" />
    <glyph glyph-name="uni01CF" unicode="&#x1cf;" horiz-adv-x="262" 
d="M17 0v17h27c47 0 52 6 52 53v315c0 47 -5 52 -52 52h-27v18h228v-18h-26c-47 0 -53 -5 -53 -52v-315c0 -47 6 -53 53 -53h26v-17h-228zM118 428c3 -13 4 -34 4 -43v-315c0 -14 -1 -32 -4 -44h27c-3 13 -5 35 -5 44v315c0 14 2 31 5 43h-27zM145 498h-28l-101 99l25 27
l37 -42c28 -30 48 -49 51 -63h4c3 14 23 33 51 63l38 42l24 -27z" />
    <glyph glyph-name="uni01D0" unicode="&#x1d0;" horiz-adv-x="262" 
d="M17 0v17h27c47 0 52 6 52 53v315c0 47 -5 52 -52 52h-27v18h228v-18h-26c-47 0 -53 -5 -53 -52v-315c0 -47 6 -53 53 -53h26v-17h-228zM118 428c3 -13 4 -34 4 -43v-315c0 -14 -1 -32 -4 -44h27c-3 13 -5 35 -5 44v315c0 14 2 31 5 43h-27zM145 498h-28l-101 99l25 27
l37 -42c28 -30 48 -49 51 -63h4c3 14 23 33 51 63l38 42l24 -27z" />
    <glyph glyph-name="uni01D1" unicode="&#x1d1;" 
d="M412 94c22 35 34 81 34 133c0 73 -23 133 -64 171c26 -42 44 -107 44 -206c0 -38 -5 -70 -14 -98zM95 361c-22 -35 -34 -82 -34 -134c0 -73 23 -133 64 -171c-26 42 -44 107 -44 206c0 38 5 71 14 99zM400 192c0 165 -53 254 -150 254c-93 0 -143 -65 -143 -184
c0 -165 53 -253 150 -253c93 0 143 64 143 183zM35 227c0 147 87 245 218 245s219 -98 219 -245s-88 -244 -219 -244s-218 97 -218 244zM267 498h-27l-101 99l24 27l37 -42c28 -30 48 -49 51 -63h5c3 14 23 33 51 63l37 42l24 -27z" />
    <glyph glyph-name="uni01D2" unicode="&#x1d2;" 
d="M412 94c22 35 34 81 34 133c0 73 -23 133 -64 171c26 -42 44 -107 44 -206c0 -38 -5 -70 -14 -98zM95 361c-22 -35 -34 -82 -34 -134c0 -73 23 -133 64 -171c-26 42 -44 107 -44 206c0 38 5 71 14 99zM400 192c0 165 -53 254 -150 254c-93 0 -143 -65 -143 -184
c0 -165 53 -253 150 -253c93 0 143 64 143 183zM35 227c0 147 87 245 218 245s219 -98 219 -245s-88 -244 -219 -244s-218 97 -218 244zM267 498h-27l-101 99l24 27l37 -42c28 -30 48 -49 51 -63h5c3 14 23 33 51 63l37 42l24 -27z" />
    <glyph glyph-name="uni01D3" unicode="&#x1d3;" horiz-adv-x="524" 
d="M17 455h219v-18h-26c-47 0 -53 -5 -53 -52v-254c0 -80 39 -122 110 -122c87 0 144 59 144 148v228c0 47 -6 52 -53 52h-26v18h175v-18h-19c-47 0 -51 -5 -51 -52v-228c0 -105 -68 -174 -170 -174c-108 0 -180 69 -180 174v228c0 47 -5 52 -52 52h-18v18zM136 428h-27
c3 -13 5 -31 5 -43v-228c0 -36 9 -67 27 -91c-7 19 -10 40 -10 65v254c0 14 2 31 5 43zM289 498h-28l-101 99l25 27l37 -42c28 -30 48 -49 51 -63h5c3 14 23 33 51 63l37 42l24 -27z" />
    <glyph glyph-name="uni01D4" unicode="&#x1d4;" horiz-adv-x="524" 
d="M17 455h219v-18h-26c-47 0 -53 -5 -53 -52v-254c0 -80 39 -122 110 -122c87 0 144 59 144 148v228c0 47 -6 52 -53 52h-26v18h175v-18h-19c-47 0 -51 -5 -51 -52v-228c0 -105 -68 -174 -170 -174c-108 0 -180 69 -180 174v228c0 47 -5 52 -52 52h-18v18zM136 428h-27
c3 -13 5 -31 5 -43v-228c0 -36 9 -67 27 -91c-7 19 -10 40 -10 65v254c0 14 2 31 5 43zM289 498h-28l-101 99l25 27l37 -42c28 -30 48 -49 51 -63h5c3 14 23 33 51 63l37 42l24 -27z" />
    <glyph glyph-name="uni01E2" unicode="&#x1e2;" horiz-adv-x="708" 
d="M376 79v297c0 14 -6 24 -14 32l-5 5c1 -11 1 -22 1 -28v-315c0 -8 0 -18 -1 -28l5 4c8 8 14 19 14 33zM105 69c-3 -8 -4 -14 -4 -20c0 -20 15 -32 46 -32h15v-17h-153v17h15c24 0 39 19 53 53l124 315c6 14 10 37 10 55v10v5h366c16 0 20 -2 27 -9l-3 48l17 1l11 -172
h-17c-6 94 -28 105 -122 105h-110v-1c12 -12 22 -29 22 -51v-131h43c46 0 52 10 52 96h18v-219h-18c0 86 -6 97 -52 97h-43v-140c0 -22 -10 -39 -22 -51v-2h162c94 0 108 11 114 105h17l-11 -172l-18 1l4 49h-1c-7 -7 -10 -9 -26 -9h-363v17h22c47 0 52 6 52 53v70h-199z
M143 166h189v192c0 40 -18 62 -52 62h-41c0 -10 -19 -57 -27 -78zM500 524h-268l2 27h269z" />
    <glyph glyph-name="uni01E3" unicode="&#x1e3;" horiz-adv-x="708" 
d="M376 79v297c0 14 -6 24 -14 32l-5 5c1 -11 1 -22 1 -28v-315c0 -8 0 -18 -1 -28l5 4c8 8 14 19 14 33zM105 69c-3 -8 -4 -14 -4 -20c0 -20 15 -32 46 -32h15v-17h-153v17h15c24 0 39 19 53 53l124 315c6 14 10 37 10 55v10v5h366c16 0 20 -2 27 -9l-3 48l17 1l11 -172
h-17c-6 94 -28 105 -122 105h-110v-1c12 -12 22 -29 22 -51v-131h43c46 0 52 10 52 96h18v-219h-18c0 86 -6 97 -52 97h-43v-140c0 -22 -10 -39 -22 -51v-2h162c94 0 108 11 114 105h17l-11 -172l-18 1l4 49h-1c-7 -7 -10 -9 -26 -9h-363v17h22c47 0 52 6 52 53v70h-199z
M143 166h189v192c0 40 -18 62 -52 62h-41c0 -10 -19 -57 -27 -78zM500 524h-268l2 27h269z" />
    <glyph glyph-name="Gcaron" unicode="&#x1e6;" horiz-adv-x="541" 
d="M402 76v64c0 47 -5 52 -52 52h-88v18h280v-18h-18c-47 0 -52 -5 -52 -52v-179h-17v41c0 30 -15 46 -30 46c-6 0 -13 -3 -18 -8c-36 -36 -76 -57 -136 -57c-136 0 -236 97 -236 242c0 149 104 247 233 247c41 0 100 -12 137 -36c8 -6 11 -13 14 -23h4c-2 7 -5 11 -5 25
l-2 42l18 1l7 -157l-25 -1v3c-10 86 -83 120 -148 120c-94 0 -161 -73 -161 -208c0 -149 65 -229 170 -229c55 0 94 23 125 67zM424 184c3 -13 4 -32 4 -44v-67h1c6 0 12 -1 17 -3v70c0 12 2 31 5 44h-27zM107 368c-29 -37 -46 -85 -46 -143c0 -66 23 -121 61 -159
c-26 42 -41 101 -41 172c0 52 9 95 26 130zM267 498h-27l-101 99l24 27l37 -42c28 -30 48 -49 51 -63h5c3 14 23 33 51 63l37 42l24 -27z" />
    <glyph glyph-name="gcaron" unicode="&#x1e7;" horiz-adv-x="541" 
d="M402 76v64c0 47 -5 52 -52 52h-88v18h280v-18h-18c-47 0 -52 -5 -52 -52v-179h-17v41c0 30 -15 46 -30 46c-6 0 -13 -3 -18 -8c-36 -36 -76 -57 -136 -57c-136 0 -236 97 -236 242c0 149 104 247 233 247c41 0 100 -12 137 -36c8 -6 11 -13 14 -23h4c-2 7 -5 11 -5 25
l-2 42l18 1l7 -157l-25 -1v3c-10 86 -83 120 -148 120c-94 0 -161 -73 -161 -208c0 -149 65 -229 170 -229c55 0 94 23 125 67zM424 184c3 -13 4 -32 4 -44v-67h1c6 0 12 -1 17 -3v70c0 12 2 31 5 44h-27zM107 368c-29 -37 -46 -85 -46 -143c0 -66 23 -121 61 -159
c-26 42 -41 101 -41 172c0 52 9 95 26 130zM267 498h-27l-101 99l24 27l37 -42c28 -30 48 -49 51 -63h5c3 14 23 33 51 63l37 42l24 -27z" />
    <glyph glyph-name="uni01E8" unicode="&#x1e8;" horiz-adv-x="515" 
d="M149 385c0 14 1 31 4 43h-27c3 -13 5 -31 5 -43v-315c0 -17 -3 -32 -10 -44h19c3 6 9 12 9 28v121v64v146zM264 216c21 -26 42 -59 65 -92c98 -141 158 -210 214 -240c-49 41 -103 112 -196 245c-31 44 -49 69 -83 87zM674 -135c28 0 60 9 84 25l9 -15
c-35 -27 -77 -40 -119 -40c-124 0 -186 52 -341 274c-32 45 -60 94 -87 115l-45 -58v-121c0 -16 -2 -19 -9 -26v-2h66v-17h-215v17h35c35 0 53 18 53 53v315c0 47 -6 52 -53 52h-35v18h219v-18h-9c-47 0 -52 -5 -52 -52v-146c0 -15 -2 -31 -3 -34l3 -2c1 3 7 17 17 29
l131 167c25 32 29 32 39 36v2h-37v18h162v-18h-23c-47 0 -83 -7 -124 -59l-95 -122v-3c62 -21 85 -55 123 -109c169 -243 212 -279 306 -279zM276 498h-28l-101 99l25 27l37 -42c28 -30 48 -49 51 -63h4c3 14 24 33 52 63l37 42l24 -27z" />
    <glyph glyph-name="uni01E9" unicode="&#x1e9;" horiz-adv-x="533" 
d="M441 9c-24 18 -42 46 -56 66l-38 54c-29 42 -48 68 -83 87c20 -25 41 -57 65 -92l28 -40c44 -61 61 -75 84 -75zM149 385c0 14 1 31 4 43h-27c3 -13 5 -30 5 -43v-315c0 -17 -3 -32 -10 -44h19c5 5 9 12 9 28v121v64v146zM17 455h219v-18h-9c-47 0 -52 -5 -52 -52v-146
c0 -15 -2 -31 -3 -34l3 -2c1 3 7 17 17 29l131 167c25 32 29 32 39 36v2h-37v18h162v-18h-23c-47 0 -83 -7 -124 -59l-95 -122v-3c62 -21 85 -55 123 -109l38 -54c25 -35 48 -73 87 -73h10l28 5l2 -18c-36 -12 -69 -21 -92 -21c-39 0 -63 27 -105 86l-29 40
c-32 45 -60 94 -87 115l-45 -58v-121c0 -16 -2 -19 -9 -26v-2h66v-17h-215v17h35c35 0 53 18 53 53v315c0 47 -6 52 -53 52h-35v18zM276 498h-28l-101 99l25 27l37 -42c28 -30 48 -49 51 -63h4c3 14 24 33 52 63l37 42l24 -27z" />
    <glyph glyph-name="uni01EA" unicode="&#x1ea;" 
d="M250 -55c-17 -21 -27 -43 -27 -60c0 -18 7 -36 32 -43c-11 10 -19 26 -19 47c0 18 5 37 14 56zM412 94c22 35 34 81 34 133c0 73 -23 133 -64 171c26 -42 44 -107 44 -206c0 -38 -5 -70 -14 -98zM95 361c-22 -35 -34 -82 -34 -134c0 -73 23 -133 64 -171
c-26 42 -44 107 -44 206c0 38 5 71 14 99zM35 227c0 147 87 245 218 245s219 -98 219 -245c0 -118 -63 -203 -149 -233c-43 -20 -70 -66 -70 -105c0 -32 18 -42 39 -42c19 0 41 10 53 13l7 -26c-29 -8 -52 -13 -71 -13c-57 0 -76 33 -76 64c0 32 23 70 60 98l-1 2
c-3 -2 -9 -2 -11 -2c-131 0 -218 97 -218 244zM400 192c0 165 -53 254 -150 254c-93 0 -143 -65 -143 -184c0 -165 53 -253 150 -253c93 0 143 64 143 183z" />
    <glyph glyph-name="uni01EB" unicode="&#x1eb;" 
d="M250 -55c-17 -21 -27 -43 -27 -60c0 -18 7 -36 32 -43c-11 10 -19 26 -19 47c0 18 5 37 14 56zM412 94c22 35 34 81 34 133c0 73 -23 133 -64 171c26 -42 44 -107 44 -206c0 -38 -5 -70 -14 -98zM95 361c-22 -35 -34 -82 -34 -134c0 -73 23 -133 64 -171
c-26 42 -44 107 -44 206c0 38 5 71 14 99zM35 227c0 147 87 245 218 245s219 -98 219 -245c0 -118 -63 -203 -149 -233c-43 -20 -70 -66 -70 -105c0 -32 18 -42 39 -42c19 0 41 10 53 13l7 -26c-29 -8 -52 -13 -71 -13c-57 0 -76 33 -76 64c0 32 23 70 60 98l-1 2
c-3 -2 -9 -2 -11 -2c-131 0 -218 97 -218 244zM400 192c0 165 -53 254 -150 254c-93 0 -143 -65 -143 -184c0 -165 53 -253 150 -253c93 0 143 64 143 183z" />
    <glyph glyph-name="uni01EC" unicode="&#x1ec;" 
d="M412 94c22 35 34 81 34 133c0 73 -23 133 -64 171c26 -42 44 -107 44 -206c0 -38 -5 -70 -14 -98zM95 361c-22 -35 -34 -82 -34 -134c0 -73 23 -133 64 -171c-26 42 -44 107 -44 206c0 38 5 71 14 99zM35 227c0 147 87 245 218 245s219 -98 219 -245
c0 -118 -63 -203 -149 -233c-43 -20 -70 -66 -70 -105c0 -32 18 -42 39 -42c19 0 41 10 53 13l7 -26c-29 -8 -52 -13 -71 -13c-57 0 -76 33 -76 64c0 32 23 70 60 98l-1 2c-3 -2 -9 -2 -11 -2c-131 0 -218 97 -218 244zM400 192c0 165 -53 254 -150 254
c-93 0 -143 -65 -143 -184c0 -165 53 -253 150 -253c93 0 143 64 143 183zM387 568h-269l2 26h269z" />
    <glyph glyph-name="uni01ED" unicode="&#x1ed;" 
d="M412 94c22 35 34 81 34 133c0 73 -23 133 -64 171c26 -42 44 -107 44 -206c0 -38 -5 -70 -14 -98zM95 361c-22 -35 -34 -82 -34 -134c0 -73 23 -133 64 -171c-26 42 -44 107 -44 206c0 38 5 71 14 99zM35 227c0 147 87 245 218 245s219 -98 219 -245
c0 -118 -63 -203 -149 -233c-43 -20 -70 -66 -70 -105c0 -32 18 -42 39 -42c19 0 41 10 53 13l7 -26c-29 -8 -52 -13 -71 -13c-57 0 -76 33 -76 64c0 32 23 70 60 98l-1 2c-3 -2 -9 -2 -11 -2c-131 0 -218 97 -218 244zM400 192c0 165 -53 254 -150 254
c-93 0 -143 -65 -143 -184c0 -165 53 -253 150 -253c93 0 143 64 143 183zM387 568h-269l2 26h269z" />
    <glyph glyph-name="uni01F0" unicode="&#x1f0;" horiz-adv-x="332" 
d="M184 409v-295c0 -19 -3 -37 -7 -52c16 23 24 53 24 87v236c0 17 3 31 10 43h-19c-4 -3 -8 -12 -8 -19zM157 409c0 16 2 19 9 26v2h-96v18h245v-18h-35c-35 0 -53 -17 -53 -52v-236c0 -100 -66 -166 -165 -166c-21 0 -41 4 -56 9l7 28c31 -9 41 -11 57 -11
c56 0 87 43 87 105v295zM206 498h-28l-101 99l25 27l37 -42c28 -30 48 -49 51 -63h4c3 14 24 33 52 63l37 42l24 -27z" />
    <glyph glyph-name="uni01F4" unicode="&#x1f4;" horiz-adv-x="541" 
d="M402 76v64c0 47 -5 52 -52 52h-88v18h280v-18h-18c-47 0 -52 -5 -52 -52v-179h-17v41c0 30 -15 46 -30 46c-6 0 -13 -3 -18 -8c-36 -36 -76 -57 -136 -57c-136 0 -236 97 -236 242c0 149 104 247 233 247c41 0 100 -12 137 -36c8 -6 11 -13 14 -23h4c-2 7 -5 11 -5 25
l-2 42l18 1l7 -157l-25 -1v3c-10 86 -83 120 -148 120c-94 0 -161 -73 -161 -208c0 -149 65 -229 170 -229c55 0 94 23 125 67zM424 184c3 -13 4 -32 4 -44v-67h1c6 0 12 -1 17 -3v70c0 12 2 31 5 44h-27zM107 368c-29 -37 -46 -85 -46 -143c0 -66 23 -121 61 -159
c-26 42 -41 101 -41 172c0 52 9 95 26 130zM312 604l-41 -49l41 32l9 10zM320 621l16 -13c3 -3 5 -7 5 -10s-2 -5 -4 -8l-12 -15l-105 -82l-14 11l96 115c3 3 7 5 10 5s5 -1 8 -3z" />
    <glyph glyph-name="uni01F5" unicode="&#x1f5;" horiz-adv-x="541" 
d="M402 76v64c0 47 -5 52 -52 52h-88v18h280v-18h-18c-47 0 -52 -5 -52 -52v-179h-17v41c0 30 -15 46 -30 46c-6 0 -13 -3 -18 -8c-36 -36 -76 -57 -136 -57c-136 0 -236 97 -236 242c0 149 104 247 233 247c41 0 100 -12 137 -36c8 -6 11 -13 14 -23h4c-2 7 -5 11 -5 25
l-2 42l18 1l7 -157l-25 -1v3c-10 86 -83 120 -148 120c-94 0 -161 -73 -161 -208c0 -149 65 -229 170 -229c55 0 94 23 125 67zM424 184c3 -13 4 -32 4 -44v-67h1c6 0 12 -1 17 -3v70c0 12 2 31 5 44h-27zM107 368c-29 -37 -46 -85 -46 -143c0 -66 23 -121 61 -159
c-26 42 -41 101 -41 172c0 52 9 95 26 130zM312 604l-41 -49l41 32l9 10zM320 621l16 -13c3 -3 5 -7 5 -10s-2 -5 -4 -8l-12 -15l-105 -82l-14 11l96 115c3 3 7 5 10 5s5 -1 8 -3z" />
    <glyph glyph-name="uni01F8" unicode="&#x1f8;" horiz-adv-x="533" 
d="M17 455h138l234 -320c13 -17 17 -34 17 -37h7c-1 10 -2 25 -2 42v245c0 47 -6 52 -53 52h-26v18h184v-18h-26c-47 0 -53 -5 -53 -52v-394h-30l-261 356c-13 17 -19 35 -19 38h-6c1 -11 1 -24 1 -41v-274c0 -47 6 -53 53 -53h35v-17h-193v17h27c47 0 52 6 52 53v315
c0 47 -5 52 -52 52h-27v18zM149 418c0 -24 1 -29 18 -56l220 -299c-3 29 -5 35 -20 56zM195 604l-8 -7l8 -10l42 -32zM187 621c3 2 6 3 9 3s6 -2 9 -5l97 -115l-14 -11l-105 82l-13 15c-2 3 -3 5 -3 8s2 7 5 10z" />
    <glyph glyph-name="uni01F9" unicode="&#x1f9;" horiz-adv-x="533" 
d="M17 455h138l234 -320c13 -17 17 -34 17 -37h7c-1 10 -2 25 -2 42v245c0 47 -6 52 -53 52h-26v18h184v-18h-26c-47 0 -53 -5 -53 -52v-394h-30l-261 356c-13 17 -19 35 -19 38h-6c1 -11 1 -24 1 -41v-274c0 -47 6 -53 53 -53h35v-17h-193v17h27c47 0 52 6 52 53v315
c0 47 -5 52 -52 52h-27v18zM149 418c0 -24 1 -29 18 -56l220 -299c-3 29 -5 35 -20 56zM195 604l-8 -7l8 -10l42 -32zM187 621c3 2 6 3 9 3s6 -2 9 -5l97 -115l-14 -11l-105 82l-13 15c-2 3 -3 5 -3 8s2 7 5 10z" />
    <glyph glyph-name="AEacute" unicode="&#x1fc;" horiz-adv-x="708" 
d="M426 604l-42 -49l42 32l8 10zM434 621l15 -13c3 -3 6 -7 6 -10s-2 -5 -4 -8l-13 -15l-105 -82l-14 11l97 115c3 3 6 5 9 5s6 -1 9 -3zM376 79v297c0 14 -6 24 -14 32l-5 5c1 -11 1 -22 1 -28v-315c0 -8 0 -18 -1 -28l5 4c8 8 14 19 14 33zM105 69c-3 -8 -4 -14 -4 -20
c0 -20 15 -32 46 -32h15v-17h-153v17h15c24 0 39 19 53 53l124 315c6 14 10 37 10 55v10v5h366c16 0 20 -2 27 -9l-3 48l17 1l11 -172h-17c-6 94 -28 105 -122 105h-110v-1c12 -12 22 -29 22 -51v-131h43c46 0 52 10 52 96h18v-219h-18c0 86 -6 97 -52 97h-43v-140
c0 -22 -10 -39 -22 -51v-2h162c94 0 108 11 114 105h17l-11 -172l-18 1l4 49h-1c-7 -7 -10 -9 -26 -9h-363v17h22c47 0 52 6 52 53v70h-199zM143 166h189v192c0 40 -18 62 -52 62h-41c0 -10 -19 -57 -27 -78z" />
    <glyph glyph-name="aeacute" unicode="&#x1fd;" horiz-adv-x="708" 
d="M426 604l-42 -49l42 32l8 10zM434 621l15 -13c3 -3 6 -7 6 -10s-2 -5 -4 -8l-13 -15l-105 -82l-14 11l97 115c3 3 6 5 9 5s6 -1 9 -3zM376 79v297c0 14 -6 24 -14 32l-5 5c1 -11 1 -22 1 -28v-315c0 -8 0 -18 -1 -28l5 4c8 8 14 19 14 33zM105 69c-3 -8 -4 -14 -4 -20
c0 -20 15 -32 46 -32h15v-17h-153v17h15c24 0 39 19 53 53l124 315c6 14 10 37 10 55v10v5h366c16 0 20 -2 27 -9l-3 48l17 1l11 -172h-17c-6 94 -28 105 -122 105h-110v-1c12 -12 22 -29 22 -51v-131h43c46 0 52 10 52 96h18v-219h-18c0 86 -6 97 -52 97h-43v-140
c0 -22 -10 -39 -22 -51v-2h162c94 0 108 11 114 105h17l-11 -172l-18 1l4 49h-1c-7 -7 -10 -9 -26 -9h-363v17h22c47 0 52 6 52 53v70h-199zM143 166h189v192c0 40 -18 62 -52 62h-41c0 -10 -19 -57 -27 -78z" />
    <glyph glyph-name="Oslashacute" unicode="&#x1fe;" horiz-adv-x="489" 
d="M304 604l-42 -49l42 32l8 10zM312 621l15 -13c3 -3 5 -7 5 -10s-1 -5 -3 -8l-13 -15l-105 -82l-14 11l96 115c3 3 7 5 10 5s6 -1 9 -3zM395 94c22 35 33 81 33 133c0 73 -23 133 -64 171c26 -42 45 -107 45 -206c0 -38 -5 -70 -14 -98zM95 361c-22 -35 -34 -82 -34 -134
c0 -73 23 -133 64 -171c-26 42 -44 107 -44 206c0 38 5 71 14 99zM80 -17l-21 16l37 50c-39 42 -61 104 -61 178c0 144 84 241 210 241c51 0 94 -16 129 -44l35 47l21 -16l-37 -49c39 -42 62 -105 62 -179c0 -144 -84 -240 -210 -240c-51 0 -95 16 -130 44zM146 72
c24 -39 58 -59 102 -59c87 0 134 63 134 179c0 68 -8 123 -25 164zM133 98l211 284c-24 39 -59 59 -103 59c-87 0 -134 -63 -134 -179c0 -68 9 -123 26 -164z" />
    <glyph glyph-name="oslashacute" unicode="&#x1ff;" horiz-adv-x="489" 
d="M304 604l-42 -49l42 32l8 10zM312 621l15 -13c3 -3 5 -7 5 -10s-1 -5 -3 -8l-13 -15l-105 -82l-14 11l96 115c3 3 7 5 10 5s6 -1 9 -3zM395 94c22 35 33 81 33 133c0 73 -23 133 -64 171c26 -42 45 -107 45 -206c0 -38 -5 -70 -14 -98zM95 361c-22 -35 -34 -82 -34 -134
c0 -73 23 -133 64 -171c-26 42 -44 107 -44 206c0 38 5 71 14 99zM80 -17l-21 16l37 50c-39 42 -61 104 -61 178c0 144 84 241 210 241c51 0 94 -16 129 -44l35 47l21 -16l-37 -49c39 -42 62 -105 62 -179c0 -144 -84 -240 -210 -240c-51 0 -95 16 -130 44zM146 72
c24 -39 58 -59 102 -59c87 0 134 63 134 179c0 68 -8 123 -25 164zM133 98l211 284c-24 39 -59 59 -103 59c-87 0 -134 -63 -134 -179c0 -68 9 -123 26 -164z" />
    <glyph glyph-name="uni0200" unicode="&#x200;" 
d="M9 0v17h11c36 0 37 6 57 53l164 393h55v-5v-9c0 -18 5 -40 10 -55l120 -324c19 -47 21 -53 57 -53h15v-17h-179v17h68v2c-14 5 -25 20 -31 37l-24 66h-205l-22 -53c-5 -13 -8 -23 -8 -30c0 -17 15 -22 50 -22h28v-17h-166zM322 149l-74 201c-6 15 -8 31 -8 39v4v2h-7v-2
v-2c0 -7 -4 -24 -11 -41l-84 -201h184zM267 421c0 -10 -1 -18 -1 -25c0 -11 0 -22 6 -37l109 -293c8 -21 16 -26 30 -32c-3 6 -6 17 -9 26l-121 325c-3 8 -6 22 -9 37zM132 624l95 -111l-13 -11l-92 80l-17 19zM289 624l96 -111l-13 -11l-93 80l-17 19z" />
    <glyph glyph-name="uni0201" unicode="&#x201;" 
d="M9 0v17h11c36 0 37 6 57 53l164 393h55v-5v-9c0 -18 5 -40 10 -55l120 -324c19 -47 21 -53 57 -53h15v-17h-179v17h68v2c-14 5 -25 20 -31 37l-24 66h-205l-22 -53c-5 -13 -8 -23 -8 -30c0 -17 15 -22 50 -22h28v-17h-166zM322 149l-74 201c-6 15 -8 31 -8 39v4v2h-7v-2
v-2c0 -7 -4 -24 -11 -41l-84 -201h184zM267 421c0 -10 -1 -18 -1 -25c0 -11 0 -22 6 -37l109 -293c8 -21 16 -26 30 -32c-3 6 -6 17 -9 26l-121 325c-3 8 -6 22 -9 37zM132 624l95 -111l-13 -11l-92 80l-17 19zM289 624l96 -111l-13 -11l-93 80l-17 19z" />
    <glyph glyph-name="uni0202" unicode="&#x202;" 
d="M9 0v17h11c36 0 37 6 57 53l164 393h55v-5v-9c0 -18 5 -40 10 -55l120 -324c19 -47 21 -53 57 -53h15v-17h-179v17h68v2c-14 5 -25 20 -31 37l-24 66h-205l-22 -53c-5 -13 -8 -23 -8 -30c0 -17 15 -22 50 -22h28v-17h-166zM322 149l-74 201c-6 15 -8 31 -8 39v4v2h-7v-2
v-2c0 -7 -4 -24 -11 -41l-84 -201h184zM267 421c0 -10 -1 -18 -1 -25c0 -11 0 -22 6 -37l109 -293c8 -21 16 -26 30 -32c-3 6 -6 17 -9 26l-121 325c-3 8 -6 22 -9 37zM192 575c22 16 46 22 70 22c25 0 49 -7 72 -22c-23 21 -48 33 -72 33c-22 0 -46 -10 -70 -33zM122 507
c42 80 91 117 140 117c53 0 106 -42 140 -117l-17 -9c-34 50 -78 82 -123 82c-38 0 -76 -21 -118 -82z" />
    <glyph glyph-name="uni0203" unicode="&#x203;" 
d="M9 0v17h11c36 0 37 6 57 53l164 393h55v-5v-9c0 -18 5 -40 10 -55l120 -324c19 -47 21 -53 57 -53h15v-17h-179v17h68v2c-14 5 -25 20 -31 37l-24 66h-205l-22 -53c-5 -13 -8 -23 -8 -30c0 -17 15 -22 50 -22h28v-17h-166zM322 149l-74 201c-6 15 -8 31 -8 39v4v2h-7v-2
v-2c0 -7 -4 -24 -11 -41l-84 -201h184zM267 421c0 -10 -1 -18 -1 -25c0 -11 0 -22 6 -37l109 -293c8 -21 16 -26 30 -32c-3 6 -6 17 -9 26l-121 325c-3 8 -6 22 -9 37zM192 575c22 16 46 22 70 22c25 0 49 -7 72 -22c-23 21 -48 33 -72 33c-22 0 -46 -10 -70 -33zM122 507
c42 80 91 117 140 117c53 0 106 -42 140 -117l-17 -9c-34 50 -78 82 -123 82c-38 0 -76 -21 -118 -82z" />
    <glyph glyph-name="uni0204" unicode="&#x204;" horiz-adv-x="489" 
d="M97 624l95 -111l-13 -11l-92 80l-17 19zM254 624l96 -111l-13 -11l-93 80l-17 19zM17 455h342c16 0 19 -2 26 -9l-3 48l17 1l12 -172h-18c-6 94 -37 105 -131 105h-118v-1c12 -12 22 -29 22 -51v-131h52c46 0 52 10 52 96h18v-219h-18c0 86 -6 97 -52 97h-52v-140
c0 -22 -10 -39 -22 -51v-2h162c94 0 125 11 131 105h18l-12 -172l-17 1l3 49c-7 -7 -10 -9 -26 -9h-386v17h27c47 0 52 6 52 53v315c0 47 -5 52 -52 52h-27v18zM140 79v297c0 14 -6 24 -14 32l-5 5c1 -11 1 -22 1 -28v-315c0 -8 0 -18 -1 -28l5 4c8 8 14 19 14 33zM95 606
l-7 -6l8 -9l46 -39zM253 606l-7 -6l7 -9l46 -39z" />
    <glyph glyph-name="uni0205" unicode="&#x205;" horiz-adv-x="489" 
d="M97 624l95 -111l-13 -11l-92 80l-17 19zM254 624l96 -111l-13 -11l-93 80l-17 19zM17 455h342c16 0 19 -2 26 -9l-3 48l17 1l12 -172h-18c-6 94 -37 105 -131 105h-118v-1c12 -12 22 -29 22 -51v-131h52c46 0 52 10 52 96h18v-219h-18c0 86 -6 97 -52 97h-52v-140
c0 -22 -10 -39 -22 -51v-2h162c94 0 125 11 131 105h18l-12 -172l-17 1l3 49c-7 -7 -10 -9 -26 -9h-386v17h27c47 0 52 6 52 53v315c0 47 -5 52 -52 52h-27v18zM140 79v297c0 14 -6 24 -14 32l-5 5c1 -11 1 -22 1 -28v-315c0 -8 0 -18 -1 -28l5 4c8 8 14 19 14 33zM95 606
l-7 -6l8 -9l46 -39zM253 606l-7 -6l7 -9l46 -39z" />
    <glyph glyph-name="uni0206" unicode="&#x206;" horiz-adv-x="489" 
d="M153 583c22 16 46 23 70 23c25 0 49 -8 72 -23c-23 21 -49 33 -73 33c-22 0 -45 -10 -69 -33zM17 455h342c16 0 19 -2 26 -9l-3 48l17 1l12 -172h-18c-6 94 -37 105 -131 105h-118v-1c12 -12 22 -29 22 -51v-131h52c46 0 52 10 52 96h18v-219h-18c0 86 -6 97 -52 97h-52
v-140c0 -22 -10 -39 -22 -51v-2h162c94 0 125 11 131 105h18l-12 -172l-17 1l3 49c-7 -7 -10 -9 -26 -9h-386v17h27c47 0 52 6 52 53v315c0 47 -5 52 -52 52h-27v18zM140 79v297c0 14 -6 24 -14 32l-5 5c1 -11 1 -22 1 -28v-315c0 -8 0 -18 -1 -28l5 4c8 8 14 19 14 33z
M83 516c42 80 90 117 139 117c53 0 107 -42 141 -117l-18 -9c-34 50 -77 82 -122 82c-38 0 -76 -21 -118 -82z" />
    <glyph glyph-name="uni0207" unicode="&#x207;" horiz-adv-x="489" 
d="M153 583c22 16 46 23 70 23c25 0 49 -8 72 -23c-23 21 -49 33 -73 33c-22 0 -45 -10 -69 -33zM17 455h342c16 0 19 -2 26 -9l-3 48l17 1l12 -172h-18c-6 94 -37 105 -131 105h-118v-1c12 -12 22 -29 22 -51v-131h52c46 0 52 10 52 96h18v-219h-18c0 86 -6 97 -52 97h-52
v-140c0 -22 -10 -39 -22 -51v-2h162c94 0 125 11 131 105h18l-12 -172l-17 1l3 49c-7 -7 -10 -9 -26 -9h-386v17h27c47 0 52 6 52 53v315c0 47 -5 52 -52 52h-27v18zM140 79v297c0 14 -6 24 -14 32l-5 5c1 -11 1 -22 1 -28v-315c0 -8 0 -18 -1 -28l5 4c8 8 14 19 14 33z
M83 516c42 80 90 117 139 117c53 0 107 -42 141 -117l-18 -9c-34 50 -77 82 -122 82c-38 0 -76 -21 -118 -82z" />
    <glyph glyph-name="uni0208" unicode="&#x208;" horiz-adv-x="262" 
d="M17 0v17h27c47 0 52 6 52 53v315c0 47 -5 52 -52 52h-27v18h228v-18h-26c-47 0 -53 -5 -53 -52v-315c0 -47 6 -53 53 -53h26v-17h-228zM118 428c3 -13 4 -34 4 -43v-315c0 -14 -1 -32 -4 -44h27c-3 13 -5 35 -5 44v315c0 14 2 31 5 43h-27zM27 624l95 -111l-13 -11
l-92 80l-17 19zM140 624l96 -111l-13 -11l-93 80l-16 19zM25 606l-7 -6l8 -9l46 -39zM139 606l-7 -6l7 -9l47 -39z" />
    <glyph glyph-name="uni0209" unicode="&#x209;" horiz-adv-x="262" 
d="M17 0v17h27c47 0 52 6 52 53v315c0 47 -5 52 -52 52h-27v18h228v-18h-26c-47 0 -53 -5 -53 -52v-315c0 -47 6 -53 53 -53h26v-17h-228zM118 428c3 -13 4 -34 4 -43v-315c0 -14 -1 -32 -4 -44h27c-3 13 -5 35 -5 44v315c0 14 2 31 5 43h-27zM27 624l95 -111l-13 -11
l-92 80l-17 19zM140 624l96 -111l-13 -11l-93 80l-16 19zM25 606l-7 -6l8 -9l46 -39zM139 606l-7 -6l7 -9l47 -39z" />
    <glyph glyph-name="uni020A" unicode="&#x20a;" horiz-adv-x="262" 
d="M17 0v17h27c47 0 52 6 52 53v315c0 47 -5 52 -52 52h-27v18h228v-18h-26c-47 0 -53 -5 -53 -52v-315c0 -47 6 -53 53 -53h26v-17h-228zM118 428c3 -13 4 -34 4 -43v-315c0 -14 -1 -32 -4 -44h27c-3 13 -5 35 -5 44v315c0 14 2 31 5 43h-27zM20 503c34 72 72 106 111 106
c42 0 85 -39 112 -106l-14 -7c-27 45 -61 74 -97 74c-30 0 -62 -19 -95 -74zM97 580c10 4 23 7 35 7c11 0 22 -2 35 -7c-12 7 -24 12 -36 12c-10 0 -22 -3 -34 -12z" />
    <glyph glyph-name="uni020B" unicode="&#x20b;" horiz-adv-x="262" 
d="M17 0v17h27c47 0 52 6 52 53v315c0 47 -5 52 -52 52h-27v18h228v-18h-26c-47 0 -53 -5 -53 -52v-315c0 -47 6 -53 53 -53h26v-17h-228zM118 428c3 -13 4 -34 4 -43v-315c0 -14 -1 -32 -4 -44h27c-3 13 -5 35 -5 44v315c0 14 2 31 5 43h-27zM20 503c34 72 72 106 111 106
c42 0 85 -39 112 -106l-14 -7c-27 45 -61 74 -97 74c-30 0 -62 -19 -95 -74zM97 580c10 4 23 7 35 7c11 0 22 -2 35 -7c-12 7 -24 12 -36 12c-10 0 -22 -3 -34 -12z" />
    <glyph glyph-name="uni020C" unicode="&#x20c;" 
d="M412 94c22 35 34 81 34 133c0 73 -23 133 -64 171c26 -42 44 -107 44 -206c0 -38 -5 -70 -14 -98zM95 361c-22 -35 -34 -82 -34 -134c0 -73 23 -133 64 -171c-26 42 -44 107 -44 206c0 38 5 71 14 99zM400 192c0 165 -53 254 -150 254c-93 0 -143 -65 -143 -184
c0 -165 53 -253 150 -253c93 0 143 64 143 183zM35 227c0 147 87 245 218 245s219 -98 219 -245s-88 -244 -219 -244s-218 97 -218 244zM123 624l96 -111l-14 -11l-92 80l-17 19zM280 624l96 -111l-13 -11l-93 80l-17 19z" />
    <glyph glyph-name="uni020D" unicode="&#x20d;" 
d="M412 94c22 35 34 81 34 133c0 73 -23 133 -64 171c26 -42 44 -107 44 -206c0 -38 -5 -70 -14 -98zM95 361c-22 -35 -34 -82 -34 -134c0 -73 23 -133 64 -171c-26 42 -44 107 -44 206c0 38 5 71 14 99zM400 192c0 165 -53 254 -150 254c-93 0 -143 -65 -143 -184
c0 -165 53 -253 150 -253c93 0 143 64 143 183zM35 227c0 147 87 245 218 245s219 -98 219 -245s-88 -244 -219 -244s-218 97 -218 244zM123 624l96 -111l-14 -11l-92 80l-17 19zM280 624l96 -111l-13 -11l-93 80l-17 19z" />
    <glyph glyph-name="uni020E" unicode="&#x20e;" 
d="M183 575c22 16 46 22 70 22c25 0 50 -7 73 -22c-23 21 -49 33 -73 33c-22 0 -46 -10 -70 -33zM412 94c22 35 34 81 34 133c0 73 -23 133 -64 171c26 -42 44 -107 44 -206c0 -38 -5 -70 -14 -98zM95 361c-22 -35 -34 -82 -34 -134c0 -73 23 -133 64 -171
c-26 42 -44 107 -44 206c0 38 5 71 14 99zM400 192c0 165 -53 254 -150 254c-93 0 -143 -65 -143 -184c0 -165 53 -253 150 -253c93 0 143 64 143 183zM35 227c0 147 87 245 218 245s219 -98 219 -245s-88 -244 -219 -244s-218 97 -218 244zM114 507c42 80 90 117 139 117
c53 0 106 -42 140 -117l-17 -9c-34 50 -78 82 -123 82c-38 0 -76 -21 -118 -82z" />
    <glyph glyph-name="uni020F" unicode="&#x20f;" 
d="M183 575c22 16 46 22 70 22c25 0 50 -7 73 -22c-23 21 -49 33 -73 33c-22 0 -46 -10 -70 -33zM412 94c22 35 34 81 34 133c0 73 -23 133 -64 171c26 -42 44 -107 44 -206c0 -38 -5 -70 -14 -98zM95 361c-22 -35 -34 -82 -34 -134c0 -73 23 -133 64 -171
c-26 42 -44 107 -44 206c0 38 5 71 14 99zM400 192c0 165 -53 254 -150 254c-93 0 -143 -65 -143 -184c0 -165 53 -253 150 -253c93 0 143 64 143 183zM35 227c0 147 87 245 218 245s219 -98 219 -245s-88 -244 -219 -244s-218 97 -218 244zM114 507c42 80 90 117 139 117
c53 0 106 -42 140 -117l-17 -9c-34 50 -78 82 -123 82c-38 0 -76 -21 -118 -82z" />
    <glyph glyph-name="uni0210" unicode="&#x210;" horiz-adv-x="498" 
d="M301 152c6 -9 13 -18 20 -30c88 -134 145 -204 200 -235c-45 39 -91 103 -164 213c-14 21 -37 42 -56 52zM370 239c31 19 50 47 50 76c0 31 -17 57 -47 77c14 -21 20 -47 20 -77c0 -23 -5 -52 -23 -76zM121 415c1 -7 1 -23 1 -30v-315c0 -14 -1 -32 -4 -44h27
c-3 13 -5 26 -5 44v306c0 10 -2 24 -10 32l-8 8zM17 455h202c136 0 227 -56 227 -140c0 -67 -67 -119 -153 -127v-5c28 -6 64 -35 85 -68c138 -209 181 -250 282 -250c28 0 60 9 84 25l9 -15c-35 -27 -77 -40 -119 -40c-129 0 -192 54 -335 273c-33 50 -54 76 -98 76h-9v26
h35c91 0 140 37 140 105c0 74 -49 113 -140 113h-78v-1c12 -12 17 -29 17 -51v-306c0 -47 6 -53 53 -53h17v-17h-219v17h27c47 0 52 6 52 53v315c0 47 -5 52 -52 52h-27v18zM92 624l96 -111l-13 -11l-93 80l-16 19zM250 624l95 -111l-13 -11l-92 80l-17 19zM91 606l-7 -6
l7 -9l47 -39zM248 606l-7 -6l8 -9l46 -39z" />
    <glyph glyph-name="uni0211" unicode="&#x211;" horiz-adv-x="533" 
d="M17 455h236c136 0 228 -56 228 -140c0 -67 -67 -119 -153 -127v-5c28 -6 63 -35 85 -68l16 -24c33 -50 46 -70 69 -70h8l25 5l2 -17c-31 -9 -61 -18 -82 -18c-35 0 -55 21 -92 79l-25 38c-33 50 -54 76 -98 76h-44v26h70c91 0 140 37 140 105c0 74 -49 113 -140 113h-113
v-1c12 -12 17 -29 17 -51v-306c0 -47 6 -53 53 -53h17v-17h-219v17h27c47 0 52 6 52 53v315c0 47 -5 52 -52 52h-27v18zM450 17c-10 10 -19 24 -43 59l-15 24c-17 26 -39 44 -56 52c7 -9 13 -19 20 -30l25 -38c35 -55 48 -67 69 -67zM405 239c31 19 50 47 50 76
c0 31 -17 57 -47 77c14 -21 20 -47 20 -77c0 -23 -5 -52 -23 -76zM121 415c2 -12 1 -23 1 -30v-315c0 -14 -1 -32 -4 -44h27c-3 13 -5 30 -5 44v306c0 10 -2 24 -10 32l-8 8zM118 624l96 -111l-13 -11l-93 80l-16 19zM276 624l96 -111l-14 -11l-92 80l-17 19zM117 606l-7 -6
l8 -9l46 -39zM274 606l-7 -6l8 -9l46 -39z" />
    <glyph glyph-name="uni0212" unicode="&#x212;" horiz-adv-x="498" 
d="M301 152c6 -9 13 -18 20 -30c88 -134 145 -204 200 -235c-45 39 -91 103 -164 213c-14 21 -37 42 -56 52zM370 239c31 19 50 47 50 76c0 31 -17 57 -47 77c14 -21 20 -47 20 -77c0 -23 -5 -52 -23 -76zM121 415c1 -7 1 -23 1 -30v-315c0 -14 -1 -32 -4 -44h27
c-3 13 -5 26 -5 44v306c0 10 -2 24 -10 32l-8 8zM17 455h202c136 0 227 -56 227 -140c0 -67 -67 -119 -153 -127v-5c28 -6 64 -35 85 -68c138 -209 181 -250 282 -250c28 0 60 9 84 25l9 -15c-35 -27 -77 -40 -119 -40c-129 0 -192 54 -335 273c-33 50 -54 76 -98 76h-9v26
h35c91 0 140 37 140 105c0 74 -49 113 -140 113h-78v-1c12 -12 17 -29 17 -51v-306c0 -47 6 -53 53 -53h17v-17h-219v17h27c47 0 52 6 52 53v315c0 47 -5 52 -52 52h-27v18zM161 575c22 16 47 22 71 22c25 0 49 -7 72 -22c-23 21 -49 33 -73 33c-22 0 -46 -10 -70 -33z
M92 507c42 80 90 117 139 117c53 0 107 -42 141 -117l-18 -9c-34 50 -77 82 -122 82c-38 0 -76 -21 -118 -82z" />
    <glyph glyph-name="uni0213" unicode="&#x213;" horiz-adv-x="533" 
d="M17 455h236c136 0 228 -56 228 -140c0 -67 -67 -119 -153 -127v-5c28 -6 63 -35 85 -68l16 -24c33 -50 46 -70 69 -70h8l25 5l2 -17c-31 -9 -61 -18 -82 -18c-35 0 -55 21 -92 79l-25 38c-33 50 -54 76 -98 76h-44v26h70c91 0 140 37 140 105c0 74 -49 113 -140 113h-113
v-1c12 -12 17 -29 17 -51v-306c0 -47 6 -53 53 -53h17v-17h-219v17h27c47 0 52 6 52 53v315c0 47 -5 52 -52 52h-27v18zM450 17c-10 10 -19 24 -43 59l-15 24c-17 26 -39 44 -56 52c7 -9 13 -19 20 -30l25 -38c35 -55 48 -67 69 -67zM405 239c31 19 50 47 50 76
c0 31 -17 57 -47 77c14 -21 20 -47 20 -77c0 -23 -5 -52 -23 -76zM121 415c2 -12 1 -23 1 -30v-315c0 -14 -1 -32 -4 -44h27c-3 13 -5 30 -5 44v306c0 10 -2 24 -10 32l-8 8zM188 575c22 16 46 22 70 22c25 0 49 -7 72 -22c-23 21 -49 33 -73 33c-22 0 -45 -10 -69 -33z
M118 507c42 80 90 117 139 117c53 0 107 -42 141 -117l-18 -9c-34 50 -77 82 -122 82c-38 0 -76 -21 -118 -82z" />
    <glyph glyph-name="uni0214" unicode="&#x214;" horiz-adv-x="524" 
d="M17 455h219v-18h-26c-47 0 -53 -5 -53 -52v-254c0 -80 39 -122 110 -122c87 0 144 59 144 148v228c0 47 -6 52 -53 52h-26v18h175v-18h-19c-47 0 -51 -5 -51 -52v-228c0 -105 -68 -174 -170 -174c-108 0 -180 69 -180 174v228c0 47 -5 52 -52 52h-18v18zM136 428h-27
c3 -13 5 -31 5 -43v-228c0 -36 9 -67 27 -91c-7 19 -10 40 -10 65v254c0 14 2 31 5 43zM145 624l95 -111l-13 -11l-92 80l-17 19zM302 624l96 -111l-13 -11l-93 80l-17 19zM143 606l-7 -6l8 -9l46 -39zM301 606l-7 -6l7 -9l46 -39z" />
    <glyph glyph-name="uni0215" unicode="&#x215;" horiz-adv-x="524" 
d="M17 455h219v-18h-26c-47 0 -53 -5 -53 -52v-254c0 -80 39 -122 110 -122c87 0 144 59 144 148v228c0 47 -6 52 -53 52h-26v18h175v-18h-19c-47 0 -51 -5 -51 -52v-228c0 -105 -68 -174 -170 -174c-108 0 -180 69 -180 174v228c0 47 -5 52 -52 52h-18v18zM136 428h-27
c3 -13 5 -31 5 -43v-228c0 -36 9 -67 27 -91c-7 19 -10 40 -10 65v254c0 14 2 31 5 43zM145 624l95 -111l-13 -11l-92 80l-17 19zM302 624l96 -111l-13 -11l-93 80l-17 19zM143 606l-7 -6l8 -9l46 -39zM301 606l-7 -6l7 -9l46 -39z" />
    <glyph glyph-name="uni0216" unicode="&#x216;" horiz-adv-x="524" 
d="M17 455h219v-18h-26c-47 0 -53 -5 -53 -52v-254c0 -80 39 -122 110 -122c87 0 144 59 144 148v228c0 47 -6 52 -53 52h-26v18h175v-18h-19c-47 0 -51 -5 -51 -52v-228c0 -105 -68 -174 -170 -174c-108 0 -180 69 -180 174v228c0 47 -5 52 -52 52h-18v18zM136 428h-27
c3 -13 5 -31 5 -43v-228c0 -36 9 -67 27 -91c-7 19 -10 40 -10 65v254c0 14 2 31 5 43zM135 507c42 80 91 117 140 117c53 0 106 -42 140 -117l-17 -9c-34 50 -78 82 -123 82c-38 0 -76 -21 -118 -82zM205 575c22 16 46 23 70 23c25 0 49 -8 72 -23c-23 21 -48 32 -72 32
c-22 0 -46 -9 -70 -32z" />
    </font>
</defs>
</svg>
